HubotSans.glyphspackage
{
glyphname = Thorn;
layers = (
{
layerId = "6932EABA-00D8-4526-96D6-87ADD7AC589E";
paths = (
{
closed = 1;
nodes = (
"96 0 LINE",
"96 729 LINE",
"65 729 LINE",
"65 0 LINE"
);
},
{
closed = 1;
nodes = (
"171 168 LINE SMOOTH",
"273 168 OFFCURVE",
"332 223 OFFCURVE",
"332 365 CURVE SMOOTH",
"332 507 OFFCURVE",
"273 562 OFFCURVE",
"171 562 CURVE SMOOTH",
"89 562 LINE",
"89 534 LINE",
"171 534 LINE SMOOTH",
"265 534 OFFCURVE",
"301 477 OFFCURVE",
"301 391 CURVE SMOOTH",
"301 339 LINE SMOOTH",
"301 253 OFFCURVE",
"265 196 OFFCURVE",
"171 196 CURVE SMOOTH",
"89 196 LINE",
"89 168 LINE"
);
}
);
width = 367;
},
{
layerId = "5CD2F84A-2568-4CD8-B351-D9C938FC152A";
paths = (
{
closed = 1;
nodes = (
"127 0 LINE",
"127 729 LINE",
"54 729 LINE",
"54 0 LINE"
);
},
{
closed = 1;
nodes = (
"193 159 LINE SMOOTH",
"301 159 OFFCURVE",
"368 213 OFFCURVE",
"368 366 CURVE SMOOTH",
"368 510 OFFCURVE",
"304 571 OFFCURVE",
"186 571 CURVE SMOOTH",
"116 571 LINE",
"116 512 LINE",
"188 512 LINE SMOOTH",
"264 512 OFFCURVE",
"296 469 OFFCURVE",
"296 394 CURVE SMOOTH",
"296 336 LINE SMOOTH",
"296 264 OFFCURVE",
"268 217 OFFCURVE",
"188 217 CURVE SMOOTH",
"116 217 LINE",
"116 159 LINE"
);
}
);
width = 396;
},
{
layerId = "C27438A8-196C-4C9A-B899-94A1193B83E6";
paths = (
{
closed = 1;
nodes = (
"207 0 LINE",
"207 729 LINE",
"28 729 LINE",
"28 0 LINE"
);
},
{
closed = 1;
nodes = (
"248 138 LINE SMOOTH",
"372 138 OFFCURVE",
"458 189 OFFCURVE",
"458 371 CURVE SMOOTH",
"458 517 OFFCURVE",
"382 591 OFFCURVE",
"225 591 CURVE SMOOTH",
"191 591 LINE",
"191 458 LINE",
"232 458 LINE SMOOTH",
"264 458 OFFCURVE",
"284 449 OFFCURVE",
"284 403 CURVE SMOOTH",
"284 329 LINE SMOOTH",
"284 291 OFFCURVE",
"275 267 OFFCURVE",
"232 267 CURVE SMOOTH",
"191 267 LINE",
"191 138 LINE"
);
}
);
width = 467;
},
{
layerId = "5908592F-1119-4296-AF9E-8219C1C10A44";
paths = (
{
closed = 1;
nodes = (
"113 0 LINE",
"113 729 LINE",
"71 729 LINE",
"71 0 LINE"
);
},
{
closed = 1;
nodes = (
"379 163 LINE SMOOTH",
"525 163 OFFCURVE",
"624 228 OFFCURVE",
"624 365 CURVE SMOOTH",
"624 500 OFFCURVE",
"525 566 OFFCURVE",
"379 566 CURVE SMOOTH",
"97 566 LINE",
"97 528 LINE",
"395 528 LINE SMOOTH",
"512 528 OFFCURVE",
"579 471 OFFCURVE",
"579 385 CURVE SMOOTH",
"579 344 LINE SMOOTH",
"579 258 OFFCURVE",
"512 201 OFFCURVE",
"395 201 CURVE SMOOTH",
"97 201 LINE",
"97 163 LINE"
);
}
);
width = 653;
},
{
layerId = "B2A2C094-0A8E-4CD4-B0FB-CC77B76A82B9";
paths = (
{
closed = 1;
nodes = (
"319 0 LINE",
"319 729 LINE",
"56 729 LINE",
"56 0 LINE"
);
},
{
closed = 1;
nodes = (
"463 102 LINE SMOOTH",
"659 102 OFFCURVE",
"789 197 OFFCURVE",
"789 364 CURVE SMOOTH",
"789 532 OFFCURVE",
"658 628 OFFCURVE",
"464 628 CURVE SMOOTH",
"307 628 LINE",
"307 441 LINE",
"423 441 LINE SMOOTH",
"477 441 OFFCURVE",
"512 416 OFFCURVE",
"512 371 CURVE SMOOTH",
"512 351 LINE SMOOTH",
"512 311 OFFCURVE",
"480 282 OFFCURVE",
"423 282 CURVE SMOOTH",
"307 282 LINE",
"307 102 LINE"
);
}
);
width = 809;
},
{
layerId = "AE48F426-5A06-4069-851E-B29A4CF5AB7C";
paths = (
{
closed = 1;
nodes = (
"167 0 LINE",
"167 729 LINE",
"67 729 LINE",
"67 0 LINE"
);
},
{
closed = 1;
nodes = (
"392 143 LINE SMOOTH",
"551 143 OFFCURVE",
"659 220 OFFCURVE",
"659 366 CURVE SMOOTH",
"659 508 OFFCURVE",
"556 587 OFFCURVE",
"393 587 CURVE SMOOTH",
"147 587 LINE",
"147 502 LINE",
"395 502 LINE SMOOTH",
"492 502 OFFCURVE",
"552 456 OFFCURVE",
"552 382 CURVE SMOOTH",
"552 346 LINE SMOOTH",
"552 272 OFFCURVE",
"493 227 OFFCURVE",
"395 227 CURVE SMOOTH",
"147 227 LINE",
"147 143 LINE"
);
}
);
width = 685;
},
{
layerId = "3997DD6A-B1DD-4C8E-8076-A32381C7B82F";
paths = (
{
closed = 1;
nodes = (
"176 0 LINE",
"304 729 LINE",
"125 729 LINE",
"-3 0 LINE"
);
},
{
closed = 1;
nodes = (
"241 138 LINE SMOOTH",
"365 138 OFFCURVE",
"460 189 OFFCURVE",
"492 371 CURVE SMOOTH",
"518 517 OFFCURVE",
"455 591 OFFCURVE",
"298 591 CURVE SMOOTH",
"264 591 LINE",
"240 458 LINE",
"281 458 LINE SMOOTH",
"313 458 OFFCURVE",
"332 449 OFFCURVE",
"324 403 CURVE SMOOTH",
"311 329 LINE SMOOTH",
"304 291 OFFCURVE",
"291 267 OFFCURVE",
"248 267 CURVE SMOOTH",
"207 267 LINE",
"184 138 LINE"
);
}
);
width = 480;
},
{
layerId = "83818878-ED40-419E-99CD-108DAFFBE778";
paths = (
{
closed = 1;
nodes = (
"60 0 LINE",
"212 729 LINE",
"171 729 LINE",
"18 0 LINE"
);
},
{
closed = 1;
nodes = (
"391 163 LINE SMOOTH",
"557 163 OFFCURVE",
"651 253 OFFCURVE",
"656 389 CURVE SMOOTH",
"660 502 OFFCURVE",
"588 567 OFFCURVE",
"455 567 CURVE SMOOTH",
"169 567 LINE",
"160 529 LINE",
"449 529 LINE SMOOTH",
"573 529 OFFCURVE",
"630 464 OFFCURVE",
"607 365 CURVE SMOOTH",
"601 339 LINE SMOOTH",
"582 257 OFFCURVE",
"517 201 OFFCURVE",
"400 201 CURVE SMOOTH",
"92 201 LINE",
"84 163 LINE"
);
}
);
width = 661.36;
},
{
layerId = "60C8C1A3-75DB-4AA2-AA92-15A0C8BC52E3";
paths = (
{
closed = 1;
nodes = (
"114.2 0 LINE",
"265.4 729 LINE",
"165.4 729 LINE",
"14.2 0 LINE"
);
},
{
closed = 1;
nodes = (
"386 143 LINE SMOOTH",
"555.8 143 OFFCURVE",
"666.2 232 OFFCURVE",
"671 385.2 CURVE SMOOTH",
"675.8 506.8 OFFCURVE",
"596.8 587 OFFCURVE",
"447 587 CURVE SMOOTH",
"177 587 LINE",
"157.8 502 LINE",
"434.6 502 LINE SMOOTH",
"523.2 502 OFFCURVE",
"582 456 OFFCURVE",
"561.6 359.2 CURVE SMOOTH",
"558 338.8 LINE SMOOTH",
"542.4 269.6 OFFCURVE",
"485.8 227 OFFCURVE",
"399.8 227 CURVE SMOOTH",
"100.2 227 LINE",
"82.2 143 LINE"
);
}
);
width = 677.332;
},
{
layerId = "FFB0BD1F-7FAC-4F91-A9E1-473A5D606C71";
paths = (
{
closed = 1;
nodes = (
"261.044 0 LINE",
"416.044 729 LINE",
"153.044 729 LINE",
"-1.956 0 LINE"
);
},
{
closed = 1;
nodes = (
"516.044 102 LINE SMOOTH",
"713.044 102 OFFCURVE",
"848.044 216 OFFCURVE",
"852.044 384 CURVE SMOOTH",
"857.044 545 OFFCURVE",
"747.044 628 OFFCURVE",
"565.044 628 CURVE SMOOTH",
"349.044 628 LINE",
"309.044 441 LINE",
"502.044 441 LINE SMOOTH",
"553.044 441 OFFCURVE",
"582.044 414 OFFCURVE",
"573.044 364 CURVE SMOOTH",
"571.044 349 LINE SMOOTH",
"564.044 308 OFFCURVE",
"529.044 281 OFFCURVE",
"471.044 281 CURVE SMOOTH",
"274.044 281 LINE",
"235.044 102 LINE"
);
}
);
width = 853.044;
},
{
layerId = "DE16639F-02D9-40F6-995B-45753FE85645";
paths = (
{
closed = 1;
nodes = (
"94 0 LINE",
"223 729 LINE",
"154 729 LINE",
"25 0 LINE"
);
},
{
closed = 1;
nodes = (
"186 160 LINE SMOOTH",
"291 160 OFFCURVE",
"365 214 OFFCURVE",
"391 366 CURVE SMOOTH",
"417 510 OFFCURVE",
"366 570 OFFCURVE",
"253 570 CURVE SMOOTH",
"180 570 LINE",
"171 513 LINE",
"244 513 LINE SMOOTH",
"319 513 OFFCURVE",
"342 470 OFFCURVE",
"329 394 CURVE SMOOTH",
"319 336 LINE SMOOTH",
"306 263 OFFCURVE",
"270 215 OFFCURVE",
"192 215 CURVE SMOOTH",
"118 215 LINE",
"109 160 LINE"
);
}
);
width = 398;
},
{
layerId = "CF2D9F7C-A313-4B1D-9A0D-3EFAA90186C4";
paths = (
{
closed = 1;
nodes = (
"196 0 LINE",
"196 729 LINE",
"165 729 LINE",
"165 0 LINE"
);
},
{
closed = 1;
nodes = (
"271 168 LINE SMOOTH",
"373 168 OFFCURVE",
"432 223 OFFCURVE",
"432 365 CURVE SMOOTH",
"432 507 OFFCURVE",
"373 562 OFFCURVE",
"271 562 CURVE SMOOTH",
"189 562 LINE",
"189 534 LINE",
"271 534 LINE SMOOTH",
"365 534 OFFCURVE",
"401 477 OFFCURVE",
"401 391 CURVE SMOOTH",
"401 339 LINE SMOOTH",
"401 253 OFFCURVE",
"365 196 OFFCURVE",
"271 196 CURVE SMOOTH",
"189 196 LINE",
"189 168 LINE"
);
}
);
width = 453.27;
}
);
leftMetricsKey = H;
rightMetricsKey = P;
unicode = 00DE;
}
{
glyphname = acute;
layers = (
{
anchors = (
{
name = _top;
position = "{51, 672}";
}
);
background = {
paths = (
{
closed = 1;
nodes = (
"65 750 LINE",
"134 886 LINE",
"102 886 LINE",
"37 750 LINE"
);
}
);
};
layerId = "6932EABA-00D8-4526-96D6-87ADD7AC589E";
paths = (
{
closed = 1;
nodes = (
"67 750 LINE",
"134 886 LINE",
"102 886 LINE",
"35 750 LINE"
);
}
);
width = 169;
},
{
anchors = (
{
name = _top;
position = "{56, 674}";
}
);
background = {
anchors = (
{
name = _top;
position = "{47, 674}";
}
);
paths = (
{
closed = 1;
nodes = (
"78 745 LINE",
"154 886 LINE",
"76 886 LINE",
"16 745 LINE"
);
}
);
};
layerId = "5CD2F84A-2568-4CD8-B351-D9C938FC152A";
paths = (
{
closed = 1;
nodes = (
"92 745 LINE",
"164 879 LINE",
"87 879 LINE",
"20 745 LINE"
);
}
);
width = 184;
},
{
anchors = (
{
name = _top;
position = "{98, 679}";
}
);
background = {
paths = (
{
closed = 1;
nodes = (
"149 734 LINE",
"243 886 LINE",
"49 886 LINE",
"0 734 LINE"
);
}
);
};
layerId = "C27438A8-196C-4C9A-B899-94A1193B83E6";
paths = (
{
closed = 1;
nodes = (
"176 719 LINE",
"245 862 LINE",
"68 862 LINE",
"20 719 LINE"
);
}
);
width = 265;
},
{
anchors = (
{
name = _top;
position = "{55, 672}";
}
);
layerId = "5908592F-1119-4296-AF9E-8219C1C10A44";
paths = (
{
closed = 1;
nodes = (
"75 750 LINE",
"148 886 LINE",
"108 886 LINE",
"35 750 LINE"
);
}
);
width = 183;
},
{
anchors = (
{
name = _top;
position = "{135, 679}";
}
);
layerId = "B2A2C094-0A8E-4CD4-B0FB-CC77B76A82B9";
paths = (
{
closed = 1;
nodes = (
"245 734 LINE",
"358 863 LINE",
"105 863 LINE",
"25 734 LINE"
);
}
);
width = 383;
},
{
anchors = (
{
name = _top;
position = "{79, 674}";
}
);
layerId = "AE48F426-5A06-4069-851E-B29A4CF5AB7C";
paths = (
{
closed = 1;
nodes = (
"133 752 LINE",
"253 878 LINE",
"142 878 LINE",
"25 752 LINE"
);
}
);
width = 278;
},
{
anchors = (
{
name = _top;
position = "{189, 679}";
}
);
layerId = "3997DD6A-B1DD-4C8E-8076-A32381C7B82F";
paths = (
{
closed = 1;
nodes = (
"281 719 LINE",
"380 862 LINE",
"194 862 LINE",
"115 719 LINE"
);
}
);
width = 275;
},
{
anchors = (
{
name = _top;
position = "{145, 672}";
}
);
layerId = "83818878-ED40-419E-99CD-108DAFFBE778";
paths = (
{
closed = 1;
nodes = (
"183 750 LINE",
"285 886 LINE",
"242 886 LINE",
"141 750 LINE"
);
}
);
width = 187;
},
{
anchors = (
{
name = _top;
position = "{169, 674}";
}
);
layerId = "60C8C1A3-75DB-4AA2-AA92-15A0C8BC52E3";
paths = (
{
closed = 1;
nodes = (
"242 752 LINE",
"388 878 LINE",
"272 878 LINE",
"129 752 LINE"
);
}
);
width = 277;
},
{
anchors = (
{
name = _top;
position = "{216, 679}";
}
);
layerId = "FFB0BD1F-7FAC-4F91-A9E1-473A5D606C71";
paths = (
{
closed = 1;
nodes = (
"338 734 LINE",
"479 863 LINE",
"226 863 LINE",
"118 734 LINE"
);
}
);
width = 373;
},
{
anchors = (
{
name = _top;
position = "{151, 674}";
}
);
layerId = "DE16639F-02D9-40F6-995B-45753FE85645";
paths = (
{
closed = 1;
nodes = (
"205 745 LINE",
"305 879 LINE",
"223 879 LINE",
"128 745 LINE"
);
}
);
width = 199;
},
{
anchors = (
{
name = _top;
position = "{139, 672}";
}
);
layerId = "CF2D9F7C-A313-4B1D-9A0D-3EFAA90186C4";
paths = (
{
closed = 1;
nodes = (
"172 750 LINE",
"268 886 LINE",
"236 886 LINE",
"140 750 LINE"
);
}
);
width = 169;
}
);
unicode = 00B4;
}
{
glyphname = ae;
layers = (
{
background = {
paths = (
{
closed = 1;
nodes = (
"209 -6 OFFCURVE",
"252 31 OFFCURVE",
"265 96 CURVE",
"270 96 LINE",
"283 26 OFFCURVE",
"335 -5 OFFCURVE",
"398 -6 CURVE SMOOTH",
"480 -5 OFFCURVE",
"536 42 OFFCURVE",
"536 160 CURVE",
"506 160 LINE",
"506 77 OFFCURVE",
"480 21 OFFCURVE",
"398 21 CURVE SMOOTH",
"316 21 OFFCURVE",
"290 81 OFFCURVE",
"290 170 CURVE SMOOTH",
"290 345 LINE SMOOTH",
"290 434 OFFCURVE",
"316 494 OFFCURVE",
"398 494 CURVE SMOOTH",
"480 494 OFFCURVE",
"506 434 OFFCURVE",
"506 345 CURVE SMOOTH",
"506 280 LINE",
"520 294 LINE",
"283 294 LINE",
"283 267 LINE",
"537 267 LINE",
"537 345 LINE SMOOTH",
"537 470 OFFCURVE",
"481 520 OFFCURVE",
"398 521 CURVE SMOOTH",
"345 520 OFFCURVE",
"302 499 OFFCURVE",
"279 451 CURVE",
"263 498 OFFCURVE",
"227 521 OFFCURVE",
"170 521 CURVE SMOOTH",
"97 521 OFFCURVE",
"46 475 OFFCURVE",
"46 379 CURVE",
"76 379 LINE",
"75 448 OFFCURVE",
"105 494 OFFCURVE",
"169 494 CURVE SMOOTH",
"227 494 OFFCURVE",
"259 465 OFFCURVE",
"259 375 CURVE SMOOTH",
"259 168 LINE SMOOTH",
"259 83 OFFCURVE",
"227 22 OFFCURVE",
"159 22 CURVE SMOOTH",
"105 22 OFFCURVE",
"69 49 OFFCURVE",
"69 141 CURVE SMOOTH",
"69 229 OFFCURVE",
"109 267 OFFCURVE",
"189 267 CURVE SMOOTH",
"266 267 LINE",
"266 294 LINE",
"182 294 LINE SMOOTH",
"66 294 OFFCURVE",
"38 214 OFFCURVE",
"38 143 CURVE SMOOTH",
"38 45 OFFCURVE",
"75 -6 OFFCURVE",
"152 -6 CURVE SMOOTH"
);
}
);
};
layerId = "6932EABA-00D8-4526-96D6-87ADD7AC589E";
paths = (
{
closed = 1;
nodes = (
"207 -6 OFFCURVE",
"252 26 OFFCURVE",
"269 84 CURVE",
"273 84 LINE",
"289 22 OFFCURVE",
"339 -5 OFFCURVE",
"398 -6 CURVE SMOOTH",
"480 -5 OFFCURVE",
"536 42 OFFCURVE",
"536 160 CURVE",
"506 160 LINE",
"506 77 OFFCURVE",
"480 21 OFFCURVE",
"398 21 CURVE SMOOTH",
"316 21 OFFCURVE",
"290 81 OFFCURVE",
"290 170 CURVE SMOOTH",
"290 345 LINE SMOOTH",
"290 434 OFFCURVE",
"316 494 OFFCURVE",
"398 494 CURVE SMOOTH",
"467 494 OFFCURVE",
"506 446 OFFCURVE",
"506 375 CURVE SMOOTH",
"506 280 LINE",
"520 294 LINE",
"283 294 LINE",
"283 267 LINE",
"537 267 LINE",
"537 348 LINE SMOOTH",
"537 455 OFFCURVE",
"490 520 OFFCURVE",
"398 521 CURVE SMOOTH",
"346 520 OFFCURVE",
"304 500 OFFCURVE",
"281 446 CURVE",
"266 497 OFFCURVE",
"229 521 OFFCURVE",
"170 521 CURVE SMOOTH",
"97 521 OFFCURVE",
"46 475 OFFCURVE",
"46 379 CURVE",
"76 379 LINE",
"75 448 OFFCURVE",
"105 494 OFFCURVE",
"169 494 CURVE SMOOTH",
"227 494 OFFCURVE",
"259 465 OFFCURVE",
"259 375 CURVE SMOOTH",
"259 330 LINE SMOOTH",
"259 276 OFFCURVE",
"259 222 OFFCURVE",
"259 168 CURVE SMOOTH",
"259 83 OFFCURVE",
"231 22 OFFCURVE",
"157 22 CURVE SMOOTH",
"107 22 OFFCURVE",
"69 49 OFFCURVE",
"69 135 CURVE SMOOTH",
"69 229 OFFCURVE",
"109 267 OFFCURVE",
"199 267 CURVE SMOOTH",
"266 267 LINE",
"266 294 LINE",
"199 294 LINE SMOOTH",
"66 294 OFFCURVE",
"38 214 OFFCURVE",
"38 128 CURVE SMOOTH",
"38 45 OFFCURVE",
"79 -6 OFFCURVE",
"153 -6 CURVE SMOOTH"
);
}
);
width = 575;
},
{
background = {
paths = (
{
closed = 1;
nodes = (
"210 -7 OFFCURVE",
"257 25 OFFCURVE",
"274 82 CURVE",
"280 82 LINE",
"298 24 OFFCURVE",
"353 -7 OFFCURVE",
"419 -7 CURVE SMOOTH",
"523 -7 OFFCURVE",
"581 55 OFFCURVE",
"582 164 CURVE",
"512 164 LINE",
"512 108 OFFCURVE",
"496 51 OFFCURVE",
"423 51 CURVE SMOOTH",
"356 51 OFFCURVE",
"331 98 OFFCURVE",
"331 174 CURVE SMOOTH",
"331 352 LINE SMOOTH",
"331 423 OFFCURVE",
"354 471 OFFCURVE",
"420 471 CURVE SMOOTH",
"479 471 OFFCURVE",
"510 431 OFFCURVE",
"510 373 CURVE SMOOTH",
"510 288 LINE",
"527 306 LINE",
"321 306 LINE",
"321 251 LINE",
"583 251 LINE",
"583 339 LINE SMOOTH",
"583 459 OFFCURVE",
"525 530 OFFCURVE",
"422 531 CURVE SMOOTH",
"373 531 OFFCURVE",
"327 509 OFFCURVE",
"303 469 CURVE",
"283 511 OFFCURVE",
"245 531 OFFCURVE",
"189 531 CURVE SMOOTH",
"95 531 OFFCURVE",
"41 473 OFFCURVE",
"42 373 CURVE",
"108 373 LINE",
"108 417 OFFCURVE",
"121 469 OFFCURVE",
"185 469 CURVE SMOOTH",
"233 469 OFFCURVE",
"259 444 OFFCURVE",
"259 369 CURVE SMOOTH",
"259 169 LINE SMOOTH",
"259 98 OFFCURVE",
"236 50 OFFCURVE",
"176 50 CURVE SMOOTH",
"136 50 OFFCURVE",
"105 74 OFFCURVE",
"105 146 CURVE SMOOTH",
"105 210 OFFCURVE",
"128 252 OFFCURVE",
"201 252 CURVE SMOOTH",
"268 252 LINE",
"268 307 LINE",
"199 307 LINE SMOOTH",
"99 307 OFFCURVE",
"32 252 OFFCURVE",
"32 136 CURVE SMOOTH",
"32 50 OFFCURVE",
"75 -7 OFFCURVE",
"152 -7 CURVE SMOOTH"
);
}
);
};
layerId = "5CD2F84A-2568-4CD8-B351-D9C938FC152A";
paths = (
{
closed = 1;
nodes = (
"210 -7 OFFCURVE",
"257 25 OFFCURVE",
"274 82 CURVE",
"280 82 LINE",
"298 24 OFFCURVE",
"353 -7 OFFCURVE",
"419 -7 CURVE SMOOTH",
"523 -7 OFFCURVE",
"581 55 OFFCURVE",
"582 164 CURVE",
"512 164 LINE",
"512 108 OFFCURVE",
"496 51 OFFCURVE",
"423 51 CURVE SMOOTH",
"356 51 OFFCURVE",
"331 98 OFFCURVE",
"331 174 CURVE SMOOTH",
"331 372 LINE SMOOTH",
"331 431 OFFCURVE",
"363 471 OFFCURVE",
"421 471 CURVE SMOOTH",
"478 471 OFFCURVE",
"510 431 OFFCURVE",
"510 372 CURVE SMOOTH",
"510 294 LINE",
"523 306 LINE",
"317 306 LINE",
"317 251 LINE",
"583 251 LINE",
"583 339 LINE SMOOTH",
"583 453 OFFCURVE",
"532 530 OFFCURVE",
"424 531 CURVE SMOOTH",
"374 531 OFFCURVE",
"328 511 OFFCURVE",
"303 469 CURVE",
"285 506 OFFCURVE",
"243 531 OFFCURVE",
"189 531 CURVE SMOOTH",
"95 531 OFFCURVE",
"41 473 OFFCURVE",
"42 373 CURVE",
"108 373 LINE",
"108 417 OFFCURVE",
"121 469 OFFCURVE",
"185 469 CURVE SMOOTH",
"229 469 OFFCURVE",
"259 444 OFFCURVE",
"259 379 CURVE SMOOTH",
"259 343 LINE SMOOTH",
"259 285 OFFCURVE",
"259 227 OFFCURVE",
"259 169 CURVE SMOOTH",
"259 98 OFFCURVE",
"236 50 OFFCURVE",
"176 50 CURVE SMOOTH",
"136 50 OFFCURVE",
"105 74 OFFCURVE",
"105 146 CURVE SMOOTH",
"105 210 OFFCURVE",
"128 252 OFFCURVE",
"201 252 CURVE SMOOTH",
"273 252 LINE",
"273 307 LINE",
"199 307 LINE SMOOTH",
"99 307 OFFCURVE",
"32 252 OFFCURVE",
"32 136 CURVE SMOOTH",
"32 50 OFFCURVE",
"75 -7 OFFCURVE",
"152 -7 CURVE SMOOTH"
);
}
);
width = 615;
},
{
background = {
paths = (
{
closed = 1;
nodes = (
"220 -10 OFFCURVE",
"270 26 OFFCURVE",
"281 77 CURVE",
"295 77 LINE",
"318 27 OFFCURVE",
"386 -10 OFFCURVE",
"480 -10 CURVE SMOOTH",
"604 -10 OFFCURVE",
"698 50 OFFCURVE",
"705 177 CURVE",
"534 177 LINE",
"534 153 OFFCURVE",
"516 137 OFFCURVE",
"487 137 CURVE SMOOTH",
"457 137 OFFCURVE",
"434 149 OFFCURVE",
"434 198 CURVE SMOOTH",
"434 221 LINE",
"704 221 LINE",
"704 319 LINE SMOOTH",
"704 460 OFFCURVE",
"637 556 OFFCURVE",
"481 556 CURVE SMOOTH",
"436 556 OFFCURVE",
"395 548 OFFCURVE",
"360 528 CURVE",
"326 549 OFFCURVE",
"283 556 OFFCURVE",
"235 556 CURVE SMOOTH",
"110 556 OFFCURVE",
"31 491 OFFCURVE",
"34 359 CURVE",
"188 359 LINE",
"189 395 OFFCURVE",
"198 409 OFFCURVE",
"225 409 CURVE SMOOTH",
"250 409 OFFCURVE",
"260 395 OFFCURVE",
"260 355 CURVE SMOOTH",
"260 330 LINE",
"202 333 LINE SMOOTH",
"81 334 OFFCURVE",
"18 259 OFFCURVE",
"18 158 CURVE SMOOTH",
"18 148 OFFCURVE",
"18 140 OFFCURVE",
"18 129 CURVE SMOOTH",
"18 46 OFFCURVE",
"68 -10 OFFCURVE",
"156 -10 CURVE SMOOTH"
);
},
{
closed = 1;
nodes = (
"205 121 OFFCURVE",
"194 135 OFFCURVE",
"194 164 CURVE SMOOTH",
"194 169 OFFCURVE",
"194 172 OFFCURVE",
"194 177 CURVE SMOOTH",
"194 215 OFFCURVE",
"203 232 OFFCURVE",
"240 232 CURVE SMOOTH",
"260 231 LINE",
"260 171 LINE SMOOTH",
"261 138 OFFCURVE",
"251 121 OFFCURVE",
"227 121 CURVE SMOOTH"
);
},
{
closed = 1;
nodes = (
"434 344 LINE SMOOTH",
"434 382 OFFCURVE",
"447 408 OFFCURVE",
"483 408 CURVE SMOOTH",
"513 408 OFFCURVE",
"529 391 OFFCURVE",
"529 344 CURVE SMOOTH",
"529 307 LINE",
"551 329 LINE",
"412 329 LINE",
"434 307 LINE"
);
}
);
};
layerId = "C27438A8-196C-4C9A-B899-94A1193B83E6";
paths = (
{
closed = 1;
nodes = (
"220 -9 OFFCURVE",
"269 27 OFFCURVE",
"285 78 CURVE",
"295 78 LINE",
"319 26 OFFCURVE",
"392 -9 OFFCURVE",
"475 -9 CURVE SMOOTH",
"603 -9 OFFCURVE",
"689 58 OFFCURVE",
"694 176 CURVE",
"527 176 LINE",
"526 144 OFFCURVE",
"509 125 OFFCURVE",
"484 125 CURVE SMOOTH",
"457 125 OFFCURVE",
"434 137 OFFCURVE",
"434 186 CURVE SMOOTH",
"434 373 LINE SMOOTH",
"434 401 OFFCURVE",
"448 420 OFFCURVE",
"477 420 CURVE SMOOTH",
"506 420 OFFCURVE",
"520 401 OFFCURVE",
"520 373 CURVE SMOOTH",
"520 308 LINE",
"542 330 LINE",
"418 330 LINE",
"418 221 LINE",
"696 221 LINE",
"696 318 LINE SMOOTH",
"696 471 OFFCURVE",
"607 557 OFFCURVE",
"479 557 CURVE SMOOTH",
"436 557 OFFCURVE",
"395 549 OFFCURVE",
"360 529 CURVE",
"326 550 OFFCURVE",
"283 557 OFFCURVE",
"235 557 CURVE SMOOTH",
"110 557 OFFCURVE",
"31 492 OFFCURVE",
"34 360 CURVE",
"188 360 LINE",
"189 396 OFFCURVE",
"198 410 OFFCURVE",
"225 410 CURVE SMOOTH",
"250 410 OFFCURVE",
"260 396 OFFCURVE",
"260 356 CURVE SMOOTH",
"260 319 LINE SMOOTH",
"260 270 OFFCURVE",
"260 221 OFFCURVE",
"260 172 CURVE SMOOTH",
"260 139 OFFCURVE",
"251 122 OFFCURVE",
"227 122 CURVE SMOOTH",
"205 122 OFFCURVE",
"194 136 OFFCURVE",
"194 172 CURVE SMOOTH",
"194 216 OFFCURVE",
"203 232 OFFCURVE",
"240 232 CURVE SMOOTH",
"276 232 LINE",
"276 331 LINE",
"202 331 LINE SMOOTH",
"81 331 OFFCURVE",
"18 260 OFFCURVE",
"18 145 CURVE SMOOTH",
"18 53 OFFCURVE",
"66 -9 OFFCURVE",
"153 -9 CURVE SMOOTH"
);
}
);
width = 714;
},
{
background = {
paths = (
{
closed = 1;
nodes = (
"336 -10 OFFCURVE",
"436 37 OFFCURVE",
"490 121 CURVE",
"479 123 LINE",
"520 37 OFFCURVE",
"617 -10 OFFCURVE",
"737 -10 CURVE SMOOTH",
"867 -10 OFFCURVE",
"973 50 OFFCURVE",
"1001 141 CURVE",
"961 141 LINE",
"935 72 OFFCURVE",
"852 26 OFFCURVE",
"734 26 CURVE SMOOTH",
"588 26 OFFCURVE",
"490 110 OFFCURVE",
"490 237 CURVE SMOOTH",
"490 272 LINE SMOOTH",
"490 400 OFFCURVE",
"585 490 OFFCURVE",
"734 490 CURVE SMOOTH",
"874 490 OFFCURVE",
"967 414 OFFCURVE",
"967 277 CURVE SMOOTH",
"967 273 LINE",
"981 293 LINE",
"482 293 LINE",
"482 260 LINE",
"1009 260 LINE",
"1009 271 LINE SMOOTH",
"1009 425 OFFCURVE",
"899 526 OFFCURVE",
"736 526 CURVE SMOOTH",
"619 526 OFFCURVE",
"523 475 OFFCURVE",
"480 381 CURVE",
"488 370 LINE",
"475 464 OFFCURVE",
"399 526 OFFCURVE",
"279 526 CURVE SMOOTH",
"160 526 OFFCURVE",
"73 472 OFFCURVE",
"57 374 CURVE",
"97 374 LINE",
"110 445 OFFCURVE",
"167 491 OFFCURVE",
"278 491 CURVE SMOOTH",
"381 491 OFFCURVE",
"450 443 OFFCURVE",
"450 319 CURVE SMOOTH",
"450 270 LINE SMOOTH",
"450 218 OFFCURVE",
"455 179 OFFCURVE",
"468 147 CURVE",
"430 73 OFFCURVE",
"343 24 OFFCURVE",
"230 24 CURVE SMOOTH",
"138 24 OFFCURVE",
"79 62 OFFCURVE",
"79 131 CURVE SMOOTH",
"79 220 OFFCURVE",
"144 261 OFFCURVE",
"287 261 CURVE SMOOTH",
"462 261 LINE",
"462 295 LINE",
"285 295 LINE SMOOTH",
"148 295 OFFCURVE",
"41 256 OFFCURVE",
"41 131 CURVE SMOOTH",
"41 39 OFFCURVE",
"115 -10 OFFCURVE",
"225 -10 CURVE SMOOTH"
);
}
);
};
layerId = "5908592F-1119-4296-AF9E-8219C1C10A44";
paths = (
{
closed = 1;
nodes = (
"330 -10 OFFCURVE",
"425 32 OFFCURVE",
"481 108 CURVE",
"487 108 LINE",
"532 32 OFFCURVE",
"624 -10 OFFCURVE",
"737 -10 CURVE SMOOTH",
"867 -10 OFFCURVE",
"973 50 OFFCURVE",
"1001 141 CURVE",
"961 141 LINE",
"935 72 OFFCURVE",
"852 26 OFFCURVE",
"734 26 CURVE SMOOTH",
"588 26 OFFCURVE",
"490 110 OFFCURVE",
"490 237 CURVE SMOOTH",
"490 272 LINE SMOOTH",
"490 400 OFFCURVE",
"585 490 OFFCURVE",
"734 490 CURVE SMOOTH",
"874 490 OFFCURVE",
"967 414 OFFCURVE",
"967 277 CURVE SMOOTH",
"967 275 LINE",
"981 293 LINE",
"482 293 LINE",
"482 260 LINE",
"1009 260 LINE",
"1009 271 LINE SMOOTH",
"1009 425 OFFCURVE",
"899 526 OFFCURVE",
"736 526 CURVE SMOOTH",
"623 526 OFFCURVE",
"529 478 OFFCURVE",
"484 390 CURVE",
"464 473 OFFCURVE",
"390 526 OFFCURVE",
"279 526 CURVE SMOOTH",
"160 526 OFFCURVE",
"73 472 OFFCURVE",
"57 374 CURVE",
"97 374 LINE",
"110 445 OFFCURVE",
"167 491 OFFCURVE",
"278 491 CURVE SMOOTH",
"381 491 OFFCURVE",
"450 443 OFFCURVE",
"450 319 CURVE SMOOTH",
"450 270 LINE SMOOTH",
"450 218 OFFCURVE",
"455 179 OFFCURVE",
"468 147 CURVE",
"430 73 OFFCURVE",
"343 24 OFFCURVE",
"230 24 CURVE SMOOTH",
"138 24 OFFCURVE",
"79 62 OFFCURVE",
"79 131 CURVE SMOOTH",
"79 220 OFFCURVE",
"144 261 OFFCURVE",
"287 261 CURVE SMOOTH",
"462 261 LINE",
"462 295 LINE",
"285 295 LINE SMOOTH",
"148 295 OFFCURVE",
"41 256 OFFCURVE",
"41 131 CURVE SMOOTH",
"41 39 OFFCURVE",
"115 -10 OFFCURVE",
"225 -10 CURVE SMOOTH"
);
}
);
width = 1048;
},
{
layerId = "B2A2C094-0A8E-4CD4-B0FB-CC77B76A82B9";
paths = (
{
closed = 1;
nodes = (
"324 -12 OFFCURVE",
"411 20 OFFCURVE",
"460 71 CURVE",
"468 71 LINE",
"520 19 OFFCURVE",
"611 -12 OFFCURVE",
"717 -12 CURVE SMOOTH",
"898 -12 OFFCURVE",
"1027 62 OFFCURVE",
"1056 173 CURVE",
"829 173 LINE",
"817 144 OFFCURVE",
"776 129 OFFCURVE",
"724 129 CURVE SMOOTH",
"655 129 OFFCURVE",
"610 162 OFFCURVE",
"610 213 CURVE SMOOTH",
"610 333 LINE SMOOTH",
"610 384 OFFCURVE",
"652 417 OFFCURVE",
"719 417 CURVE SMOOTH",
"785 417 OFFCURVE",
"828 385 OFFCURVE",
"828 338 CURVE SMOOTH",
"828 319 LINE",
"843 334 LINE",
"576 334 LINE",
"576 220 LINE",
"1062 220 LINE",
"1062 283 LINE SMOOTH",
"1062 447 OFFCURVE",
"925 557 OFFCURVE",
"736 557 CURVE SMOOTH",
"650 557 OFFCURVE",
"578 538 OFFCURVE",
"530 508 CURVE",
"492 538 OFFCURVE",
"415 558 OFFCURVE",
"333 558 CURVE SMOOTH",
"165 558 OFFCURVE",
"43 479 OFFCURVE",
"30 354 CURVE",
"232 354 LINE",
"236 390 OFFCURVE",
"267 410 OFFCURVE",
"320 410 CURVE SMOOTH",
"370 410 OFFCURVE",
"403 391 OFFCURVE",
"403 351 CURVE SMOOTH",
"403 258 LINE SMOOTH",
"403 225 OFFCURVE",
"405 193 OFFCURVE",
"411 164 CURVE",
"393 145 OFFCURVE",
"361 131 OFFCURVE",
"317 131 CURVE SMOOTH",
"275 131 OFFCURVE",
"252 146 OFFCURVE",
"252 172 CURVE SMOOTH",
"252 203 OFFCURVE",
"278 222 OFFCURVE",
"334 222 CURVE SMOOTH",
"443 222 LINE",
"443 324 LINE",
"282 324 LINE SMOOTH",
"118 324 OFFCURVE",
"24 253 OFFCURVE",
"24 143 CURVE SMOOTH",
"24 50 OFFCURVE",
"98 -12 OFFCURVE",
"230 -12 CURVE SMOOTH"
);
}
);
width = 1085;
},
{
layerId = "AE48F426-5A06-4069-851E-B29A4CF5AB7C";
paths = (
{
closed = 1;
nodes = (
"323 -11 OFFCURVE",
"416 27 OFFCURVE",
"467 89 CURVE",
"475 89 LINE",
"524 24 OFFCURVE",
"613 -11 OFFCURVE",
"725 -11 CURVE SMOOTH",
"861 -11 OFFCURVE",
"972 53 OFFCURVE",
"998 150 CURVE",
"901 150 LINE",
"880 96 OFFCURVE",
"813 67 OFFCURVE",
"722 67 CURVE SMOOTH",
"606 67 OFFCURVE",
"528 131 OFFCURVE",
"528 229 CURVE SMOOTH",
"528 292 LINE SMOOTH",
"528 391 OFFCURVE",
"603 459 OFFCURVE",
"720 459 CURVE SMOOTH",
"832 459 OFFCURVE",
"907 400 OFFCURVE",
"907 302 CURVE SMOOTH",
"907 293 LINE",
"924 311 LINE",
"510 311 LINE",
"510 241 LINE",
"1006 241 LINE",
"1006 280 LINE SMOOTH",
"1006 435 OFFCURVE",
"891 537 OFFCURVE",
"722 537 CURVE SMOOTH",
"625 537 OFFCURVE",
"546 503 OFFCURVE",
"498 443 CURVE",
"463 502 OFFCURVE",
"389 537 OFFCURVE",
"296 537 CURVE SMOOTH",
"166 537 OFFCURVE",
"64 477 OFFCURVE",
"49 365 CURVE",
"151 365 LINE",
"162 422 OFFCURVE",
"210 455 OFFCURVE",
"294 455 CURVE SMOOTH",
"375 455 OFFCURVE",
"430 418 OFFCURVE",
"430 327 CURVE SMOOTH",
"430 264 LINE SMOOTH",
"430 229 OFFCURVE",
"433 187 OFFCURVE",
"443 153 CURVE",
"414 102 OFFCURVE",
"350 66 OFFCURVE",
"264 66 CURVE SMOOTH",
"193 66 OFFCURVE",
"148 94 OFFCURVE",
"148 146 CURVE SMOOTH",
"148 213 OFFCURVE",
"198 245 OFFCURVE",
"304 245 CURVE SMOOTH",
"449 245 LINE",
"449 311 LINE",
"280 311 LINE SMOOTH",
"131 311 OFFCURVE",
"37 253 OFFCURVE",
"37 138 CURVE SMOOTH",
"37 47 OFFCURVE",
"107 -11 OFFCURVE",
"227 -11 CURVE SMOOTH"
);
}
);
width = 1041;
},
{
layerId = "3997DD6A-B1DD-4C8E-8076-A32381C7B82F";
paths = (
{
closed = 1;
nodes = (
"166 -9 OFFCURVE",
"222 19 OFFCURVE",
"255 80 CURVE",
"263 80 LINE",
"291 24 OFFCURVE",
"349 -9 OFFCURVE",
"429 -9 CURVE SMOOTH",
"543 -9 OFFCURVE",
"635 56 OFFCURVE",
"657 173 CURVE",
"496 173 LINE",
"489 139 OFFCURVE",
"469 126 OFFCURVE",
"445 126 CURVE SMOOTH",
"409 126 OFFCURVE",
"403 154 OFFCURVE",
"410 187 CURVE SMOOTH",
"448 366 LINE SMOOTH",
"455 399 OFFCURVE",
"471 420 OFFCURVE",
"499 420 CURVE SMOOTH",
"524 420 OFFCURVE",
"542 403 OFFCURVE",
"532 360 CURVE SMOOTH",
"522 318 LINE",
"542 330 LINE",
"424 330 LINE",
"402 224 LINE",
"670 224 LINE",
"687 301 LINE SMOOTH",
"721 453 OFFCURVE",
"648 554 OFFCURVE",
"509 554 CURVE SMOOTH",
"468 554 OFFCURVE",
"428 545 OFFCURVE",
"394 527 CURVE",
"365 548 OFFCURVE",
"328 556 OFFCURVE",
"289 557 CURVE SMOOTH",
"168 559 OFFCURVE",
"75 494 OFFCURVE",
"53 360 CURVE",
"207 360 LINE",
"214 398 OFFCURVE",
"227 412 OFFCURVE",
"251 411 CURVE SMOOTH",
"274 410 OFFCURVE",
"286 396 OFFCURVE",
"280 366 CURVE SMOOTH",
"271 324 LINE SMOOTH",
"260 273 OFFCURVE",
"250 223 OFFCURVE",
"239 172 CURVE SMOOTH",
"232 139 OFFCURVE",
"219 122 OFFCURVE",
"195 122 CURVE SMOOTH",
"179 122 OFFCURVE",
"169 134 OFFCURVE",
"170 154 CURVE SMOOTH",
"172 201 OFFCURVE",
"192 232 OFFCURVE",
"232 232 CURVE SMOOTH",
"268 232 LINE",
"289 331 LINE",
"215 331 LINE SMOOTH",
"101 331 OFFCURVE",
"10 273 OFFCURVE",
"-7 150 CURVE SMOOTH",
"-20 55 OFFCURVE",
"26 -9 OFFCURVE",
"107 -9 CURVE SMOOTH"
);
}
);
width = 698;
},
{
layerId = "83818878-ED40-419E-99CD-108DAFFBE778";
paths = (
{
closed = 1;
nodes = (
"310 -10 OFFCURVE",
"408 34 OFFCURVE",
"466 105 CURVE",
"470 105 LINE",
"511 30 OFFCURVE",
"602 -10 OFFCURVE",
"706 -10 CURVE SMOOTH",
"829 -10 OFFCURVE",
"935 41 OFFCURVE",
"978 129 CURVE",
"936 129 LINE",
"902 67 OFFCURVE",
"812 25 OFFCURVE",
"709 25 CURVE SMOOTH",
"549 25 OFFCURVE",
"450 126 OFFCURVE",
"480 279 CURVE SMOOTH",
"488 320 LINE SMOOTH",
"508 422 OFFCURVE",
"601 489 OFFCURVE",
"737 489 CURVE SMOOTH",
"874 489 OFFCURVE",
"970 407 OFFCURVE",
"959 276 CURVE SMOOTH",
"958 264 LINE",
"975 295 LINE",
"474 295 LINE",
"466 261 LINE",
"1000 261 LINE",
"1001 274 LINE SMOOTH",
"1012 423 OFFCURVE",
"904 525 OFFCURVE",
"738 525 CURVE SMOOTH",
"633 525 OFFCURVE",
"544 485 OFFCURVE",
"491 414 CURVE",
"470 481 OFFCURVE",
"401 526 OFFCURVE",
"305 526 CURVE SMOOTH",
"196 526 OFFCURVE",
"98 478 OFFCURVE",
"66 374 CURVE",
"106 374 LINE",
"131 445 OFFCURVE",
"196 491 OFFCURVE",
"299 491 CURVE SMOOTH",
"415 491 OFFCURVE",
"471 427 OFFCURVE",
"446 314 CURVE SMOOTH",
"444 305 LINE SMOOTH",
"432 251 OFFCURVE",
"436 186 OFFCURVE",
"452 137 CURVE",
"405 68 OFFCURVE",
"313 26 OFFCURVE",
"219 26 CURVE SMOOTH",
"138 26 OFFCURVE",
"91 62 OFFCURVE",
"91 123 CURVE SMOOTH",
"91 212 OFFCURVE",
"160 261 OFFCURVE",
"294 261 CURVE SMOOTH",
"447 261 LINE",
"454 295 LINE",
"294 295 LINE SMOOTH",
"146 295 OFFCURVE",
"50 233 OFFCURVE",
"50 123 CURVE SMOOTH",
"50 42 OFFCURVE",
"114 -10 OFFCURVE",
"209 -10 CURVE SMOOTH"
);
}
);
width = 1044;
},
{
layerId = "60C8C1A3-75DB-4AA2-AA92-15A0C8BC52E3";
paths = (
{
closed = 1;
nodes = (
"317.8 -11 OFFCURVE",
"403.6 22.2 OFFCURVE",
"458.2 84.2 CURVE",
"471 84.2 LINE",
"516.4 22.8 OFFCURVE",
"603 -11 OFFCURVE",
"704.2 -11 CURVE SMOOTH",
"851 -12.2 OFFCURVE",
"970.4 50.6 OFFCURVE",
"1004.8 148.8 CURVE",
"900.6 148.8 LINE",
"874.8 97.2 OFFCURVE",
"799.4 64.6 OFFCURVE",
"712 64.6 CURVE SMOOTH",
"585.2 64.6 OFFCURVE",
"503.6 140.6 OFFCURVE",
"527.6 265 CURVE SMOOTH",
"540.8 328 LINE SMOOTH",
"556.4 407.8 OFFCURVE",
"631.4 460.2 OFFCURVE",
"741.2 460.2 CURVE SMOOTH",
"855.6 460.2 OFFCURVE",
"936.6 395.2 OFFCURVE",
"928.2 293.6 CURVE SMOOTH",
"927 285.8 LINE",
"951.2 311 LINE",
"512 311 LINE",
"497.6 241 LINE",
"1021.2 241 LINE",
"1022.4 258.4 LINE SMOOTH",
"1033.2 433.8 OFFCURVE",
"913.4 535.8 OFFCURVE",
"743.2 535.8 CURVE SMOOTH",
"646.2 535.8 OFFCURVE",
"566 506.6 OFFCURVE",
"512 451.4 CURVE",
"474.6 504.4 OFFCURVE",
"405.4 533.4 OFFCURVE",
"322 537 CURVE SMOOTH",
"218.4 539.4 OFFCURVE",
"87.6 497.4 OFFCURVE",
"57 365 CURVE",
"157.8 365 LINE",
"170 424.4 OFFCURVE",
"230 462.2 OFFCURVE",
"311.6 459.8 CURVE SMOOTH",
"405.8 457.4 OFFCURVE",
"454.8 409.6 OFFCURVE",
"440.4 321 CURVE SMOOTH",
"436.8 295.2 LINE SMOOTH",
"428.4 239.8 OFFCURVE",
"430.2 188.2 OFFCURVE",
"440.2 145.8 CURVE",
"400.4 94.8 OFFCURVE",
"317.2 66 OFFCURVE",
"250.4 66 CURVE SMOOTH",
"180.6 66 OFFCURVE",
"144 94 OFFCURVE",
"144 143.6 CURVE SMOOTH",
"144 205.8 OFFCURVE",
"188 245 OFFCURVE",
"304.8 245 CURVE SMOOTH",
"449.8 245 LINE",
"464.2 311 LINE",
"304.8 311 LINE SMOOTH",
"149.8 311 OFFCURVE",
"46.2 253 OFFCURVE",
"45 134.4 CURVE SMOOTH",
"45 47 OFFCURVE",
"117.4 -11 OFFCURVE",
"227.8 -11 CURVE SMOOTH"
);
}
);
width = 1065.8;
},
{
layerId = "FFB0BD1F-7FAC-4F91-A9E1-473A5D606C71";
paths = (
{
closed = 1;
nodes = (
"297 -12 OFFCURVE",
"392 19 OFFCURVE",
"443 71 CURVE",
"457 71 LINE",
"502 21 OFFCURVE",
"600 -12 OFFCURVE",
"702 -12 CURVE SMOOTH",
"880 -12 OFFCURVE",
"1025 63 OFFCURVE",
"1061 173 CURVE",
"829 173 LINE",
"813 147 OFFCURVE",
"771 128 OFFCURVE",
"717 128 CURVE SMOOTH",
"641 128 OFFCURVE",
"593 169 OFFCURVE",
"608 241 CURVE SMOOTH",
"628 341 LINE SMOOTH",
"636 387 OFFCURVE",
"682 418 OFFCURVE",
"751 418 CURVE SMOOTH",
"817 418 OFFCURVE",
"860 383 OFFCURVE",
"859 321 CURVE SMOOTH",
"859 319 LINE",
"875 334 LINE",
"595 334 LINE",
"570 220 LINE",
"1074 220 LINE",
"1076 233 LINE SMOOTH",
"1103 429 OFFCURVE",
"966 557 OFFCURVE",
"748 557 CURVE SMOOTH",
"668 557 OFFCURVE",
"596 540 OFFCURVE",
"539 508 CURVE",
"488 545 OFFCURVE",
"425 558 OFFCURVE",
"351 558 CURVE SMOOTH",
"196 559 OFFCURVE",
"65 488 OFFCURVE",
"42 354 CURVE",
"244 354 LINE",
"249 389 OFFCURVE",
"280 412 OFFCURVE",
"332 411 CURVE SMOOTH",
"389 411 OFFCURVE",
"423 388 OFFCURVE",
"413 332 CURVE SMOOTH",
"406 288 LINE SMOOTH",
"399 242 OFFCURVE",
"402 193 OFFCURVE",
"409 162 CURVE",
"387 141 OFFCURVE",
"349 129 OFFCURVE",
"309 129 CURVE SMOOTH",
"271 129 OFFCURVE",
"246 143 OFFCURVE",
"246 170 CURVE SMOOTH",
"246 201 OFFCURVE",
"271 223 OFFCURVE",
"336 223 CURVE SMOOTH",
"421 223 LINE",
"442 324 LINE",
"292 324 LINE SMOOTH",
"122 324 OFFCURVE",
"11 262 OFFCURVE",
"11 140 CURVE SMOOTH",
"11 49 OFFCURVE",
"84 -12 OFFCURVE",
"210 -12 CURVE SMOOTH"
);
}
);
width = 1108;
},
{
layerId = "DE16639F-02D9-40F6-995B-45753FE85645";
paths = (
{
closed = 1;
nodes = (
"163 -7 OFFCURVE",
"211 24 OFFCURVE",
"242 83 CURVE",
"246 83 LINE",
"259 26 OFFCURVE",
"302 -7 OFFCURVE",
"373 -7 CURVE SMOOTH",
"464 -7 OFFCURVE",
"528 50 OFFCURVE",
"550 158 CURVE",
"485 158 LINE",
"469 86 OFFCURVE",
"436 50 OFFCURVE",
"382 50 CURVE SMOOTH",
"311 50 OFFCURVE",
"294 94 OFFCURVE",
"312 178 CURVE SMOOTH",
"350 356 LINE SMOOTH",
"365 426 OFFCURVE",
"394 473 OFFCURVE",
"455 473 CURVE SMOOTH",
"524 473 OFFCURVE",
"540 427 OFFCURVE",
"523 345 CURVE SMOOTH",
"513 296 LINE",
"523 309 LINE",
"326 309 LINE",
"316 255 LINE",
"572 255 LINE",
"587 327 LINE SMOOTH",
"612 447 OFFCURVE",
"575 530 OFFCURVE",
"460 530 CURVE SMOOTH",
"411 530 OFFCURVE",
"369 510 OFFCURVE",
"341 474 CURVE",
"325 512 OFFCURVE",
"290 531 OFFCURVE",
"245 531 CURVE SMOOTH",
"168 531 OFFCURVE",
"91 490 OFFCURVE",
"69 374 CURVE",
"133 374 LINE",
"146 440 OFFCURVE",
"182 471 OFFCURVE",
"231 471 CURVE SMOOTH",
"287 471 OFFCURVE",
"297 430 OFFCURVE",
"285 373 CURVE SMOOTH",
"277 333 LINE SMOOTH",
"265 278 OFFCURVE",
"254 224 OFFCURVE",
"242 169 CURVE SMOOTH",
"226 93 OFFCURVE",
"185 49 OFFCURVE",
"134 49 CURVE SMOOTH",
"98 49 OFFCURVE",
"73 70 OFFCURVE",
"76 120 CURVE SMOOTH",
"81 203 OFFCURVE",
"129 255 OFFCURVE",
"219 255 CURVE SMOOTH",
"270 255 LINE",
"280 309 LINE",
"221 309 LINE SMOOTH",
"108 309 OFFCURVE",
"21 252 OFFCURVE",
"6 127 CURVE SMOOTH",
"-4 44 OFFCURVE",
"37 -7 OFFCURVE",
"104 -7 CURVE SMOOTH"
);
}
);
width = 607;
},
{
layerId = "CF2D9F7C-A313-4B1D-9A0D-3EFAA90186C4";
paths = (
{
closed = 1;
nodes = (
"162 -6 OFFCURVE",
"207 28 OFFCURVE",
"236 84 CURVE",
"238 84 LINE",
"245 29 OFFCURVE",
"280 -6 OFFCURVE",
"352 -6 CURVE SMOOTH",
"433 -6 OFFCURVE",
"487 48 OFFCURVE",
"509 153 CURVE",
"480 153 LINE",
"460 63 OFFCURVE",
"421 20 OFFCURVE",
"356 20 CURVE SMOOTH",
"268 20 OFFCURVE",
"253 78 OFFCURVE",
"274 175 CURVE SMOOTH",
"312 353 LINE SMOOTH",
"330 438 OFFCURVE",
"364 494 OFFCURVE",
"438 494 CURVE SMOOTH",
"524 494 OFFCURVE",
"537 436 OFFCURVE",
"519 340 CURVE SMOOTH",
"509 288 LINE",
"514 294 LINE",
"288 294 LINE",
"283 267 LINE",
"534 267 LINE",
"549 337 LINE SMOOTH",
"573 447 OFFCURVE",
"545 521 OFFCURVE",
"441 521 CURVE SMOOTH",
"391 521 OFFCURVE",
"351 500 OFFCURVE",
"320 455 CURVE",
"311 494 OFFCURVE",
"280 521 OFFCURVE",
"228 521 CURVE SMOOTH",
"157 521 OFFCURVE",
"95 477 OFFCURVE",
"74 379 CURVE",
"104 379 LINE",
"118 450 OFFCURVE",
"159 494 OFFCURVE",
"222 494 CURVE SMOOTH",
"275 494 OFFCURVE",
"305 465 OFFCURVE",
"286 375 CURVE SMOOTH",
"272 309 LINE SMOOTH",
"262 262 OFFCURVE",
"252 215 OFFCURVE",
"242 168 CURVE SMOOTH",
"223 80 OFFCURVE",
"174 21 OFFCURVE",
"109 21 CURVE SMOOTH",
"63 21 OFFCURVE",
"35 50 OFFCURVE",
"40 112 CURVE SMOOTH",
"48 205 OFFCURVE",
"104 267 OFFCURVE",
"212 267 CURVE SMOOTH",
"270 267 LINE",
"276 294 LINE",
"222 294 LINE SMOOTH",
"101 294 OFFCURVE",
"22 235 OFFCURVE",
"10 116 CURVE SMOOTH",
"2 42 OFFCURVE",
"38 -6 OFFCURVE",
"103 -6 CURVE SMOOTH"
);
}
);
width = 570;
}
);
leftKerningGroup = ae;
leftMetricsKey = q;
rightKerningGroup = e;
rightMetricsKey = e;
unicode = 00E6;
}
{
glyphname = cedilla;
layers = (
{
anchors = (
{
name = _bottom;
position = "{93, 0}";
}
);
background = {
paths = (
{
closed = 1;
nodes = (
"143 -209 OFFCURVE",
"171 -182 OFFCURVE",
"171 -135 CURVE SMOOTH",
"171 -92 OFFCURVE",
"147 -64 OFFCURVE",
"98 -64 CURVE SMOOTH",
"93 -64 OFFCURVE",
"88 -64 OFFCURVE",
"83 -64 CURVE",
"104 -74 LINE",
"104 3 LINE",
"77 3 LINE",
"77 -89 LINE",
"86 -89 OFFCURVE",
"88 -89 OFFCURVE",
"92 -89 CURVE SMOOTH",
"121 -89 OFFCURVE",
"141 -98 OFFCURVE",
"141 -135 CURVE SMOOTH",
"141 -164 OFFCURVE",
"127 -183 OFFCURVE",
"101 -183 CURVE SMOOTH",
"80 -183 OFFCURVE",
"65 -171 OFFCURVE",
"63 -147 CURVE",
"35 -147 LINE",
"35 -184 OFFCURVE",
"62 -209 OFFCURVE",
"102 -209 CURVE SMOOTH"
);
}
);
};
layerId = "6932EABA-00D8-4526-96D6-87ADD7AC589E";
paths = (
{
closed = 1;
nodes = (
"143 -179 OFFCURVE",
"171 -152 OFFCURVE",
"171 -105 CURVE SMOOTH",
"171 -62 OFFCURVE",
"145 -34 OFFCURVE",
"98 -34 CURVE SMOOTH",
"93 -34 OFFCURVE",
"87 -35 OFFCURVE",
"83 -36 CURVE",
"97 -44 LINE",
"108 8 LINE",
"81 8 LINE",
"68 -51 LINE",
"79 -61 LINE",
"82 -60 OFFCURVE",
"87 -58 OFFCURVE",
"99 -58 CURVE SMOOTH",
"121 -58 OFFCURVE",
"141 -68 OFFCURVE",
"141 -105 CURVE SMOOTH",
"141 -134 OFFCURVE",
"127 -153 OFFCURVE",
"101 -153 CURVE SMOOTH",
"80 -153 OFFCURVE",
"65 -141 OFFCURVE",
"63 -117 CURVE",
"35 -117 LINE",
"35 -154 OFFCURVE",
"62 -179 OFFCURVE",
"102 -179 CURVE SMOOTH"
);
}
);
width = 206;
},
{
anchors = (
{
name = _bottom;
position = "{106, 0}";
}
);
layerId = "5CD2F84A-2568-4CD8-B351-D9C938FC152A";
paths = (
{
closed = 1;
nodes = (
"160 -205 OFFCURVE",
"198 -176 OFFCURVE",
"198 -118 CURVE SMOOTH",
"198 -71 OFFCURVE",
"170 -39 OFFCURVE",
"118 -39 CURVE SMOOTH",
"112 -39 OFFCURVE",
"105 -40 OFFCURVE",
"100 -41 CURVE",
"120 -50 LINE",
"130 4 LINE",
"80 4 LINE",
"70 -61 LINE",
"86 -71 LINE",
"89 -70 OFFCURVE",
"94 -69 OFFCURVE",
"104 -69 CURVE SMOOTH",
"127 -69 OFFCURVE",
"142 -80 OFFCURVE",
"142 -115 CURVE SMOOTH",
"142 -141 OFFCURVE",
"131 -159 OFFCURVE",
"106 -159 CURVE SMOOTH",
"84 -159 OFFCURVE",
"73 -144 OFFCURVE",
"72 -122 CURVE",
"20 -122 LINE",
"20 -173 OFFCURVE",
"57 -205 OFFCURVE",
"110 -205 CURVE SMOOTH"
);
}
);
width = 218;
},
{
anchors = (
{
name = _bottom;
position = "{168, 0}";
}
);
layerId = "C27438A8-196C-4C9A-B899-94A1193B83E6";
paths = (
{
closed = 1;
nodes = (
"236 -246 OFFCURVE",
"301 -209 OFFCURVE",
"301 -128 CURVE SMOOTH",
"301 -67 OFFCURVE",
"267 -26 OFFCURVE",
"204 -26 CURVE SMOOTH",
"193 -26 OFFCURVE",
"184 -28 OFFCURVE",
"178 -29 CURVE",
"214 -39 LINE",
"220 15 LINE",
"115 15 LINE",
"109 -61 LINE",
"138 -72 LINE",
"142 -71 OFFCURVE",
"147 -70 OFFCURVE",
"152 -70 CURVE SMOOTH",
"177 -70 OFFCURVE",
"180 -85 OFFCURVE",
"180 -115 CURVE SMOOTH",
"180 -131 OFFCURVE",
"176 -148 OFFCURVE",
"154 -148 CURVE SMOOTH",
"131 -148 OFFCURVE",
"128 -127 OFFCURVE",
"128 -109 CURVE",
"20 -109 LINE",
"20 -196 OFFCURVE",
"81 -246 OFFCURVE",
"165 -246 CURVE SMOOTH"
);
}
);
width = 321;
},
{
anchors = (
{
name = _bottom;
position = "{127, 0}";
}
);
layerId = "5908592F-1119-4296-AF9E-8219C1C10A44";
paths = (
{
closed = 1;
nodes = (
"193 -205 OFFCURVE",
"239 -178 OFFCURVE",
"239 -126 CURVE SMOOTH",
"239 -78 OFFCURVE",
"202 -48 OFFCURVE",
"149 -48 CURVE SMOOTH",
"133 -48 OFFCURVE",
"123 -51 OFFCURVE",
"115 -52 CURVE",
"129 -58 LINE",
"144 7 LINE",
"111 7 LINE",
"96 -61 LINE",
"110 -78 LINE",
"121 -76 OFFCURVE",
"130 -75 OFFCURVE",
"139 -75 CURVE SMOOTH",
"176 -75 OFFCURVE",
"204 -89 OFFCURVE",
"204 -125 CURVE SMOOTH",
"204 -157 OFFCURVE",
"178 -175 OFFCURVE",
"136 -175 CURVE SMOOTH",
"100 -175 OFFCURVE",
"75 -161 OFFCURVE",
"69 -137 CURVE",
"35 -137 LINE",
"40 -174 OFFCURVE",
"73 -205 OFFCURVE",
"135 -205 CURVE SMOOTH"
);
}
);
width = 274;
},
{
anchors = (
{
name = _bottom;
position = "{198, 0}";
}
);
layerId = "B2A2C094-0A8E-4CD4-B0FB-CC77B76A82B9";
paths = (
{
closed = 1;
nodes = (
"299 -251 OFFCURVE",
"368 -209 OFFCURVE",
"368 -134 CURVE SMOOTH",
"368 -63 OFFCURVE",
"312 -31 OFFCURVE",
"249 -30 CURVE SMOOTH",
"236 -30 OFFCURVE",
"219 -31 OFFCURVE",
"203 -33 CURVE",
"239 -42 LINE",
"252 11 LINE",
"139 11 LINE",
"123 -65 LINE",
"173 -88 LINE",
"180 -86 OFFCURVE",
"189 -85 OFFCURVE",
"196 -85 CURVE SMOOTH",
"223 -85 OFFCURVE",
"242 -98 OFFCURVE",
"242 -121 CURVE SMOOTH",
"242 -143 OFFCURVE",
"227 -157 OFFCURVE",
"195 -157 CURVE SMOOTH",
"169 -157 OFFCURVE",
"150 -144 OFFCURVE",
"147 -121 CURVE",
"25 -121 LINE",
"28 -198 OFFCURVE",
"94 -251 OFFCURVE",
"195 -251 CURVE SMOOTH"
);
}
);
width = 393;
},
{
anchors = (
{
name = _bottom;
position = "{140, 0}";
}
);
background = {
paths = (
{
closed = 1;
nodes = (
"218 -239 OFFCURVE",
"270 -207 OFFCURVE",
"270 -149 CURVE SMOOTH",
"270 -93 OFFCURVE",
"228 -62 OFFCURVE",
"171 -61 CURVE SMOOTH",
"158 -61 OFFCURVE",
"145 -64 OFFCURVE",
"136 -65 CURVE",
"156 -72 LINE",
"174 6 LINE",
"119 6 LINE",
"100 -82 LINE",
"123 -101 LINE",
"132 -99 OFFCURVE",
"141 -98 OFFCURVE",
"150 -98 CURVE SMOOTH",
"184 -98 OFFCURVE",
"209 -112 OFFCURVE",
"209 -143 CURVE SMOOTH",
"209 -172 OFFCURVE",
"187 -188 OFFCURVE",
"148 -188 CURVE SMOOTH",
"116 -188 OFFCURVE",
"92 -174 OFFCURVE",
"87 -150 CURVE",
"28 -150 LINE",
"33 -202 OFFCURVE",
"76 -239 OFFCURVE",
"147 -239 CURVE SMOOTH"
);
}
);
};
layerId = "AE48F426-5A06-4069-851E-B29A4CF5AB7C";
paths = (
{
closed = 1;
nodes = (
"221 -221 OFFCURVE",
"273 -187 OFFCURVE",
"273 -126 CURVE SMOOTH",
"273 -74 OFFCURVE",
"234 -40 OFFCURVE",
"177 -40 CURVE SMOOTH",
"163 -40 OFFCURVE",
"146 -42 OFFCURVE",
"137 -44 CURVE",
"158 -51 LINE",
"172 7 LINE",
"114 7 LINE",
"99 -62 LINE",
"123 -82 LINE",
"132 -79 OFFCURVE",
"142 -78 OFFCURVE",
"151 -78 CURVE SMOOTH",
"184 -78 OFFCURVE",
"208 -92 OFFCURVE",
"208 -123 CURVE SMOOTH",
"208 -150 OFFCURVE",
"187 -169 OFFCURVE",
"149 -169 CURVE SMOOTH",
"115 -169 OFFCURVE",
"92 -153 OFFCURVE",
"88 -129 CURVE",
"25 -129 LINE",
"30 -184 OFFCURVE",
"76 -221 OFFCURVE",
"150 -221 CURVE SMOOTH"
);
}
);
width = 298;
},
{
anchors = (
{
name = _bottom;
position = "{113, 0}";
}
);
layerId = "3997DD6A-B1DD-4C8E-8076-A32381C7B82F";
paths = (
{
closed = 1;
nodes = (
"149 -250 OFFCURVE",
"211 -206 OFFCURVE",
"211 -125 CURVE SMOOTH",
"211 -64 OFFCURVE",
"169 -19 OFFCURVE",
"105 -19 CURVE SMOOTH",
"95 -19 OFFCURVE",
"84 -20 OFFCURVE",
"78 -21 CURVE",
"139 -50 LINE",
"159 9 LINE",
"57 9 LINE",
"34 -57 LINE",
"60 -72 LINE",
"62 -71 OFFCURVE",
"67 -70 OFFCURVE",
"72 -70 CURVE SMOOTH",
"93 -70 OFFCURVE",
"100 -90 OFFCURVE",
"92 -121 CURVE SMOOTH",
"88 -137 OFFCURVE",
"81 -150 OFFCURVE",
"64 -150 CURVE SMOOTH",
"44 -150 OFFCURVE",
"38 -133 OFFCURVE",
"42 -112 CURVE",
"-65 -112 LINE",
"-70 -195 OFFCURVE",
"-15 -250 OFFCURVE",
"73 -250 CURVE SMOOTH"
);
}
);
width = 322;
},
{
anchors = (
{
name = _bottom;
position = "{64, 0}";
}
);
layerId = "83818878-ED40-419E-99CD-108DAFFBE778";
paths = (
{
closed = 1;
nodes = (
"109 -206 OFFCURVE",
"151 -173 OFFCURVE",
"151 -124 CURVE SMOOTH",
"151 -79 OFFCURVE",
"115 -49 OFFCURVE",
"62 -49 CURVE SMOOTH",
"53 -49 OFFCURVE",
"48 -50 OFFCURVE",
"43 -51 CURVE",
"56 -57 LINE",
"84 6 LINE",
"49 6 LINE",
"23 -56 LINE",
"33 -76 LINE",
"42 -74 OFFCURVE",
"49 -74 OFFCURVE",
"55 -74 CURVE SMOOTH",
"92 -74 OFFCURVE",
"116 -90 OFFCURVE",
"116 -122 CURVE SMOOTH",
"116 -154 OFFCURVE",
"91 -175 OFFCURVE",
"47 -175 CURVE SMOOTH",
"14 -175 OFFCURVE",
"-12 -161 OFFCURVE",
"-18 -137 CURVE",
"-53 -137 LINE",
"-48 -178 OFFCURVE",
"-8 -206 OFFCURVE",
"46 -206 CURVE SMOOTH"
);
}
);
width = 273;
},
{
anchors = (
{
name = _bottom;
position = "{86, -12}";
}
);
background = {
paths = (
{
closed = 1;
nodes = (
"139 -240 OFFCURVE",
"188 -202 OFFCURVE",
"188 -148 CURVE SMOOTH",
"188 -98 OFFCURVE",
"148 -64 OFFCURVE",
"91 -65 CURVE SMOOTH",
"82 -65 OFFCURVE",
"76 -65 OFFCURVE",
"67 -69 CURVE",
"89 -73 LINE",
"123 1 LINE",
"65 10 LINE",
"28 -77 LINE",
"49 -100 LINE",
"56 -98 OFFCURVE",
"62 -98 OFFCURVE",
"71 -98 CURVE SMOOTH",
"105 -98 OFFCURVE",
"128 -112 OFFCURVE",
"128 -142 CURVE SMOOTH",
"128 -168 OFFCURVE",
"105 -188 OFFCURVE",
"66 -188 CURVE SMOOTH",
"32 -188 OFFCURVE",
"10 -173 OFFCURVE",
"6 -152 CURVE",
"-56 -152 LINE",
"-52 -203 OFFCURVE",
"-4 -240 OFFCURVE",
"67 -240 CURVE SMOOTH"
);
}
);
};
layerId = "60C8C1A3-75DB-4AA2-AA92-15A0C8BC52E3";
paths = (
{
closed = 1;
nodes = (
"142 -242 OFFCURVE",
"191 -203 OFFCURVE",
"191 -148 CURVE SMOOTH",
"191 -96 OFFCURVE",
"152 -62 OFFCURVE",
"93 -62 CURVE SMOOTH",
"83 -62 OFFCURVE",
"75 -63 OFFCURVE",
"67 -66 CURVE",
"92 -73 LINE",
"125 0 LINE",
"61 0 LINE",
"27 -77 LINE",
"49 -101 LINE",
"55 -99 OFFCURVE",
"63 -98 OFFCURVE",
"72 -98 CURVE SMOOTH",
"107 -98 OFFCURVE",
"127 -115 OFFCURVE",
"127 -142 CURVE SMOOTH",
"127 -170 OFFCURVE",
"105 -189 OFFCURVE",
"67 -189 CURVE SMOOTH",
"34 -189 OFFCURVE",
"11 -174 OFFCURVE",
"7 -152 CURVE",
"-58 -152 LINE",
"-53 -206 OFFCURVE",
"-3 -242 OFFCURVE",
"68 -242 CURVE SMOOTH"
);
}
);
width = 310;
},
{
anchors = (
{
name = _bottom;
position = "{120, -20}";
}
);
layerId = "FFB0BD1F-7FAC-4F91-A9E1-473A5D606C71";
paths = (
{
closed = 1;
nodes = (
"206 -272 OFFCURVE",
"271 -225 OFFCURVE",
"271 -156 CURVE SMOOTH",
"271 -96 OFFCURVE",
"224 -57 OFFCURVE",
"155 -57 CURVE SMOOTH",
"142 -57 OFFCURVE",
"133 -58 OFFCURVE",
"119 -63 CURVE",
"160 -68 LINE",
"191 0 LINE",
"72 0 LINE",
"39 -81 LINE",
"80 -107 LINE",
"85 -105 OFFCURVE",
"94 -103 OFFCURVE",
"104 -103 CURVE SMOOTH",
"131 -104 OFFCURVE",
"149 -117 OFFCURVE",
"149 -139 CURVE SMOOTH",
"149 -161 OFFCURVE",
"131 -176 OFFCURVE",
"104 -176 CURVE SMOOTH",
"75 -176 OFFCURVE",
"56 -161 OFFCURVE",
"55 -141 CURVE",
"-68 -141 LINE",
"-66 -219 OFFCURVE",
"4 -272 OFFCURVE",
"109 -272 CURVE SMOOTH"
);
}
);
width = 384;
},
{
anchors = (
{
name = _bottom;
position = "{50, 0}";
}
);
layerId = "DE16639F-02D9-40F6-995B-45753FE85645";
paths = (
{
closed = 1;
nodes = (
"66 -205 OFFCURVE",
"103 -183 OFFCURVE",
"114 -137 CURVE SMOOTH",
"127 -81 OFFCURVE",
"97 -43 OFFCURVE",
"57 -41 CURVE SMOOTH",
"47 -41 OFFCURVE",
"38 -43 OFFCURVE",
"32 -45 CURVE",
"53 -52 LINE",
"77 7 LINE",
"28 7 LINE",
"2 -56 LINE",
"15 -70 LINE",
"18 -69 OFFCURVE",
"23 -68 OFFCURVE",
"30 -68 CURVE SMOOTH",
"50 -68 OFFCURVE",
"63 -80 OFFCURVE",
"63 -104 CURVE SMOOTH",
"63 -137 OFFCURVE",
"48 -158 OFFCURVE",
"23 -158 CURVE SMOOTH",
"0 -158 OFFCURVE",
"-12 -144 OFFCURVE",
"-11 -122 CURVE",
"-61 -122 LINE",
"-63 -172 OFFCURVE",
"-30 -205 OFFCURVE",
"22 -205 CURVE SMOOTH"
);
}
);
width = 228;
},
{
anchors = (
{
name = _bottom;
position = "{39, 0}";
}
);
layerId = "CF2D9F7C-A313-4B1D-9A0D-3EFAA90186C4";
paths = (
{
closed = 1;
nodes = (
"55 -189 OFFCURVE",
"87 -159 OFFCURVE",
"87 -111 CURVE SMOOTH",
"87 -72 OFFCURVE",
"62 -46 OFFCURVE",
"33 -46 CURVE SMOOTH",
"28 -46 OFFCURVE",
"25 -47 OFFCURVE",
"22 -47 CURVE",
"25 -58 LINE",
"57 9 LINE",
"29 9 LINE",
"-3 -55 LINE",
"4 -68 LINE",
"8 -67 OFFCURVE",
"13 -66 OFFCURVE",
"20 -66 CURVE SMOOTH",
"44 -66 OFFCURVE",
"57 -83 OFFCURVE",
"57 -107 CURVE SMOOTH",
"57 -141 OFFCURVE",
"42 -163 OFFCURVE",
"11 -163 CURVE SMOOTH",
"-9 -163 OFFCURVE",
"-25 -150 OFFCURVE",
"-24 -127 CURVE",
"-51 -127 LINE",
"-52 -164 OFFCURVE",
"-27 -189 OFFCURVE",
"11 -189 CURVE SMOOTH"
);
}
);
width = 207;
}
);
unicode = 00B8;
}
{
glyphname = cent;
layers = (
{
components = (
{
name = c;
transform = "{1, 0, 0, 1, 0, 107}";
}
);
layerId = "6932EABA-00D8-4526-96D6-87ADD7AC589E";
paths = (
{
closed = 1;
nodes = (
"190 615 LINE",
"190 729 LINE",
"162 729 LINE",
"162 615 LINE"
);
},
{
closed = 1;
nodes = (
"190 0 LINE",
"190 114 LINE",
"162 114 LINE",
"162 0 LINE"
);
}
);
width = 351;
},
{
components = (
{
alignment = -1;
name = c;
transform = "{1, 0, 0, 1, 2, 103}";
}
);
layerId = "5CD2F84A-2568-4CD8-B351-D9C938FC152A";
paths = (
{
closed = 1;
nodes = (
"220 612 LINE",
"230 729 LINE",
"160 729 LINE",
"170 612 LINE"
);
},
{
closed = 1;
nodes = (
"230 0 LINE",
"220 117 LINE",
"170 117 LINE",
"160 0 LINE"
);
}
);
width = 387;
},
{
components = (
{
alignment = -1;
name = c;
transform = "{1, 0, 0, 0.87831, 6, 125}";
}
);
layerId = "C27438A8-196C-4C9A-B899-94A1193B83E6";
paths = (
{
closed = 1;
nodes = (
"296 575 LINE",
"308 729 LINE",
"168 729 LINE",
"180 575 LINE"
);
},
{
closed = 1;
nodes = (
"308 0 LINE",
"296 154 LINE",
"180 154 LINE",
"168 0 LINE"
);
}
);
width = 476.14;
},
{
components = (
{
alignment = -1;
name = c;
transform = "{1, 0, 0, 1, 0, 107}";
}
);
layerId = "5908592F-1119-4296-AF9E-8219C1C10A44";
paths = (
{
closed = 1;
nodes = (
"356 612 LINE",
"356 729 LINE",
"319 729 LINE",
"319 612 LINE"
);
},
{
closed = 1;
nodes = (
"356 0 LINE",
"356 114 LINE",
"319 114 LINE",
"319 0 LINE"
);
}
);
width = 632;
},
{
components = (
{
alignment = -1;
name = c;
transform = "{1, 0, 0, 1, 0, 92}";
}
);
layerId = "B2A2C094-0A8E-4CD4-B0FB-CC77B76A82B9";
paths = (
{
closed = 1;
nodes = (
"459 585 LINE",
"470 729 LINE",
"267 729 LINE",
"278 585 LINE"
);
},
{
closed = 1;
nodes = (
"470 0 LINE",
"459 146 LINE",
"278 146 LINE",
"267 0 LINE"
);
}
);
width = 732;
},
{
components = (
{
alignment = -1;
name = c;
transform = "{1, 0, 0, 1, 0, 102}";
}
);
layerId = "AE48F426-5A06-4069-851E-B29A4CF5AB7C";
paths = (
{
closed = 1;
nodes = (
"372 609 LINE",
"381 729 LINE",
"290 729 LINE",
"299 609 LINE"
);
},
{
closed = 1;
nodes = (
"381 0 LINE",
"372 128 LINE",
"299 128 LINE",
"290 0 LINE"
);
}
);
width = 645;
},
{
components = (
{
alignment = -1;
name = c;
transform = "{1, 0, 0, 0.87831, 26.46, 125}";
}
);
layerId = "3997DD6A-B1DD-4C8E-8076-A32381C7B82F";
paths = (
{
closed = 1;
nodes = (
"361.46 575 LINE",
"405.46 729 LINE",
"265.46 729 LINE",
"245.46 575 LINE"
);
},
{
closed = 1;
nodes = (
"243.46 0 LINE",
"263.46 154 LINE",
"147.46 154 LINE",
"103.46 0 LINE"
);
}
);
width = 463.46;
},
{
components = (
{
alignment = -1;
name = c;
transform = "{1, 0, 0, 1, 22.45, 107}";
}
);
layerId = "83818878-ED40-419E-99CD-108DAFFBE778";
paths = (
{
closed = 1;
nodes = (
"421.45 612 LINE",
"445.45 729 LINE",
"408.45 729 LINE",
"384.45 612 LINE"
);
},
{
closed = 1;
nodes = (
"291.45 0 LINE",
"315.45 114 LINE",
"278.45 114 LINE",
"254.45 0 LINE"
);
}
);
width = 642.36;
},
{
components = (
{
alignment = -1;
name = c;
transform = "{1, 0, 0, 1, 22.14, 102}";
}
);
layerId = "60C8C1A3-75DB-4AA2-AA92-15A0C8BC52E3";
paths = (
{
closed = 1;
nodes = (
"457.14 609 LINE",
"490.14 729 LINE",
"399.14 729 LINE",
"382.14 609 LINE"
);
},
{
closed = 1;
nodes = (
"336.14 0 LINE",
"353.14 128 LINE",
"280.14 128 LINE",
"245.14 0 LINE"
);
}
);
width = 677.53;
},
{
components = (
{
alignment = -1;
name = c;
transform = "{1, 0, 0, 1, 19, 92}";
}
);
layerId = "FFB0BD1F-7FAC-4F91-A9E1-473A5D606C71";
paths = (
{
closed = 1;
nodes = (
"535 585 LINE",
"577 729 LINE",
"374 729 LINE",
"355 585 LINE"
);
},
{
closed = 1;
nodes = (
"423 0 LINE",
"442 146 LINE",
"262 146 LINE",
"220 0 LINE"
);
}
);
width = 760;
},
{
components = (
{
alignment = -1;
name = c;
transform = "{1, 0, 0, 1, 23.076, 103}";
}
);
layerId = "DE16639F-02D9-40F6-995B-45753FE85645";
paths = (
{
closed = 1;
nodes = (
"294.076 612 LINE",
"328.076 729 LINE",
"258.076 729 LINE",
"244.076 612 LINE"
);
},
{
closed = 1;
nodes = (
"174.076 0 LINE",
"188.076 117 LINE",
"138.076 117 LINE",
"104.076 0 LINE"
);
}
);
width = 380.546;
},
{
components = (
{
alignment = -1;
name = c;
transform = "{1, 0, 0, 1, 22.338, 107}";
}
);
layerId = "CF2D9F7C-A313-4B1D-9A0D-3EFAA90186C4";
paths = (
{
closed = 1;
nodes = (
"265.338 615 LINE",
"289.338 729 LINE",
"261.338 729 LINE",
"237.338 615 LINE"
);
},
{
closed = 1;
nodes = (
"135.338 0 LINE",
"159.338 114 LINE",
"131.338 114 LINE",
"107.338 0 LINE"
);
}
);
width = 348.338;
}
);
leftMetricsKey = C;
rightMetricsKey = C;
unicode = 00A2;
userData = {
KernOnSpecialSpacing = {
L = symbols;
R = symbols;
};
};
}
{
glyphname = currency;
layers = (
{
layerId = "6932EABA-00D8-4526-96D6-87ADD7AC589E";
paths = (
{
closed = 1;
nodes = (
"221 245 LINE",
"247 225 OFFCURVE",
"279 214 OFFCURVE",
"314 214 CURVE SMOOTH",
"350 214 OFFCURVE",
"381 226 OFFCURVE",
"404 246 CURVE",
"491 156 LINE",
"512 176 LINE",
"426 266 LINE",
"444 286 OFFCURVE",
"459 319 OFFCURVE",
"459 360 CURVE SMOOTH",
"459 397 OFFCURVE",
"448 429 OFFCURVE",
"427 457 CURVE",
"511 545 LINE",
"491 566 LINE",
"404 477 LINE",
"380 497 OFFCURVE",
"348 507 OFFCURVE",
"314 507 CURVE SMOOTH",
"279 507 OFFCURVE",
"247 496 OFFCURVE",
"222 477 CURVE",
"137 566 LINE",
"115 545 LINE",
"200 457 LINE",
"179 431 OFFCURVE",
"167 396 OFFCURVE",
"167 360 CURVE SMOOTH",
"167 328 OFFCURVE",
"177 292 OFFCURVE",
"199 266 CURVE",
"115 176 LINE",
"137 156 LINE"
);
},
{
closed = 1;
nodes = (
"247 243 OFFCURVE",
"197 293 OFFCURVE",
"197 360 CURVE SMOOTH",
"197 428 OFFCURVE",
"246 478 OFFCURVE",
"314 478 CURVE SMOOTH",
"379 478 OFFCURVE",
"428 429 OFFCURVE",
"428 360 CURVE SMOOTH",
"428 292 OFFCURVE",
"379 243 OFFCURVE",
"314 243 CURVE SMOOTH"
);
}
);
width = 627;
},
{
layerId = "5CD2F84A-2568-4CD8-B351-D9C938FC152A";
paths = (
{
closed = 1;
nodes = (
"227 227 LINE",
"254 210 OFFCURVE",
"284 200 OFFCURVE",
"318 200 CURVE SMOOTH",
"354 200 OFFCURVE",
"383 210 OFFCURVE",
"408 228 CURVE",
"497 135 LINE",
"539 177 LINE",
"452 267 LINE",
"469 289 OFFCURVE",
"482 321 OFFCURVE",
"482 360 CURVE SMOOTH",
"482 396 OFFCURVE",
"471 428 OFFCURVE",
"452 456 CURVE",
"538 544 LINE",
"497 587 LINE",
"407 495 LINE",
"382 512 OFFCURVE",
"350 521 OFFCURVE",
"318 521 CURVE SMOOTH",
"286 521 OFFCURVE",
"254 511 OFFCURVE",
"229 495 CURVE",
"140 587 LINE",
"98 544 LINE",
"184 456 LINE",
"165 430 OFFCURVE",
"154 395 OFFCURVE",
"154 360 CURVE SMOOTH",
"154 328 OFFCURVE",
"163 294 OFFCURVE",
"183 267 CURVE",
"97 177 LINE",
"140 135 LINE"
);
},
{
closed = 1;
nodes = (
"260 258 OFFCURVE",
"216 301 OFFCURVE",
"216 360 CURVE SMOOTH",
"216 419 OFFCURVE",
"259 463 OFFCURVE",
"318 463 CURVE SMOOTH",
"376 463 OFFCURVE",
"419 420 OFFCURVE",
"419 360 CURVE SMOOTH",
"419 301 OFFCURVE",
"376 258 OFFCURVE",
"318 258 CURVE SMOOTH"
);
}
);
width = 636;
},
{
layerId = "C27438A8-196C-4C9A-B899-94A1193B83E6";
paths = (
{
closed = 1;
nodes = (
"240 183 LINE",
"268 172 OFFCURVE",
"295 167 OFFCURVE",
"328 167 CURVE SMOOTH",
"361 167 OFFCURVE",
"388 172 OFFCURVE",
"415 182 CURVE",
"510 85 LINE",
"605 179 LINE",
"515 269 LINE",
"529 298 OFFCURVE",
"536 327 OFFCURVE",
"536 360 CURVE SMOOTH",
"536 395 OFFCURVE",
"528 424 OFFCURVE",
"513 454 CURVE",
"604 543 LINE",
"509 637 LINE",
"413 539 LINE",
"387 549 OFFCURVE",
"354 554 OFFCURVE",
"328 554 CURVE SMOOTH",
"301 554 OFFCURVE",
"269 549 OFFCURVE",
"243 539 CURVE",
"146 637 LINE",
"52 543 LINE",
"142 454 LINE",
"128 426 OFFCURVE",
"120 393 OFFCURVE",
"120 360 CURVE SMOOTH",
"120 329 OFFCURVE",
"127 299 OFFCURVE",
"141 269 CURVE",
"51 179 LINE",
"145 85 LINE"
);
},
{
closed = 1;
nodes = (
"290 295 OFFCURVE",
"260 321 OFFCURVE",
"260 360 CURVE SMOOTH",
"260 399 OFFCURVE",
"291 426 OFFCURVE",
"328 426 CURVE SMOOTH",
"366 426 OFFCURVE",
"395 399 OFFCURVE",
"395 360 CURVE SMOOTH",
"395 321 OFFCURVE",
"365 295 OFFCURVE",
"328 295 CURVE SMOOTH"
);
}
);
width = 656;
},
{
layerId = "5908592F-1119-4296-AF9E-8219C1C10A44";
paths = (
{
closed = 1;
nodes = (
"181 197 LINE",
"217 171 OFFCURVE",
"261 156 OFFCURVE",
"312 156 CURVE SMOOTH",
"362 156 OFFCURVE",
"407 170 OFFCURVE",
"442 198 CURVE",
"562 79 LINE",
"585 101 LINE",
"465 222 LINE",
"495 254 OFFCURVE",
"512 301 OFFCURVE",
"512 350 CURVE SMOOTH",
"512 401 OFFCURVE",
"493 445 OFFCURVE",
"466 479 CURVE",
"585 597 LINE",
"562 622 LINE",
"442 502 LINE",
"408 530 OFFCURVE",
"361 544 OFFCURVE",
"312 544 CURVE SMOOTH",
"259 544 OFFCURVE",
"215 528 OFFCURVE",
"182 502 CURVE",
"63 622 LINE",
"40 597 LINE",
"159 479 LINE",
"130 446 OFFCURVE",
"109 398 OFFCURVE",
"109 350 CURVE SMOOTH",
"109 298 OFFCURVE",
"130 253 OFFCURVE",
"158 222 CURVE",
"40 101 LINE",
"63 79 LINE"
);
},
{
closed = 1;
nodes = (
"215 189 OFFCURVE",
"144 257 OFFCURVE",
"144 349 CURVE SMOOTH",
"144 444 OFFCURVE",
"215 509 OFFCURVE",
"312 509 CURVE SMOOTH",
"408 509 OFFCURVE",
"479 443 OFFCURVE",
"479 349 CURVE SMOOTH",
"479 258 OFFCURVE",
"408 189 OFFCURVE",
"312 189 CURVE SMOOTH"
);
}
);
width = 625;
},
{
layerId = "B2A2C094-0A8E-4CD4-B0FB-CC77B76A82B9";
paths = (
{
closed = 1;
nodes = (
"286 151 LINE",
"314 144 OFFCURVE",
"343 141 OFFCURVE",
"376 141 CURVE SMOOTH",
"403 141 OFFCURVE",
"438 144 OFFCURVE",
"467 150 CURVE",
"572 48 LINE",
"692 174 LINE",
"596 265 LINE",
"609 294 OFFCURVE",
"615 327 OFFCURVE",
"615 358 CURVE SMOOTH",
"615 389 OFFCURVE",
"610 422 OFFCURVE",
"594 455 CURVE",
"692 546 LINE",
"570 669 LINE",
"464 566 LINE",
"436 572 OFFCURVE",
"401 576 OFFCURVE",
"376 576 CURVE SMOOTH",
"351 576 OFFCURVE",
"319 575 OFFCURVE",
"289 566 CURVE",
"186 669 LINE",
"62 546 LINE",
"159 455 LINE",
"146 426 OFFCURVE",
"141 393 OFFCURVE",
"141 358 CURVE SMOOTH",
"141 331 OFFCURVE",
"144 298 OFFCURVE",
"158 265 CURVE",
"61 174 LINE",
"184 48 LINE"
);
},
{
closed = 1;
nodes = (
"344 307 OFFCURVE",
"319 327 OFFCURVE",
"319 357 CURVE SMOOTH",
"319 388 OFFCURVE",
"340 409 OFFCURVE",
"376 409 CURVE SMOOTH",
"409 409 OFFCURVE",
"432 389 OFFCURVE",
"432 357 CURVE SMOOTH",
"432 330 OFFCURVE",
"410 307 OFFCURVE",
"376 307 CURVE SMOOTH"
);
}
);
width = 753;
},
{
layerId = "AE48F426-5A06-4069-851E-B29A4CF5AB7C";
paths = (
{
closed = 1;
nodes = (
"210 183 LINE",
"243 163 OFFCURVE",
"282 153 OFFCURVE",
"328 153 CURVE SMOOTH",
"371 153 OFFCURVE",
"413 162 OFFCURVE",
"446 184 CURVE",
"560 71 LINE",
"611 126 LINE",
"498 236 LINE",
"523 268 OFFCURVE",
"538 310 OFFCURVE",
"538 353 CURVE SMOOTH",
"538 397 OFFCURVE",
"522 437 OFFCURVE",
"498 471 CURVE",
"611 579 LINE",
"560 636 LINE",
"445 522 LINE",
"413 543 OFFCURVE",
"370 553 OFFCURVE",
"328 553 CURVE SMOOTH",
"283 553 OFFCURVE",
"243 542 OFFCURVE",
"211 522 CURVE",
"97 636 LINE",
"46 579 LINE",
"158 471 LINE",
"134 439 OFFCURVE",
"118 396 OFFCURVE",
"118 353 CURVE SMOOTH",
"118 309 OFFCURVE",
"134 268 OFFCURVE",
"157 236 CURVE",
"46 126 LINE",
"97 71 LINE"
);
},
{
closed = 1;
nodes = (
"250 229 OFFCURVE",
"192 281 OFFCURVE",
"192 352 CURVE SMOOTH",
"192 425 OFFCURVE",
"249 476 OFFCURVE",
"328 476 CURVE SMOOTH",
"405 476 OFFCURVE",
"463 425 OFFCURVE",
"463 352 CURVE SMOOTH",
"463 282 OFFCURVE",
"406 229 OFFCURVE",
"328 229 CURVE SMOOTH"
);
}
);
width = 656;
},
{
layerId = "3997DD6A-B1DD-4C8E-8076-A32381C7B82F";
paths = (
{
closed = 1;
nodes = (
"226 183 LINE",
"250 173 OFFCURVE",
"275 167 OFFCURVE",
"306 167 CURVE SMOOTH",
"339 167 OFFCURVE",
"366 173 OFFCURVE",
"394 183 CURVE",
"469 86 LINE",
"576 179 LINE",
"505 269 LINE",
"525 297 OFFCURVE",
"537 327 OFFCURVE",
"542 360 CURVE SMOOTH",
"549 395 OFFCURVE",
"546 425 OFFCURVE",
"537 454 CURVE",
"641 543 LINE",
"567 636 LINE",
"456 539 LINE",
"433 548 OFFCURVE",
"402 554 OFFCURVE",
"375 554 CURVE SMOOTH",
"350 554 OFFCURVE",
"318 548 OFFCURVE",
"291 539 CURVE",
"215 636 LINE",
"108 543 LINE",
"180 454 LINE",
"160 426 OFFCURVE",
"147 393 OFFCURVE",
"141 360 CURVE SMOOTH",
"135 329 OFFCURVE",
"137 298 OFFCURVE",
"145 269 CURVE",
"42 179 LINE",
"115 86 LINE"
);
},
{
closed = 1;
nodes = (
"292 294 OFFCURVE",
"267 320 OFFCURVE",
"275 360 CURVE SMOOTH",
"282 400 OFFCURVE",
"318 427 OFFCURVE",
"353 427 CURVE SMOOTH",
"391 427 OFFCURVE",
"416 400 OFFCURVE",
"407 360 CURVE SMOOTH",
"400 320 OFFCURVE",
"365 294 OFFCURVE",
"329 294 CURVE SMOOTH"
);
}
);
width = 647;
},
{
layerId = "83818878-ED40-419E-99CD-108DAFFBE778";
paths = (
{
closed = 1;
nodes = (
"253 197 LINE",
"289 171 OFFCURVE",
"333 156 OFFCURVE",
"384 156 CURVE SMOOTH",
"434 156 OFFCURVE",
"479 170 OFFCURVE",
"514 198 CURVE",
"634 79 LINE",
"657 101 LINE",
"537 222 LINE",
"567 254 OFFCURVE",
"584 301 OFFCURVE",
"584 350 CURVE SMOOTH",
"584 401 OFFCURVE",
"565 445 OFFCURVE",
"538 479 CURVE",
"657 597 LINE",
"634 622 LINE",
"514 502 LINE",
"480 530 OFFCURVE",
"433 544 OFFCURVE",
"384 544 CURVE SMOOTH",
"331 544 OFFCURVE",
"287 528 OFFCURVE",
"254 502 CURVE",
"135 622 LINE",
"112 597 LINE",
"231 479 LINE",
"202 446 OFFCURVE",
"181 398 OFFCURVE",
"181 350 CURVE SMOOTH",
"181 298 OFFCURVE",
"202 253 OFFCURVE",
"230 222 CURVE",
"112 101 LINE",
"135 79 LINE"
);
},
{
closed = 1;
nodes = (
"287 189 OFFCURVE",
"216 257 OFFCURVE",
"216 349 CURVE SMOOTH",
"216 444 OFFCURVE",
"287 509 OFFCURVE",
"384 509 CURVE SMOOTH",
"480 509 OFFCURVE",
"551 443 OFFCURVE",
"551 349 CURVE SMOOTH",
"551 258 OFFCURVE",
"480 189 OFFCURVE",
"384 189 CURVE SMOOTH"
);
}
);
width = 730;
},
{
layerId = "60C8C1A3-75DB-4AA2-AA92-15A0C8BC52E3";
paths = (
{
closed = 1;
nodes = (
"276 183 LINE",
"309 163 OFFCURVE",
"348 153 OFFCURVE",
"394 153 CURVE SMOOTH",
"437 153 OFFCURVE",
"479 162 OFFCURVE",
"512 184 CURVE",
"626 71 LINE",
"677 126 LINE",
"564 236 LINE",
"589 268 OFFCURVE",
"604 310 OFFCURVE",
"604 353 CURVE SMOOTH",
"604 397 OFFCURVE",
"588 437 OFFCURVE",
"564 471 CURVE",
"677 579 LINE",
"626 636 LINE",
"511 522 LINE",
"479 543 OFFCURVE",
"436 553 OFFCURVE",
"394 553 CURVE SMOOTH",
"349 553 OFFCURVE",
"309 542 OFFCURVE",
"277 522 CURVE",
"163 636 LINE",
"112 579 LINE",
"224 471 LINE",
"200 439 OFFCURVE",
"184 396 OFFCURVE",
"184 353 CURVE SMOOTH",
"184 309 OFFCURVE",
"200 268 OFFCURVE",
"223 236 CURVE",
"112 126 LINE",
"163 71 LINE"
);
},
{
closed = 1;
nodes = (
"316 229 OFFCURVE",
"258 281 OFFCURVE",
"258 352 CURVE SMOOTH",
"258 425 OFFCURVE",
"315 476 OFFCURVE",
"394 476 CURVE SMOOTH",
"471 476 OFFCURVE",
"529 425 OFFCURVE",
"529 352 CURVE SMOOTH",
"529 282 OFFCURVE",
"472 229 OFFCURVE",
"394 229 CURVE SMOOTH"
);
}
);
width = 750.8;
},
{
layerId = "FFB0BD1F-7FAC-4F91-A9E1-473A5D606C71";
paths = (
{
closed = 1;
nodes = (
"347 151 LINE",
"375 144 OFFCURVE",
"405 141 OFFCURVE",
"438 141 CURVE SMOOTH",
"463 141 OFFCURVE",
"500 144 OFFCURVE",
"529 150 CURVE",
"634 48 LINE",
"753 174 LINE",
"657 265 LINE",
"670 294 OFFCURVE",
"675 327 OFFCURVE",
"675 358 CURVE SMOOTH",
"675 389 OFFCURVE",
"669 422 OFFCURVE",
"653 455 CURVE",
"750 546 LINE",
"628 669 LINE",
"522 566 LINE",
"494 573 OFFCURVE",
"459 576 OFFCURVE",
"434 576 CURVE SMOOTH",
"409 576 OFFCURVE",
"377 575 OFFCURVE",
"347 566 CURVE",
"242 669 LINE",
"119 546 LINE",
"217 455 LINE",
"205 426 OFFCURVE",
"199 393 OFFCURVE",
"200 358 CURVE SMOOTH",
"200 331 OFFCURVE",
"203 298 OFFCURVE",
"218 265 CURVE",
"122 174 LINE",
"245 48 LINE"
);
},
{
closed = 1;
nodes = (
"404 307 OFFCURVE",
"379 327 OFFCURVE",
"379 357 CURVE SMOOTH",
"378 388 OFFCURVE",
"398 409 OFFCURVE",
"435 409 CURVE SMOOTH",
"467 409 OFFCURVE",
"491 389 OFFCURVE",
"492 357 CURVE SMOOTH",
"492 330 OFFCURVE",
"470 307 OFFCURVE",
"436 307 CURVE SMOOTH"
);
}
);
width = 835;
},
{
layerId = "DE16639F-02D9-40F6-995B-45753FE85645";
paths = (
{
closed = 1;
nodes = (
"224 228 LINE",
"247 211 OFFCURVE",
"275 201 OFFCURVE",
"308 201 CURVE SMOOTH",
"343 201 OFFCURVE",
"373 211 OFFCURVE",
"400 229 CURVE",
"470 137 LINE",
"516 177 LINE",
"448 267 LINE",
"468 289 OFFCURVE",
"487 321 OFFCURVE",
"493 360 CURVE SMOOTH",
"500 396 OFFCURVE",
"496 428 OFFCURVE",
"482 456 CURVE",
"580 544 LINE",
"548 585 LINE",
"446 494 LINE",
"425 511 OFFCURVE",
"395 520 OFFCURVE",
"364 520 CURVE SMOOTH",
"332 520 OFFCURVE",
"299 510 OFFCURVE",
"272 494 CURVE",
"203 585 LINE",
"156 544 LINE",
"224 456 LINE",
"200 430 OFFCURVE",
"184 395 OFFCURVE",
"178 360 CURVE SMOOTH",
"172 328 OFFCURVE",
"175 294 OFFCURVE",
"189 267 CURVE",
"91 177 LINE",
"124 137 LINE"
);
},
{
closed = 1;
nodes = (
"261 257 OFFCURVE",
"225 300 OFFCURVE",
"236 360 CURVE SMOOTH",
"246 420 OFFCURVE",
"297 464 OFFCURVE",
"354 464 CURVE SMOOTH",
"410 464 OFFCURVE",
"445 421 OFFCURVE",
"435 360 CURVE SMOOTH",
"424 300 OFFCURVE",
"374 257 OFFCURVE",
"318 257 CURVE SMOOTH"
);
}
);
width = 631;
},
{
layerId = "CF2D9F7C-A313-4B1D-9A0D-3EFAA90186C4";
paths = (
{
closed = 1;
nodes = (
"282 245 LINE",
"308 225 OFFCURVE",
"340 214 OFFCURVE",
"375 214 CURVE SMOOTH",
"411 214 OFFCURVE",
"442 226 OFFCURVE",
"465 246 CURVE",
"552 156 LINE",
"573 176 LINE",
"487 266 LINE",
"505 286 OFFCURVE",
"520 319 OFFCURVE",
"520 360 CURVE SMOOTH",
"520 397 OFFCURVE",
"509 429 OFFCURVE",
"488 457 CURVE",
"572 545 LINE",
"552 566 LINE",
"465 477 LINE",
"441 497 OFFCURVE",
"409 507 OFFCURVE",
"375 507 CURVE SMOOTH",
"340 507 OFFCURVE",
"308 496 OFFCURVE",
"283 477 CURVE",
"198 566 LINE",
"176 545 LINE",
"261 457 LINE",
"240 431 OFFCURVE",
"228 396 OFFCURVE",
"228 360 CURVE SMOOTH",
"228 328 OFFCURVE",
"238 292 OFFCURVE",
"260 266 CURVE",
"176 176 LINE",
"198 156 LINE"
);
},
{
closed = 1;
nodes = (
"308 243 OFFCURVE",
"258 293 OFFCURVE",
"258 360 CURVE SMOOTH",
"258 428 OFFCURVE",
"307 478 OFFCURVE",
"375 478 CURVE SMOOTH",
"440 478 OFFCURVE",
"489 429 OFFCURVE",
"489 360 CURVE SMOOTH",
"489 292 OFFCURVE",
"440 243 OFFCURVE",
"375 243 CURVE SMOOTH"
);
}
);
width = 705;
}
);
unicode = 00A4;
}
{
glyphname = eth;
layers = (
{
layerId = "6932EABA-00D8-4526-96D6-87ADD7AC589E";
paths = (
{
closed = 1;
nodes = (
"269 -6 OFFCURVE",
"316 60 OFFCURVE",
"316 167 CURVE SMOOTH",
"316 311 LINE SMOOTH",
"316 454 OFFCURVE",
"260 597 OFFCURVE",
"140 729 CURVE",
"106 729 LINE",
"207 618 OFFCURVE",
"267 498 OFFCURVE",
"283 381 CURVE",
"277 381 LINE",
"256 425 OFFCURVE",
"218 444 OFFCURVE",
"173 444 CURVE SMOOTH",
"87 444 OFFCURVE",
"38 378 OFFCURVE",
"38 271 CURVE SMOOTH",
"38 167 LINE SMOOTH",
"38 60 OFFCURVE",
"85 -6 OFFCURVE",
"177 -6 CURVE SMOOTH"
);
},
{
closed = 1;
nodes = (
"108 21 OFFCURVE",
"69 69 OFFCURVE",
"69 140 CURVE SMOOTH",
"69 298 LINE SMOOTH",
"69 369 OFFCURVE",
"109 417 OFFCURVE",
"175 417 CURVE SMOOTH",
"228 417 OFFCURVE",
"268 387 OFFCURVE",
"285 324 CURVE",
"285 308 OFFCURVE",
"285 292 OFFCURVE",
"285 276 CURVE SMOOTH",
"285 140 LINE SMOOTH",
"285 69 OFFCURVE",
"246 21 OFFCURVE",
"177 21 CURVE SMOOTH"
);
},
{
closed = 1;
nodes = (
"306 648 LINE",
"306 673 LINE",
"75 623 LINE",
"75 598 LINE"
);
}
);
width = 354;
},
{
layerId = "5CD2F84A-2568-4CD8-B351-D9C938FC152A";
paths = (
{
closed = 1;
nodes = (
"294 -7 OFFCURVE",
"355 63 OFFCURVE",
"355 185 CURVE SMOOTH",
"355 313 LINE SMOOTH",
"355 454 OFFCURVE",
"297 601 OFFCURVE",
"181 729 CURVE",
"108 729 LINE",
"202 620 OFFCURVE",
"262 502 OFFCURVE",
"278 397 CURVE",
"271 397 LINE",
"250 438 OFFCURVE",
"212 455 OFFCURVE",
"172 455 CURVE SMOOTH",
"83 455 OFFCURVE",
"32 390 OFFCURVE",
"32 276 CURVE SMOOTH",
"32 179 LINE SMOOTH",
"32 65 OFFCURVE",
"87 -7 OFFCURVE",
"191 -7 CURVE SMOOTH"
);
},
{
closed = 1;
nodes = (
"135 50 OFFCURVE",
"104 91 OFFCURVE",
"104 150 CURVE SMOOTH",
"104 303 LINE SMOOTH",
"104 360 OFFCURVE",
"136 401 OFFCURVE",
"193 401 CURVE SMOOTH",
"233 401 OFFCURVE",
"268 380 OFFCURVE",
"284 330 CURVE",
"284 308 OFFCURVE",
"284 288 OFFCURVE",
"284 267 CURVE SMOOTH",
"284 150 LINE SMOOTH",
"284 92 OFFCURVE",
"252 50 OFFCURVE",
"194 50 CURVE SMOOTH"
);
},
{
closed = 1;
nodes = (
"345 627 LINE",
"345 680 LINE",
"83 622 LINE",
"83 571 LINE"
);
}
);
width = 387;
},
{
layerId = "C27438A8-196C-4C9A-B899-94A1193B83E6";
paths = (
{
closed = 1;
nodes = (
"360 -9 OFFCURVE",
"456 68 OFFCURVE",
"456 231 CURVE SMOOTH",
"456 316 LINE SMOOTH",
"456 460 OFFCURVE",
"388 617 OFFCURVE",
"287 729 CURVE",
"113 729 LINE",
"190 624 OFFCURVE",
"250 512 OFFCURVE",
"267 437 CURVE",
"257 437 LINE",
"239 466 OFFCURVE",
"206 485 OFFCURVE",
"168 485 CURVE SMOOTH",
"72 485 OFFCURVE",
"18 421 OFFCURVE",
"18 286 CURVE SMOOTH",
"18 211 LINE SMOOTH",
"18 79 OFFCURVE",
"90 -9 OFFCURVE",
"227 -9 CURVE SMOOTH"
);
},
{
closed = 1;
nodes = (
"208 126 OFFCURVE",
"194 145 OFFCURVE",
"194 172 CURVE SMOOTH",
"194 313 LINE SMOOTH",
"194 341 OFFCURVE",
"208 360 OFFCURVE",
"237 360 CURVE SMOOTH",
"253 360 OFFCURVE",
"269 354 OFFCURVE",
"280 340 CURVE",
"280 325 OFFCURVE",
"280 311 OFFCURVE",
"280 296 CURVE SMOOTH",
"280 172 LINE SMOOTH",
"280 145 OFFCURVE",
"266 126 OFFCURVE",
"237 126 CURVE SMOOTH"
);
},
{
closed = 1;
nodes = (
"446 576 LINE",
"446 696 LINE",
"104 621 LINE",
"104 501 LINE"
);
}
);
width = 474;
},
{
background = {
paths = (
{
closed = 1;
nodes = (
"467 -10 OFFCURVE",
"573 90 OFFCURVE",
"573 241 CURVE SMOOTH",
"573 253 LINE SMOOTH",
"573 396 OFFCURVE",
"476 579 OFFCURVE",
"303 729 CURVE",
"257 729 LINE",
"356 642 OFFCURVE",
"444 530 OFFCURVE",
"485 449 CURVE",
"479 448 LINE",
"436 488 OFFCURVE",
"375 506 OFFCURVE",
"310 506 CURVE SMOOTH",
"149 506 OFFCURVE",
"41 404 OFFCURVE",
"41 250 CURVE SMOOTH",
"41 232 LINE SMOOTH",
"41 87 OFFCURVE",
"148 -10 OFFCURVE",
"308 -10 CURVE SMOOTH"
);
},
{
closed = 1;
nodes = (
"171 24 OFFCURVE",
"80 107 OFFCURVE",
"80 232 CURVE SMOOTH",
"80 261 LINE SMOOTH",
"80 386 OFFCURVE",
"170 472 OFFCURVE",
"314 472 CURVE SMOOTH",
"390 472 OFFCURVE",
"465 448 OFFCURVE",
"512 383 CURVE",
"529 340 OFFCURVE",
"535 293 OFFCURVE",
"535 261 CURVE SMOOTH",
"535 232 LINE SMOOTH",
"535 107 OFFCURVE",
"444 24 OFFCURVE",
"308 24 CURVE SMOOTH"
);
},
{
closed = 1;
nodes = (
"516 643 LINE",
"516 675 LINE",
"194 605 LINE",
"194 573 LINE"
);
}
);
};
layerId = "5908592F-1119-4296-AF9E-8219C1C10A44";
paths = (
{
closed = 1;
nodes = (
"461 -10 OFFCURVE",
"573 88 OFFCURVE",
"573 235 CURVE SMOOTH",
"573 246 LINE SMOOTH",
"573 417 OFFCURVE",
"440 596 OFFCURVE",
"276 729 CURVE",
"227 729 LINE",
"340 635 OFFCURVE",
"441 521 OFFCURVE",
"487 429 CURVE",
"481 428 LINE",
"438 468 OFFCURVE",
"375 485 OFFCURVE",
"310 485 CURVE SMOOTH",
"150 485 OFFCURVE",
"41 387 OFFCURVE",
"41 240 CURVE SMOOTH",
"41 223 LINE SMOOTH",
"41 83 OFFCURVE",
"144 -10 OFFCURVE",
"300 -10 CURVE SMOOTH"
);
},
{
closed = 1;
nodes = (
"169 25 OFFCURVE",
"82 96 OFFCURVE",
"82 222 CURVE SMOOTH",
"82 250 LINE SMOOTH",
"82 370 OFFCURVE",
"170 451 OFFCURVE",
"314 451 CURVE SMOOTH",
"390 451 OFFCURVE",
"466 428 OFFCURVE",
"515 364 CURVE",
"527 327 OFFCURVE",
"533 282 OFFCURVE",
"533 257 CURVE SMOOTH",
"533 228 LINE SMOOTH",
"533 106 OFFCURVE",
"440 25 OFFCURVE",
"300 25 CURVE SMOOTH"
);
},
{
closed = 1;
nodes = (
"516 616 LINE",
"516 648 LINE",
"194 580 LINE",
"194 549 LINE"
);
}
);
width = 614;
},
{
background = {
paths = (
{
closed = 1;
nodes = (
"567 -11 OFFCURVE",
"710 91 OFFCURVE",
"710 282 CURVE SMOOTH",
"710 293 LINE SMOOTH",
"710 441 OFFCURVE",
"606 609 OFFCURVE",
"398 729 CURVE",
"123 729 LINE",
"277 603 OFFCURVE",
"365 523 OFFCURVE",
"415 458 CURVE",
"405 458 LINE",
"378 479 OFFCURVE",
"329 493 OFFCURVE",
"280 493 CURVE SMOOTH",
"123 493 OFFCURVE",
"19 397 OFFCURVE",
"19 252 CURVE SMOOTH",
"19 242 LINE SMOOTH",
"19 91 OFFCURVE",
"150 -11 OFFCURVE",
"349 -11 CURVE SMOOTH"
);
},
{
closed = 1;
nodes = (
"298 152 OFFCURVE",
"256 182 OFFCURVE",
"256 237 CURVE SMOOTH",
"256 278 LINE SMOOTH",
"256 336 OFFCURVE",
"302 371 OFFCURVE",
"373 371 CURVE SMOOTH",
"406 371 OFFCURVE",
"437 366 OFFCURVE",
"473 343 CURVE",
"473 326 OFFCURVE",
"474 305 OFFCURVE",
"474 288 CURVE SMOOTH",
"474 244 LINE SMOOTH",
"474 189 OFFCURVE",
"433 152 OFFCURVE",
"361 152 CURVE SMOOTH"
);
},
{
closed = 1;
nodes = (
"634 619 LINE",
"634 739 LINE",
"146 631 LINE",
"146 511 LINE"
);
}
);
};
layerId = "B2A2C094-0A8E-4CD4-B0FB-CC77B76A82B9";
paths = (
{
closed = 1;
nodes = (
"564 -11 OFFCURVE",
"705 90 OFFCURVE",
"705 278 CURVE SMOOTH",
"705 289 LINE SMOOTH",
"705 440 OFFCURVE",
"596 612 OFFCURVE",
"377 729 CURVE",
"109 729 LINE",
"270 597 OFFCURVE",
"360 516 OFFCURVE",
"411 451 CURVE",
"401 451 LINE",
"374 472 OFFCURVE",
"326 485 OFFCURVE",
"280 485 CURVE SMOOTH",
"126 485 OFFCURVE",
"24 391 OFFCURVE",
"24 248 CURVE SMOOTH",
"24 239 LINE SMOOTH",
"24 90 OFFCURVE",
"153 -11 OFFCURVE",
"349 -11 CURVE SMOOTH"
);
},
{
closed = 1;
nodes = (
"301 152 OFFCURVE",
"261 181 OFFCURVE",
"261 234 CURVE SMOOTH",
"261 274 LINE SMOOTH",
"261 330 OFFCURVE",
"305 364 OFFCURVE",
"373 364 CURVE SMOOTH",
"403 364 OFFCURVE",
"432 360 OFFCURVE",
"468 337 CURVE",
"468 319 OFFCURVE",
"468 302 OFFCURVE",
"468 284 CURVE SMOOTH",
"469 240 LINE SMOOTH",
"469 188 OFFCURVE",
"430 152 OFFCURVE",
"361 152 CURVE SMOOTH"
);
},
{
closed = 1;
nodes = (
"630 609 LINE",
"630 729 LINE",
"148 622 LINE",
"148 502 LINE"
);
}
);
width = 729;
},
{
layerId = "AE48F426-5A06-4069-851E-B29A4CF5AB7C";
paths = (
{
closed = 1;
nodes = (
"491 -10 OFFCURVE",
"611 89 OFFCURVE",
"611 249 CURVE SMOOTH",
"611 260 LINE SMOOTH",
"611 426 OFFCURVE",
"488 601 OFFCURVE",
"311 729 CURVE",
"196 729 LINE",
"320 625 OFFCURVE",
"416 521 OFFCURVE",
"462 438 CURVE",
"456 437 LINE",
"414 475 OFFCURVE",
"353 488 OFFCURVE",
"301 488 CURVE SMOOTH",
"143 488 OFFCURVE",
"37 390 OFFCURVE",
"37 243 CURVE SMOOTH",
"37 229 LINE SMOOTH",
"37 86 OFFCURVE",
"147 -10 OFFCURVE",
"314 -10 CURVE SMOOTH"
);
},
{
closed = 1;
nodes = (
"210 63 OFFCURVE",
"137 122 OFFCURVE",
"137 223 CURVE SMOOTH",
"137 250 LINE SMOOTH",
"137 351 OFFCURVE",
"212 419 OFFCURVE",
"331 419 CURVE SMOOTH",
"393 419 OFFCURVE",
"455 401 OFFCURVE",
"499 353 CURVE",
"508 313 OFFCURVE",
"512 279 OFFCURVE",
"512 258 CURVE SMOOTH",
"512 230 LINE SMOOTH",
"512 129 OFFCURVE",
"435 63 OFFCURVE",
"319 63 CURVE SMOOTH"
);
},
{
closed = 1;
nodes = (
"549 617 LINE",
"549 675 LINE",
"180 595 LINE",
"180 537 LINE"
);
}
);
width = 647;
},
{
layerId = "3997DD6A-B1DD-4C8E-8076-A32381C7B82F";
paths = (
{
closed = 1;
nodes = (
"321 -7 OFFCURVE",
"414 52 OFFCURVE",
"446 202 CURVE SMOOTH",
"464 286 LINE SMOOTH",
"494 428 OFFCURVE",
"460 600 OFFCURVE",
"377 729 CURVE",
"220 729 LINE",
"270 619 OFFCURVE",
"302 506 OFFCURVE",
"303 432 CURVE",
"294 433 LINE",
"278 470 OFFCURVE",
"241 495 OFFCURVE",
"195 495 CURVE SMOOTH",
"118 495 OFFCURVE",
"56 445 OFFCURVE",
"28 317 CURVE SMOOTH",
"14 253 LINE SMOOTH",
"-21 92 OFFCURVE",
"64 -7 OFFCURVE",
"201 -7 CURVE SMOOTH"
);
},
{
closed = 1;
nodes = (
"185 127 OFFCURVE",
"170 148 OFFCURVE",
"179 190 CURVE SMOOTH",
"206 319 LINE SMOOTH",
"211 344 OFFCURVE",
"226 361 OFFCURVE",
"250 361 CURVE SMOOTH",
"267 361 OFFCURVE",
"287 354 OFFCURVE",
"296 334 CURVE",
"292 316 OFFCURVE",
"289 299 OFFCURVE",
"285 281 CURVE",
"261 168 LINE SMOOTH",
"256 143 OFFCURVE",
"240 127 OFFCURVE",
"217 127 CURVE SMOOTH"
);
},
{
closed = 1;
nodes = (
"502 576 LINE",
"528 696 LINE",
"170 621 LINE",
"144 501 LINE"
);
}
);
width = 479;
},
{
layerId = "83818878-ED40-419E-99CD-108DAFFBE778";
paths = (
{
closed = 1;
nodes = (
"447 -10 OFFCURVE",
"550 72 OFFCURVE",
"569 196 CURVE SMOOTH",
"571 209 LINE SMOOTH",
"596 372 OFFCURVE",
"486 587 OFFCURVE",
"368 729 CURVE",
"329 729 LINE",
"404 634 OFFCURVE",
"478 505 OFFCURVE",
"512 402 CURVE",
"505 402 LINE",
"460 458 OFFCURVE",
"382 485 OFFCURVE",
"301 485 CURVE SMOOTH",
"169 485 OFFCURVE",
"66 408 OFFCURVE",
"46 279 CURVE SMOOTH",
"43 260 LINE SMOOTH",
"18 102 OFFCURVE",
"126 -10 OFFCURVE",
"297 -10 CURVE SMOOTH"
);
},
{
closed = 1;
nodes = (
"151 25 OFFCURVE",
"62 114 OFFCURVE",
"82 253 CURVE SMOOTH",
"86 281 LINE SMOOTH",
"101 386 OFFCURVE",
"184 451 OFFCURVE",
"304 451 CURVE SMOOTH",
"396 451 OFFCURVE",
"486 413 OFFCURVE",
"530 334 CURVE",
"535 306 OFFCURVE",
"538 257 OFFCURVE",
"533 225 CURVE SMOOTH",
"529 197 LINE SMOOTH",
"514 90 OFFCURVE",
"424 25 OFFCURVE",
"299 25 CURVE SMOOTH"
);
},
{
closed = 1;
nodes = (
"591 606 LINE",
"598 638 LINE",
"261 582 LINE",
"254 551 LINE"
);
}
);
width = 623.4;
},
{
layerId = "60C8C1A3-75DB-4AA2-AA92-15A0C8BC52E3";
paths = (
{
closed = 1;
nodes = (
"462.55 -11 OFFCURVE",
"586.55 71 OFFCURVE",
"609.55 207 CURVE SMOOTH",
"611.55 219 LINE SMOOTH",
"639.55 386 OFFCURVE",
"531.55 590 OFFCURVE",
"398.55 729 CURVE",
"301.55 729 LINE",
"386.55 623 OFFCURVE",
"457.55 507 OFFCURVE",
"491.55 415 CURVE",
"484.55 415 LINE",
"444.55 464 OFFCURVE",
"374.55 489 OFFCURVE",
"304.55 489 CURVE SMOOTH",
"176.55 489 OFFCURVE",
"61.55 415 OFFCURVE",
"40.55 285 CURVE SMOOTH",
"38.55 277 LINE SMOOTH",
"10.55 104 OFFCURVE",
"128.55 -11 OFFCURVE",
"306.55 -11 CURVE SMOOTH"
);
},
{
closed = 1;
nodes = (
"195.55 64 OFFCURVE",
"116.55 135 OFFCURVE",
"136.55 254 CURVE SMOOTH",
"141.55 284 LINE SMOOTH",
"155.55 374 OFFCURVE",
"227.55 420 OFFCURVE",
"323.55 420 CURVE SMOOTH",
"399.55 420 OFFCURVE",
"474.55 394 OFFCURVE",
"514.55 329 CURVE",
"517.55 297 OFFCURVE",
"517.55 262 OFFCURVE",
"512.55 236 CURVE SMOOTH",
"507.55 206 LINE SMOOTH",
"493.55 119 OFFCURVE",
"421.55 64 OFFCURVE",
"313.55 64 CURVE SMOOTH"
);
},
{
closed = 1;
nodes = (
"615.55 607 LINE",
"627.55 667 LINE",
"240.55 594 LINE",
"227.55 536 LINE"
);
}
);
width = 657.54;
},
{
layerId = "FFB0BD1F-7FAC-4F91-A9E1-473A5D606C71";
paths = (
{
closed = 1;
nodes = (
"535.076 -11 OFFCURVE",
"686.076 78 OFFCURVE",
"714.076 232 CURVE SMOOTH",
"716.076 243 LINE SMOOTH",
"749.076 425 OFFCURVE",
"636.076 606 OFFCURVE",
"473.076 729 CURVE",
"244.076 729 LINE",
"360.076 595 OFFCURVE",
"426.076 510 OFFCURVE",
"460.076 444 CURVE",
"450.076 445 LINE",
"417.076 482 OFFCURVE",
"360.076 499 OFFCURVE",
"301.076 499 CURVE SMOOTH",
"164.076 499 OFFCURVE",
"57.076 422 OFFCURVE",
"29.076 296 CURVE SMOOTH",
"27.076 287 LINE SMOOTH",
"-12.924 107 OFFCURVE",
"129.076 -11 OFFCURVE",
"336.076 -11 CURVE SMOOTH"
);
},
{
closed = 1;
nodes = (
"290.076 153 OFFCURVE",
"248.076 194 OFFCURVE",
"261.076 259 CURVE SMOOTH",
"267.076 289 LINE SMOOTH",
"277.076 339 OFFCURVE",
"319.076 364 OFFCURVE",
"373.076 364 CURVE SMOOTH",
"418.076 364 OFFCURVE",
"459.076 348 OFFCURVE",
"491.076 317 CURVE",
"487.076 296 OFFCURVE",
"485.076 281 OFFCURVE",
"481.076 261 CURVE SMOOTH",
"474.076 227 LINE SMOOTH",
"465.076 183 OFFCURVE",
"426.076 153 OFFCURVE",
"358.076 153 CURVE SMOOTH"
);
},
{
closed = 1;
nodes = (
"686.076 609 LINE",
"711.076 729 LINE",
"200.076 622 LINE",
"175.076 502 LINE"
);
}
);
width = 746.786;
},
{
layerId = "DE16639F-02D9-40F6-995B-45753FE85645";
paths = (
{
closed = 1;
nodes = (
"240 -6 OFFCURVE",
"313 36 OFFCURVE",
"342 171 CURVE SMOOTH",
"366 282 LINE SMOOTH",
"396 420 OFFCURVE",
"373 578 OFFCURVE",
"281 729 CURVE",
"214 729 LINE",
"273 620 OFFCURVE",
"311 509 OFFCURVE",
"308 384 CURVE",
"302 385 LINE",
"285 435 OFFCURVE",
"244 458 OFFCURVE",
"197 458 CURVE SMOOTH",
"124 458 OFFCURVE",
"68 412 OFFCURVE",
"42 297 CURVE SMOOTH",
"19 194 LINE SMOOTH",
"-8 74 OFFCURVE",
"50 -6 OFFCURVE",
"154 -6 CURVE SMOOTH"
);
},
{
closed = 1;
nodes = (
"94 52 OFFCURVE",
"73 98 OFFCURVE",
"90 178 CURVE SMOOTH",
"119 314 LINE SMOOTH",
"130 366 OFFCURVE",
"163 400 OFFCURVE",
"210 400 CURVE SMOOTH",
"260 400 OFFCURVE",
"294 371 OFFCURVE",
"299 317 CURVE",
"296 299 OFFCURVE",
"292 282 OFFCURVE",
"289 266 CURVE SMOOTH",
"267 160 LINE SMOOTH",
"254 98 OFFCURVE",
"223 52 OFFCURVE",
"163 52 CURVE SMOOTH"
);
},
{
closed = 1;
nodes = (
"425 626 LINE",
"436 678 LINE",
"160 621 LINE",
"149 568 LINE"
);
}
);
width = 395;
},
{
layerId = "CF2D9F7C-A313-4B1D-9A0D-3EFAA90186C4";
paths = (
{
closed = 1;
nodes = (
"223 -6 OFFCURVE",
"273 41 OFFCURVE",
"296 148 CURVE SMOOTH",
"324 280 LINE SMOOTH",
"354 417 OFFCURVE",
"336 571 OFFCURVE",
"239 729 CURVE",
"209 729 LINE",
"272 619 OFFCURVE",
"313 510 OFFCURVE",
"308 364 CURVE",
"303 365 LINE",
"286 419 OFFCURVE",
"245 443 OFFCURVE",
"195 443 CURVE SMOOTH",
"125 443 OFFCURVE",
"69 400 OFFCURVE",
"45 289 CURVE SMOOTH",
"23 186 LINE SMOOTH",
"-2 71 OFFCURVE",
"45 -6 OFFCURVE",
"137 -6 CURVE SMOOTH"
);
},
{
closed = 1;
nodes = (
"67 21 OFFCURVE",
"32 79 OFFCURVE",
"50 165 CURVE SMOOTH",
"81 312 LINE SMOOTH",
"95 378 OFFCURVE",
"138 416 OFFCURVE",
"192 416 CURVE SMOOTH",
"256 416 OFFCURVE",
"295 377 OFFCURVE",
"298 308 CURVE",
"292 278 OFFCURVE",
"285 247 OFFCURVE",
"279 217 CURVE SMOOTH",
"260 125 LINE SMOOTH",
"247 64 OFFCURVE",
"208 21 OFFCURVE",
"138 21 CURVE SMOOTH"
);
},
{
closed = 1;
nodes = (
"391 646 LINE",
"396 671 LINE",
"154 621 LINE",
"149 596 LINE"
);
}
);
width = 357.65;
}
);
leftKerningGroup = eth;
leftMetricsKey = o;
rightMetricsKey = o;
unicode = 00F0;
}
{
glyphname = logicalnot;
layers = (
{
layerId = "6932EABA-00D8-4526-96D6-87ADD7AC589E";
paths = (
{
closed = 1;
nodes = (
"487 145 LINE",
"487 375 LINE",
"12 375 LINE",
"12 347 LINE",
"460 347 LINE",
"460 145 LINE"
);
}
);
width = 500;
},
{
layerId = "5CD2F84A-2568-4CD8-B351-D9C938FC152A";
paths = (
{
closed = 1;
nodes = (
"493 144 LINE",
"493 390 LINE",
"18 390 LINE",
"18 327 LINE",
"431 327 LINE",
"431 144 LINE"
);
}
);
width = 510;
},
{
layerId = "C27438A8-196C-4C9A-B899-94A1193B83E6";
paths = (
{
closed = 1;
nodes = (
"492 142 LINE",
"492 428 LINE",
"19 428 LINE",
"19 278 LINE",
"345 278 LINE",
"345 142 LINE"
);
}
);
width = 510;
},
{
layerId = "5908592F-1119-4296-AF9E-8219C1C10A44";
paths = (
{
closed = 1;
nodes = (
"551 123 LINE",
"551 384 LINE",
"53 384 LINE",
"53 349 LINE",
"519 349 LINE",
"519 123 LINE"
);
}
);
width = 617;
},
{
layerId = "B2A2C094-0A8E-4CD4-B0FB-CC77B76A82B9";
paths = (
{
closed = 1;
nodes = (
"518 117 LINE",
"518 451 LINE",
"29 451 LINE",
"29 271 LINE",
"338 271 LINE",
"338 117 LINE"
);
}
);
width = 559;
},
{
layerId = "AE48F426-5A06-4069-851E-B29A4CF5AB7C";
paths = (
{
closed = 1;
nodes = (
"543 121 LINE",
"543 404 LINE",
"47 404 LINE",
"47 324 LINE",
"469 324 LINE",
"469 121 LINE"
);
}
);
width = 602;
},
{
layerId = "3997DD6A-B1DD-4C8E-8076-A32381C7B82F";
paths = (
{
closed = 1;
nodes = (
"455 142 LINE",
"515 428 LINE",
"42 428 LINE",
"11 278 LINE",
"337 278 LINE",
"308 142 LINE"
);
}
);
width = 505;
},
{
layerId = "83818878-ED40-419E-99CD-108DAFFBE778";
paths = (
{
closed = 1;
nodes = (
"523 123 LINE",
"579 384 LINE",
"81 384 LINE",
"73 349 LINE",
"539 349 LINE",
"491 123 LINE"
);
}
);
width = 673;
},
{
layerId = "60C8C1A3-75DB-4AA2-AA92-15A0C8BC52E3";
paths = (
{
closed = 1;
nodes = (
"511.8 121 LINE",
"573 404 LINE",
"78.2 404 LINE",
"60.2 324 LINE",
"482.2 324 LINE",
"437.8 121 LINE"
);
}
);
width = 662;
},
{
layerId = "FFB0BD1F-7FAC-4F91-A9E1-473A5D606C71";
paths = (
{
closed = 1;
nodes = (
"483 117 LINE",
"554 451 LINE",
"65 451 LINE",
"27 271 LINE",
"335 271 LINE",
"303 117 LINE"
);
}
);
width = 635;
},
{
layerId = "DE16639F-02D9-40F6-995B-45753FE85645";
paths = (
{
closed = 1;
nodes = (
"461 144 LINE",
"513 390 LINE",
"38 390 LINE",
"25 327 LINE",
"438 327 LINE",
"399 144 LINE"
);
}
);
width = 493;
},
{
layerId = "CF2D9F7C-A313-4B1D-9A0D-3EFAA90186C4";
paths = (
{
closed = 1;
nodes = (
"488 145 LINE",
"536 375 LINE",
"61 375 LINE",
"55 347 LINE",
"503 347 LINE",
"461 145 LINE"
);
}
);
width = 549;
}
);
unicode = 00AC;
}
{
color = 5;
glyphname = onesuperior;
layers = (
{
layerId = "6932EABA-00D8-4526-96D6-87ADD7AC589E";
paths = (
{
closed = 1;
nodes = (
"117 437 LINE",
"90 437 LINE",
"85 371 LINE",
"25 371 LINE",
"25 342 LINE",
"86 342 LINE",
"86 0 LINE",
"117 0 LINE"
);
}
);
width = 197;
},
{
layerId = "5CD2F84A-2568-4CD8-B351-D9C938FC152A";
paths = (
{
closed = 1;
nodes = (
"164 437 LINE",
"107 437 LINE",
"96 365 LINE",
"30 365 LINE",
"30 305 LINE",
"94 305 LINE",
"94 0 LINE",
"164 0 LINE"
);
}
);
width = 239;
},
{
layerId = "C27438A8-196C-4C9A-B899-94A1193B83E6";
paths = (
{
closed = 1;
nodes = (
"216 437 LINE",
"118 437 LINE",
"100 356 LINE",
"26 356 LINE",
"26 255 LINE",
"96 255 LINE",
"96 0 LINE",
"216 0 LINE"
);
}
);
width = 259;
},
{
layerId = "5908592F-1119-4296-AF9E-8219C1C10A44";
paths = (
{
closed = 1;
nodes = (
"187 437 LINE",
"154 437 LINE",
"148 365 LINE",
"25 365 LINE",
"25 329 LINE",
"149 329 LINE",
"149 0 LINE",
"187 0 LINE"
);
}
);
width = 265;
},
{
layerId = "B2A2C094-0A8E-4CD4-B0FB-CC77B76A82B9";
paths = (
{
closed = 1;
nodes = (
"296 437 LINE",
"157 437 LINE",
"135 372 LINE",
"17 372 LINE",
"17 248 LINE",
"128 248 LINE",
"128 0 LINE",
"296 0 LINE"
);
}
);
width = 352;
},
{
layerId = "AE48F426-5A06-4069-851E-B29A4CF5AB7C";
paths = (
{
closed = 1;
nodes = (
"229 437 LINE",
"155 437 LINE",
"142 368 LINE",
"22 368 LINE",
"22 297 LINE",
"140 297 LINE",
"140 0 LINE",
"229 0 LINE"
);
}
);
width = 302;
},
{
layerId = "3997DD6A-B1DD-4C8E-8076-A32381C7B82F";
paths = (
{
closed = 1;
nodes = (
"251 437 LINE",
"153 437 LINE",
"118 356 LINE",
"44 356 LINE",
"23 255 LINE",
"93 255 LINE",
"39 0 LINE",
"160 0 LINE"
);
}
);
width = 261;
},
{
layerId = "83818878-ED40-419E-99CD-108DAFFBE778";
paths = (
{
closed = 1;
nodes = (
"228 437 LINE",
"196 437 LINE",
"175 365 LINE",
"48 365 LINE",
"41 331 LINE",
"168 331 LINE",
"98 0 LINE",
"137 0 LINE"
);
}
);
width = 270;
},
{
layerId = "60C8C1A3-75DB-4AA2-AA92-15A0C8BC52E3";
paths = (
{
closed = 1;
nodes = (
"269.8 437 LINE",
"194.6 437 LINE",
"168.4 368 LINE",
"44.8 368 LINE",
"30.4 299.4 LINE",
"150.8 299.4 LINE",
"87.2 0 LINE",
"178.6 0 LINE"
);
}
);
width = 308;
},
{
layerId = "FFB0BD1F-7FAC-4F91-A9E1-473A5D606C71";
paths = (
{
closed = 1;
nodes = (
"337 437 LINE",
"195 437 LINE",
"159 372 LINE",
"39 372 LINE",
"12 249 LINE",
"126 249 LINE",
"74 0 LINE",
"246 0 LINE"
);
}
);
width = 359;
},
{
layerId = "DE16639F-02D9-40F6-995B-45753FE85645";
paths = (
{
closed = 1;
nodes = (
"211 437 LINE",
"153 437 LINE",
"127 365 LINE",
"61 365 LINE",
"49 305 LINE",
"113 305 LINE",
"49 0 LINE",
"119 0 LINE"
);
}
);
width = 260;
},
{
layerId = "CF2D9F7C-A313-4B1D-9A0D-3EFAA90186C4";
paths = (
{
closed = 1;
nodes = (
"175 437 LINE",
"148 437 LINE",
"129 371 LINE",
"69 371 LINE",
"63 342 LINE",
"124 342 LINE",
"52 0 LINE",
"83 0 LINE"
);
}
);
width = 198;
}
);
leftKerningGroup = onesuperior;
leftMetricsKey = one;
rightKerningGroup = onesuperior;
rightMetricsKey = one;
unicode = 00B9;
userData = {
KernOnSpecialSpacing = {
L = superiors;
R = superiors;
};
};
}
{
glyphname = ordmasculine;
layers = (
{
layerId = "6932EABA-00D8-4526-96D6-87ADD7AC589E";
paths = (
{
closed = 1;
nodes = (
"176 385 OFFCURVE",
"215 420 OFFCURVE",
"215 498 CURVE SMOOTH",
"215 499 OFFCURVE",
"215 579 OFFCURVE",
"215 623 CURVE SMOOTH",
"215 699 OFFCURVE",
"177 735 OFFCURVE",
"119 735 CURVE SMOOTH",
"61 735 OFFCURVE",
"23 699 OFFCURVE",
"23 623 CURVE SMOOTH",
"23 622 OFFCURVE",
"23 542 OFFCURVE",
"23 498 CURVE SMOOTH",
"23 423 OFFCURVE",
"60 385 OFFCURVE",
"119 385 CURVE SMOOTH"
);
},
{
closed = 1;
nodes = (
"69 410 OFFCURVE",
"52 447 OFFCURVE",
"52 496 CURVE SMOOTH",
"52 497 OFFCURVE",
"52 580 OFFCURVE",
"52 625 CURVE SMOOTH",
"52 673 OFFCURVE",
"69 710 OFFCURVE",
"119 710 CURVE SMOOTH",
"169 710 OFFCURVE",
"186 674 OFFCURVE",
"186 625 CURVE SMOOTH",
"186 624 OFFCURVE",
"186 541 OFFCURVE",
"186 496 CURVE SMOOTH",
"186 446 OFFCURVE",
"168 410 OFFCURVE",
"119 410 CURVE SMOOTH"
);
}
);
width = 238;
},
{
layerId = "5CD2F84A-2568-4CD8-B351-D9C938FC152A";
paths = (
{
closed = 1;
nodes = (
"201 385 OFFCURVE",
"243 425 OFFCURVE",
"243 513 CURVE SMOOTH",
"243 518 OFFCURVE",
"243 579 OFFCURVE",
"243 614 CURVE SMOOTH",
"243 698 OFFCURVE",
"203 740 OFFCURVE",
"132 740 CURVE SMOOTH",
"62 740 OFFCURVE",
"20 700 OFFCURVE",
"20 614 CURVE SMOOTH",
"20 609 OFFCURVE",
"20 547 OFFCURVE",
"20 513 CURVE SMOOTH",
"20 429 OFFCURVE",
"60 385 OFFCURVE",
"132 385 CURVE SMOOTH"
);
},
{
closed = 1;
nodes = (
"93 433 OFFCURVE",
"76 460 OFFCURVE",
"76 505 CURVE SMOOTH",
"76 514 OFFCURVE",
"76 582 OFFCURVE",
"76 623 CURVE SMOOTH",
"76 666 OFFCURVE",
"93 693 OFFCURVE",
"132 693 CURVE SMOOTH",
"171 693 OFFCURVE",
"187 666 OFFCURVE",
"187 623 CURVE SMOOTH",
"187 613 OFFCURVE",
"187 545 OFFCURVE",
"187 505 CURVE SMOOTH",
"187 460 OFFCURVE",
"171 433 OFFCURVE",
"132 433 CURVE SMOOTH"
);
}
);
width = 263;
},
{
layerId = "C27438A8-196C-4C9A-B899-94A1193B83E6";
paths = (
{
closed = 1;
nodes = (
"262 385 OFFCURVE",
"314 439 OFFCURVE",
"314 549 CURVE SMOOTH",
"314 565 OFFCURVE",
"314 579 OFFCURVE",
"314 592 CURVE SMOOTH",
"314 697 OFFCURVE",
"266 755 OFFCURVE",
"163 755 CURVE SMOOTH",
"64 755 OFFCURVE",
"11 704 OFFCURVE",
"11 592 CURVE SMOOTH",
"11 577 OFFCURVE",
"11 562 OFFCURVE",
"11 549 CURVE SMOOTH",
"11 444 OFFCURVE",
"58 385 OFFCURVE",
"163 385 CURVE SMOOTH"
);
},
{
closed = 1;
nodes = (
"150 490 OFFCURVE",
"137 493 OFFCURVE",
"137 525 CURVE SMOOTH",
"137 557 OFFCURVE",
"137 587 OFFCURVE",
"137 617 CURVE SMOOTH",
"137 648 OFFCURVE",
"150 652 OFFCURVE",
"163 652 CURVE SMOOTH",
"177 652 OFFCURVE",
"189 646 OFFCURVE",
"189 617 CURVE SMOOTH",
"189 584 OFFCURVE",
"189 555 OFFCURVE",
"189 525 CURVE SMOOTH",
"189 496 OFFCURVE",
"178 490 OFFCURVE",
"163 490 CURVE SMOOTH"
);
}
);
width = 325;
},
{
layerId = "5908592F-1119-4296-AF9E-8219C1C10A44";
paths = (
{
closed = 1;
nodes = (
"296 385 OFFCURVE",
"367 442 OFFCURVE",
"367 566 CURVE SMOOTH",
"367 565 OFFCURVE",
"367 558 OFFCURVE",
"367 554 CURVE SMOOTH",
"367 676 OFFCURVE",
"300 735 OFFCURVE",
"195 735 CURVE SMOOTH",
"92 735 OFFCURVE",
"25 676 OFFCURVE",
"25 554 CURVE SMOOTH",
"25 555 OFFCURVE",
"25 562 OFFCURVE",
"25 566 CURVE SMOOTH",
"25 444 OFFCURVE",
"92 385 OFFCURVE",
"195 385 CURVE SMOOTH"
);
},
{
closed = 1;
nodes = (
"116 418 OFFCURVE",
"61 461 OFFCURVE",
"61 530 CURVE SMOOTH",
"61 532 OFFCURVE",
"61 571 OFFCURVE",
"61 590 CURVE SMOOTH",
"61 658 OFFCURVE",
"115 704 OFFCURVE",
"195 704 CURVE SMOOTH",
"276 704 OFFCURVE",
"329 660 OFFCURVE",
"329 590 CURVE SMOOTH",
"329 589 OFFCURVE",
"329 550 OFFCURVE",
"329 530 CURVE SMOOTH",
"329 460 OFFCURVE",
"276 418 OFFCURVE",
"195 418 CURVE SMOOTH"
);
}
);
width = 392;
},
{
layerId = "B2A2C094-0A8E-4CD4-B0FB-CC77B76A82B9";
paths = (
{
closed = 1;
nodes = (
"337 386 OFFCURVE",
"418 443 OFFCURVE",
"418 570 CURVE SMOOTH",
"418 570 OFFCURVE",
"418 571 OFFCURVE",
"418 570 CURVE SMOOTH",
"418 676 OFFCURVE",
"359 757 OFFCURVE",
"218 757 CURVE SMOOTH",
"96 757 OFFCURVE",
"15 696 OFFCURVE",
"15 570 CURVE SMOOTH",
"15 571 OFFCURVE",
"15 571 OFFCURVE",
"15 570 CURVE SMOOTH",
"15 463 OFFCURVE",
"78 386 OFFCURVE",
"218 386 CURVE SMOOTH"
);
},
{
closed = 1;
nodes = (
"183 499 OFFCURVE",
"174 523 OFFCURVE",
"174 550 CURVE SMOOTH",
"174 566 OFFCURVE",
"174 577 OFFCURVE",
"174 591 CURVE SMOOTH",
"174 621 OFFCURVE",
"184 643 OFFCURVE",
"218 643 CURVE SMOOTH",
"242 643 OFFCURVE",
"260 630 OFFCURVE",
"260 591 CURVE SMOOTH",
"260 574 OFFCURVE",
"260 565 OFFCURVE",
"260 550 CURVE SMOOTH",
"260 510 OFFCURVE",
"242 499 OFFCURVE",
"218 499 CURVE SMOOTH"
);
}
);
width = 433;
},
{
layerId = "AE48F426-5A06-4069-851E-B29A4CF5AB7C";
paths = (
{
closed = 1;
nodes = (
"305 385 OFFCURVE",
"377 441 OFFCURVE",
"377 565 CURVE SMOOTH",
"377 566 OFFCURVE",
"377 563 OFFCURVE",
"377 562 CURVE SMOOTH",
"377 678 OFFCURVE",
"313 743 OFFCURVE",
"200 743 CURVE SMOOTH",
"93 743 OFFCURVE",
"22 683 OFFCURVE",
"22 562 CURVE SMOOTH",
"22 562 OFFCURVE",
"22 565 OFFCURVE",
"22 565 CURVE SMOOTH",
"22 449 OFFCURVE",
"89 385 OFFCURVE",
"200 385 CURVE SMOOTH"
);
},
{
closed = 1;
nodes = (
"134 444 OFFCURVE",
"93 481 OFFCURVE",
"93 536 CURVE SMOOTH",
"93 541 OFFCURVE",
"93 574 OFFCURVE",
"93 592 CURVE SMOOTH",
"93 647 OFFCURVE",
"134 684 OFFCURVE",
"200 684 CURVE SMOOTH",
"264 684 OFFCURVE",
"306 652 OFFCURVE",
"306 592 CURVE SMOOTH",
"306 585 OFFCURVE",
"306 554 OFFCURVE",
"306 536 CURVE SMOOTH",
"306 475 OFFCURVE",
"264 444 OFFCURVE",
"200 444 CURVE SMOOTH"
);
}
);
width = 400;
},
{
layerId = "3997DD6A-B1DD-4C8E-8076-A32381C7B82F";
paths = (
{
closed = 1;
nodes = (
"336 385 OFFCURVE",
"388 439 OFFCURVE",
"388 549 CURVE SMOOTH",
"388 565 OFFCURVE",
"388 579 OFFCURVE",
"388 592 CURVE SMOOTH",
"388 697 OFFCURVE",
"340 755 OFFCURVE",
"237 755 CURVE SMOOTH",
"138 755 OFFCURVE",
"85 704 OFFCURVE",
"85 592 CURVE SMOOTH",
"85 577 OFFCURVE",
"85 562 OFFCURVE",
"85 549 CURVE SMOOTH",
"85 444 OFFCURVE",
"132 385 OFFCURVE",
"237 385 CURVE SMOOTH"
);
},
{
closed = 1;
nodes = (
"224 490 OFFCURVE",
"211 493 OFFCURVE",
"211 525 CURVE SMOOTH",
"211 557 OFFCURVE",
"211 587 OFFCURVE",
"211 617 CURVE SMOOTH",
"211 648 OFFCURVE",
"224 652 OFFCURVE",
"237 652 CURVE SMOOTH",
"251 652 OFFCURVE",
"263 646 OFFCURVE",
"263 617 CURVE SMOOTH",
"263 584 OFFCURVE",
"263 555 OFFCURVE",
"263 525 CURVE SMOOTH",
"263 496 OFFCURVE",
"252 490 OFFCURVE",
"237 490 CURVE SMOOTH"
);
}
);
width = 347;
},
{
layerId = "83818878-ED40-419E-99CD-108DAFFBE778";
paths = (
{
closed = 1;
nodes = (
"365 385 OFFCURVE",
"436 442 OFFCURVE",
"436 566 CURVE SMOOTH",
"436 565 OFFCURVE",
"436 558 OFFCURVE",
"436 554 CURVE SMOOTH",
"436 676 OFFCURVE",
"369 735 OFFCURVE",
"264 735 CURVE SMOOTH",
"161 735 OFFCURVE",
"94 676 OFFCURVE",
"94 554 CURVE SMOOTH",
"94 555 OFFCURVE",
"94 562 OFFCURVE",
"94 566 CURVE SMOOTH",
"94 444 OFFCURVE",
"161 385 OFFCURVE",
"264 385 CURVE SMOOTH"
);
},
{
closed = 1;
nodes = (
"185 418 OFFCURVE",
"130 461 OFFCURVE",
"130 530 CURVE SMOOTH",
"130 532 OFFCURVE",
"130 571 OFFCURVE",
"130 590 CURVE SMOOTH",
"130 658 OFFCURVE",
"184 704 OFFCURVE",
"264 704 CURVE SMOOTH",
"345 704 OFFCURVE",
"398 660 OFFCURVE",
"398 590 CURVE SMOOTH",
"398 589 OFFCURVE",
"398 550 OFFCURVE",
"398 530 CURVE SMOOTH",
"398 460 OFFCURVE",
"345 418 OFFCURVE",
"264 418 CURVE SMOOTH"
);
}
);
width = 402;
},
{
layerId = "60C8C1A3-75DB-4AA2-AA92-15A0C8BC52E3";
paths = (
{
closed = 1;
nodes = (
"374.6 385 OFFCURVE",
"446.6 441 OFFCURVE",
"446.6 565 CURVE SMOOTH",
"446.6 566 OFFCURVE",
"446.6 563 OFFCURVE",
"446.6 562 CURVE SMOOTH",
"446.6 678 OFFCURVE",
"382.6 743 OFFCURVE",
"269.6 743 CURVE SMOOTH",
"162.6 743 OFFCURVE",
"92.8 683 OFFCURVE",
"92.8 562 CURVE SMOOTH",
"92.8 562 OFFCURVE",
"92.8 565 OFFCURVE",
"92.8 565 CURVE SMOOTH",
"92.8 449 OFFCURVE",
"158.6 385 OFFCURVE",
"269.6 385 CURVE SMOOTH"
);
},
{
closed = 1;
nodes = (
"203.6 444 OFFCURVE",
"163.8 481 OFFCURVE",
"163.8 536 CURVE SMOOTH",
"163.8 541 OFFCURVE",
"163.8 574 OFFCURVE",
"163.8 592 CURVE SMOOTH",
"163.8 647 OFFCURVE",
"203.6 684 OFFCURVE",
"269.6 684 CURVE SMOOTH",
"333.6 684 OFFCURVE",
"375.6 652 OFFCURVE",
"375.6 592 CURVE SMOOTH",
"375.6 585 OFFCURVE",
"375.6 554 OFFCURVE",
"375.6 536 CURVE SMOOTH",
"375.6 475 OFFCURVE",
"333.6 444 OFFCURVE",
"269.6 444 CURVE SMOOTH"
);
}
);
width = 410.8;
},
{
layerId = "FFB0BD1F-7FAC-4F91-A9E1-473A5D606C71";
paths = (
{
closed = 1;
nodes = (
"406 386 OFFCURVE",
"487 443 OFFCURVE",
"487 570 CURVE SMOOTH",
"487 570 OFFCURVE",
"487 571 OFFCURVE",
"487 570 CURVE SMOOTH",
"487 676 OFFCURVE",
"428 757 OFFCURVE",
"286 757 CURVE SMOOTH",
"165 757 OFFCURVE",
"84 696 OFFCURVE",
"84 570 CURVE SMOOTH",
"84 571 OFFCURVE",
"84 571 OFFCURVE",
"84 570 CURVE SMOOTH",
"84 463 OFFCURVE",
"147 386 OFFCURVE",
"286 386 CURVE SMOOTH"
);
},
{
closed = 1;
nodes = (
"251 499 OFFCURVE",
"243 523 OFFCURVE",
"243 550 CURVE SMOOTH",
"243 566 OFFCURVE",
"243 577 OFFCURVE",
"243 591 CURVE SMOOTH",
"243 621 OFFCURVE",
"253 643 OFFCURVE",
"286 643 CURVE SMOOTH",
"311 643 OFFCURVE",
"329 630 OFFCURVE",
"329 591 CURVE SMOOTH",
"329 574 OFFCURVE",
"329 565 OFFCURVE",
"329 550 CURVE SMOOTH",
"329 510 OFFCURVE",
"311 499 OFFCURVE",
"286 499 CURVE SMOOTH"
);
}
);
width = 445;
},
{
layerId = "DE16639F-02D9-40F6-995B-45753FE85645";
paths = (
{
closed = 1;
nodes = (
"281 385 OFFCURVE",
"323 425 OFFCURVE",
"323 513 CURVE SMOOTH",
"323 518 OFFCURVE",
"323 579 OFFCURVE",
"323 614 CURVE SMOOTH",
"323 698 OFFCURVE",
"283 740 OFFCURVE",
"212 740 CURVE SMOOTH",
"142 740 OFFCURVE",
"100 700 OFFCURVE",
"100 614 CURVE SMOOTH",
"100 609 OFFCURVE",
"100 547 OFFCURVE",
"100 513 CURVE SMOOTH",
"100 429 OFFCURVE",
"140 385 OFFCURVE",
"212 385 CURVE SMOOTH"
);
},
{
closed = 1;
nodes = (
"173 433 OFFCURVE",
"156 460 OFFCURVE",
"156 505 CURVE SMOOTH",
"156 514 OFFCURVE",
"156 582 OFFCURVE",
"156 623 CURVE SMOOTH",
"156 666 OFFCURVE",
"173 693 OFFCURVE",
"212 693 CURVE SMOOTH",
"251 693 OFFCURVE",
"267 666 OFFCURVE",
"267 623 CURVE SMOOTH",
"267 613 OFFCURVE",
"267 545 OFFCURVE",
"267 505 CURVE SMOOTH",
"267 460 OFFCURVE",
"251 433 OFFCURVE",
"212 433 CURVE SMOOTH"
);
}
);
width = 294;
},
{
layerId = "CF2D9F7C-A313-4B1D-9A0D-3EFAA90186C4";
paths = (
{
closed = 1;
nodes = (
"258 385 OFFCURVE",
"297 420 OFFCURVE",
"297 498 CURVE SMOOTH",
"297 499 OFFCURVE",
"297 579 OFFCURVE",
"297 623 CURVE SMOOTH",
"297 699 OFFCURVE",
"259 735 OFFCURVE",
"201 735 CURVE SMOOTH",
"143 735 OFFCURVE",
"105 699 OFFCURVE",
"105 623 CURVE SMOOTH",
"105 622 OFFCURVE",
"105 542 OFFCURVE",
"105 498 CURVE SMOOTH",
"105 423 OFFCURVE",
"142 385 OFFCURVE",
"201 385 CURVE SMOOTH"
);
},
{
closed = 1;
nodes = (
"151 410 OFFCURVE",
"134 447 OFFCURVE",
"134 496 CURVE SMOOTH",
"134 497 OFFCURVE",
"134 580 OFFCURVE",
"134 625 CURVE SMOOTH",
"134 673 OFFCURVE",
"151 710 OFFCURVE",
"201 710 CURVE SMOOTH",
"251 710 OFFCURVE",
"268 674 OFFCURVE",
"268 625 CURVE SMOOTH",
"268 624 OFFCURVE",
"268 541 OFFCURVE",
"268 496 CURVE SMOOTH",
"268 446 OFFCURVE",
"250 410 OFFCURVE",
"201 410 CURVE SMOOTH"
);
}
);
width = 273;
}
);
rightKerningGroup = ordmasculine;
unicode = 00BA;
userData = {
KernOnSpecialSpacing = {
L = superiors;
R = superiors;
};
};
}
{
glyphname = paragraph;
layers = (
{
layerId = "6932EABA-00D8-4526-96D6-87ADD7AC589E";
paths = (
{
closed = 1;
nodes = (
"242 -151 LINE",
"242 699 LINE",
"405 699 LINE",
"405 -151 LINE",
"435 -151 LINE",
"435 699 LINE",
"508 699 LINE",
"508 729 LINE",
"212 729 LINE SMOOTH",
"99 729 OFFCURVE",
"23 678 OFFCURVE",
"23 571 CURVE SMOOTH",
"23 472 OFFCURVE",
"83 406 OFFCURVE",
"211 407 CURVE",
"211 -151 LINE"
);
}
);
width = 573;
},
{
layerId = "5CD2F84A-2568-4CD8-B351-D9C938FC152A";
paths = (
{
closed = 1;
nodes = (
"292 -151 LINE",
"292 660 LINE",
"427 660 LINE",
"427 -151 LINE",
"500 -151 LINE",
"500 660 LINE",
"570 660 LINE",
"570 729 LINE",
"217 729 LINE SMOOTH",
"97 729 OFFCURVE",
"19 672 OFFCURVE",
"19 558 CURVE SMOOTH",
"19 453 OFFCURVE",
"85 385 OFFCURVE",
"217 386 CURVE",
"217 -151 LINE"
);
}
);
width = 625;
},
{
layerId = "C27438A8-196C-4C9A-B899-94A1193B83E6";
paths = (
{
closed = 1;
nodes = (
"418 -151 LINE",
"418 566 LINE",
"483 566 LINE",
"483 -151 LINE",
"665 -151 LINE",
"665 566 LINE",
"725 566 LINE",
"725 729 LINE",
"233 729 LINE SMOOTH",
"93 729 OFFCURVE",
"10 657 OFFCURVE",
"10 527 CURVE SMOOTH",
"10 407 OFFCURVE",
"95 331 OFFCURVE",
"237 336 CURVE",
"237 -151 LINE"
);
}
);
width = 753;
},
{
layerId = "5908592F-1119-4296-AF9E-8219C1C10A44";
paths = (
{
closed = 1;
nodes = (
"244 -151 LINE",
"244 695 LINE",
"462 695 LINE",
"462 -151 LINE",
"493 -151 LINE",
"493 695 LINE",
"581 695 LINE",
"581 729 LINE",
"212 729 LINE SMOOTH",
"100 729 OFFCURVE",
"25 677 OFFCURVE",
"25 570 CURVE SMOOTH",
"25 470 OFFCURVE",
"86 404 OFFCURVE",
"212 405 CURVE",
"212 -151 LINE"
);
}
);
width = 652;
},
{
layerId = "B2A2C094-0A8E-4CD4-B0FB-CC77B76A82B9";
paths = (
{
closed = 1;
nodes = (
"454 -151 LINE",
"454 536 LINE",
"558 536 LINE",
"558 -151 LINE",
"776 -151 LINE",
"776 536 LINE",
"869 536 LINE",
"869 729 LINE",
"273 729 LINE SMOOTH",
"97 729 OFFCURVE",
"12 653 OFFCURVE",
"12 512 CURVE SMOOTH",
"12 392 OFFCURVE",
"93 312 OFFCURVE",
"235 312 CURVE",
"235 -151 LINE"
);
}
);
width = 924;
},
{
layerId = "AE48F426-5A06-4069-851E-B29A4CF5AB7C";
paths = (
{
closed = 1;
nodes = (
"303 -151 LINE",
"303 643 LINE",
"487 643 LINE",
"487 -151 LINE",
"570 -151 LINE",
"570 643 LINE",
"658 643 LINE",
"658 729 LINE",
"230 729 LINE SMOOTH",
"100 729 OFFCURVE",
"22 669 OFFCURVE",
"22 551 CURVE SMOOTH",
"22 445 OFFCURVE",
"89 374 OFFCURVE",
"219 375 CURVE",
"219 -151 LINE"
);
}
);
width = 724;
},
{
layerId = "3997DD6A-B1DD-4C8E-8076-A32381C7B82F";
paths = (
{
closed = 1;
nodes = (
"334 -151 LINE",
"464 568 LINE",
"528 568 LINE",
"398 -151 LINE",
"573 -151 LINE",
"703 568 LINE",
"762 568 LINE",
"790 729 LINE",
"315 729 LINE SMOOTH",
"180 729 OFFCURVE",
"88 657 OFFCURVE",
"64 528 CURVE SMOOTH",
"42 408 OFFCURVE",
"111 332 OFFCURVE",
"249 337 CURVE",
"161 -151 LINE"
);
}
);
width = 755;
},
{
layerId = "83818878-ED40-419E-99CD-108DAFFBE778";
paths = (
{
closed = 1;
nodes = (
"315 -151 LINE",
"315 695 LINE",
"533 695 LINE",
"533 -151 LINE",
"564 -151 LINE",
"564 695 LINE",
"652 695 LINE",
"652 729 LINE",
"283 729 LINE SMOOTH",
"171 729 OFFCURVE",
"96 677 OFFCURVE",
"96 570 CURVE SMOOTH",
"96 470 OFFCURVE",
"157 404 OFFCURVE",
"283 405 CURVE",
"283 -151 LINE"
);
}
);
width = 808.544;
},
{
layerId = "60C8C1A3-75DB-4AA2-AA92-15A0C8BC52E3";
paths = (
{
closed = 1;
nodes = (
"370.2 -151 LINE",
"370.2 643 LINE",
"554.2 643 LINE",
"554.2 -151 LINE",
"638.4 -151 LINE",
"638.4 643 LINE",
"726.4 643 LINE",
"726.4 729 LINE",
"297.2 729 LINE SMOOTH",
"167.2 729 OFFCURVE",
"89.2 669 OFFCURVE",
"89.2 551 CURVE SMOOTH",
"89.2 445 OFFCURVE",
"157.4 374 OFFCURVE",
"286.2 375 CURVE",
"286.2 -151 LINE"
);
}
);
width = 881.34;
},
{
layerId = "FFB0BD1F-7FAC-4F91-A9E1-473A5D606C71";
paths = (
{
closed = 1;
nodes = (
"519 -151 LINE",
"512 536 LINE",
"617 536 LINE",
"623 -151 LINE",
"842 -151 LINE",
"835 536 LINE",
"928 536 LINE",
"926 729 LINE",
"330 729 LINE SMOOTH",
"153 729 OFFCURVE",
"70 653 OFFCURVE",
"71 512 CURVE SMOOTH",
"71 392 OFFCURVE",
"154 311 OFFCURVE",
"295 312 CURVE",
"299 -151 LINE"
);
}
);
width = 1170.536;
},
{
layerId = "DE16639F-02D9-40F6-995B-45753FE85645";
paths = (
{
closed = 1;
nodes = (
"219 -151 LINE",
"363 663 LINE",
"495 663 LINE",
"352 -151 LINE",
"421 -151 LINE",
"564 663 LINE",
"632 663 LINE",
"643 729 LINE",
"305 729 LINE SMOOTH",
"189 729 OFFCURVE",
"103 672 OFFCURVE",
"83 559 CURVE SMOOTH",
"65 455 OFFCURVE",
"117 386 OFFCURVE",
"246 388 CURVE",
"150 -151 LINE"
);
}
);
width = 632;
},
{
layerId = "CF2D9F7C-A313-4B1D-9A0D-3EFAA90186C4";
paths = (
{
closed = 1;
nodes = (
"313 -151 LINE",
"313 699 LINE",
"476 699 LINE",
"476 -151 LINE",
"506 -151 LINE",
"506 699 LINE",
"579 699 LINE",
"579 729 LINE",
"283 729 LINE SMOOTH",
"170 729 OFFCURVE",
"94 678 OFFCURVE",
"94 571 CURVE SMOOTH",
"94 472 OFFCURVE",
"154 406 OFFCURVE",
"282 407 CURVE",
"282 -151 LINE"
);
}
);
width = 745;
}
);
rightMetricsKey = product;
unicode = 00B6;
userData = {
KernOnSpecialSpacing = {
L = NoKerning;
R = NoKerning;
};
};
}
{
glyphname = plusminus;
layers = (
{
layerId = "6932EABA-00D8-4526-96D6-87ADD7AC589E";
paths = (
{
closed = 1;
nodes = (
"265 168 LINE",
"265 347 LINE",
"443 347 LINE",
"443 375 LINE",
"265 375 LINE",
"265 554 LINE",
"235 554 LINE",
"235 375 LINE",
"57 375 LINE",
"57 347 LINE",
"235 347 LINE",
"235 168 LINE"
);
},
{
closed = 1;
nodes = (
"443 0 LINE",
"443 28 LINE",
"57 28 LINE",
"57 0 LINE"
);
}
);
width = 500;
},
{
layerId = "5CD2F84A-2568-4CD8-B351-D9C938FC152A";
paths = (
{
closed = 1;
nodes = (
"286 173 LINE",
"286 336 LINE",
"454 336 LINE",
"454 396 LINE",
"286 396 LINE",
"286 558 LINE",
"222 558 LINE",
"222 396 LINE",
"54 396 LINE",
"54 336 LINE",
"222 336 LINE",
"222 173 LINE"
);
},
{
closed = 1;
nodes = (
"454 0 LINE",
"454 59 LINE",
"54 59 LINE",
"54 0 LINE"
);
}
);
width = 508;
},
{
layerId = "C27438A8-196C-4C9A-B899-94A1193B83E6";
paths = (
{
closed = 1;
nodes = (
"330 188 LINE",
"330 307 LINE",
"474 307 LINE",
"474 450 LINE",
"330 450 LINE",
"330 569 LINE",
"180 569 LINE",
"180 450 LINE",
"35 450 LINE",
"35 307 LINE",
"180 307 LINE",
"180 188 LINE"
);
},
{
closed = 1;
nodes = (
"474 0 LINE",
"474 136 LINE",
"35 136 LINE",
"35 0 LINE"
);
}
);
width = 509;
},
{
layerId = "5908592F-1119-4296-AF9E-8219C1C10A44";
paths = (
{
closed = 1;
nodes = (
"322 171 LINE",
"322 366 LINE",
"557 366 LINE",
"557 403 LINE",
"322 403 LINE",
"322 591 LINE",
"287 591 LINE",
"287 403 LINE",
"53 403 LINE",
"53 366 LINE",
"287 366 LINE",
"287 171 LINE"
);
},
{
closed = 1;
nodes = (
"557 0 LINE",
"557 37 LINE",
"53 37 LINE",
"53 0 LINE"
);
}
);
width = 610;
},
{
layerId = "B2A2C094-0A8E-4CD4-B0FB-CC77B76A82B9";
paths = (
{
closed = 1;
nodes = (
"395 207 LINE",
"395 327 LINE",
"565 327 LINE",
"565 500 LINE",
"395 500 LINE",
"395 618 LINE",
"212 618 LINE",
"212 500 LINE",
"48 500 LINE",
"48 327 LINE",
"212 327 LINE",
"212 207 LINE"
);
},
{
closed = 1;
nodes = (
"565 0 LINE",
"565 148 LINE",
"48 148 LINE",
"48 0 LINE"
);
}
);
width = 613;
},
{
layerId = "AE48F426-5A06-4069-851E-B29A4CF5AB7C";
paths = (
{
closed = 1;
nodes = (
"352 182 LINE",
"352 352 LINE",
"566 352 LINE",
"566 433 LINE",
"352 433 LINE",
"352 599 LINE",
"276 599 LINE",
"276 433 LINE",
"63 433 LINE",
"63 352 LINE",
"276 352 LINE",
"276 182 LINE"
);
},
{
closed = 1;
nodes = (
"566 0 LINE",
"566 74 LINE",
"63 74 LINE",
"63 0 LINE"
);
}
);
width = 629;
},
{
layerId = "3997DD6A-B1DD-4C8E-8076-A32381C7B82F";
paths = (
{
closed = 1;
nodes = (
"312 188 LINE",
"338 307 LINE",
"482 307 LINE",
"512 450 LINE",
"368 450 LINE",
"393 569 LINE",
"243 569 LINE",
"218 450 LINE",
"73 450 LINE",
"43 307 LINE",
"188 307 LINE",
"162 188 LINE"
);
},
{
closed = 1;
nodes = (
"417 0 LINE",
"445 136 LINE",
"6 136 LINE",
"-22 0 LINE"
);
}
);
width = 510;
},
{
layerId = "83818878-ED40-419E-99CD-108DAFFBE778";
paths = (
{
closed = 1;
nodes = (
"304 171 LINE",
"345 366 LINE",
"580 366 LINE",
"588 403 LINE",
"353 403 LINE",
"393 591 LINE",
"358 591 LINE",
"318 403 LINE",
"84 403 LINE",
"76 366 LINE",
"310 366 LINE",
"269 171 LINE"
);
},
{
closed = 1;
nodes = (
"502 0 LINE",
"510 37 LINE",
"6 37 LINE",
"-2 0 LINE"
);
}
);
width = 610;
},
{
layerId = "60C8C1A3-75DB-4AA2-AA92-15A0C8BC52E3";
paths = (
{
closed = 1;
nodes = (
"334 182 LINE",
"371.2 352 LINE",
"586.4 352 LINE",
"602 433 LINE",
"388 433 LINE",
"424 599 LINE",
"348 599 LINE",
"312 433 LINE",
"99 433 LINE",
"83.4 352 LINE",
"295.2 352 LINE",
"259.2 182 LINE"
);
},
{
closed = 1;
nodes = (
"510.8 0 LINE",
"526.4 74 LINE",
"23.4 74 LINE",
"7.8 0 LINE"
);
}
);
width = 631.4;
},
{
layerId = "FFB0BD1F-7FAC-4F91-A9E1-473A5D606C71";
paths = (
{
closed = 1;
nodes = (
"382 207 LINE",
"407 327 LINE",
"577 327 LINE",
"613 500 LINE",
"444 500 LINE",
"469 618 LINE",
"286 618 LINE",
"261 500 LINE",
"96 500 LINE",
"60 327 LINE",
"224 327 LINE",
"199 207 LINE"
);
},
{
closed = 1;
nodes = (
"507 0 LINE",
"539 148 LINE",
"22 148 LINE",
"-10 0 LINE"
);
}
);
width = 613.72;
},
{
layerId = "DE16639F-02D9-40F6-995B-45753FE85645";
paths = (
{
closed = 1;
nodes = (
"267 173 LINE",
"302 336 LINE",
"470 336 LINE",
"483 396 LINE",
"315 396 LINE",
"349 558 LINE",
"285 558 LINE",
"251 396 LINE",
"83 396 LINE",
"70 336 LINE",
"238 336 LINE",
"203 173 LINE"
);
},
{
closed = 1;
nodes = (
"399 0 LINE",
"411 59 LINE",
"11 59 LINE",
"-1 0 LINE"
);
}
);
width = 508.388;
},
{
layerId = "CF2D9F7C-A313-4B1D-9A0D-3EFAA90186C4";
paths = (
{
closed = 1;
nodes = (
"246 168 LINE",
"284 347 LINE",
"462 347 LINE",
"468 375 LINE",
"290 375 LINE",
"328 554 LINE",
"298 554 LINE",
"260 375 LINE",
"82 375 LINE",
"76 347 LINE",
"254 347 LINE",
"216 168 LINE"
);
},
{
closed = 1;
nodes = (
"388 0 LINE",
"394 28 LINE",
"8 28 LINE",
"2 0 LINE"
);
}
);
width = 500;
}
);
leftMetricsKey = plus;
rightMetricsKey = plus;
unicode = 00B1;
userData = {
KernOnSpecialSpacing = {
L = math;
R = math;
};
};
}
{
glyphname = section;
layers = (
{
layerId = "6932EABA-00D8-4526-96D6-87ADD7AC589E";
paths = (
{
closed = 1;
nodes = (
"215 -10 OFFCURVE",
"259 35 OFFCURVE",
"259 117 CURVE SMOOTH",
"259 174 OFFCURVE",
"242 209 OFFCURVE",
"215 237 CURVE",
"237 263 OFFCURVE",
"249 298 OFFCURVE",
"249 331 CURVE SMOOTH",
"249 421 OFFCURVE",
"212 459 OFFCURVE",
"162 493 CURVE SMOOTH",
"116 524 OFFCURVE",
"76 554 OFFCURVE",
"76 623 CURVE SMOOTH",
"76 675 OFFCURVE",
"93 710 OFFCURVE",
"145 710 CURVE SMOOTH",
"204 710 OFFCURVE",
"223 663 OFFCURVE",
"225 580 CURVE",
"253 580 LINE",
"254 702 OFFCURVE",
"209 739 OFFCURVE",
"146 739 CURVE SMOOTH",
"89 739 OFFCURVE",
"47 707 OFFCURVE",
"47 624 CURVE SMOOTH",
"47 566 OFFCURVE",
"67 532 OFFCURVE",
"97 503 CURVE",
"72 479 OFFCURVE",
"57 444 OFFCURVE",
"57 410 CURVE SMOOTH",
"57 329 OFFCURVE",
"90 290 OFFCURVE",
"138 257 CURVE SMOOTH",
"187 223 OFFCURVE",
"230 192 OFFCURVE",
"230 118 CURVE SMOOTH",
"230 59 OFFCURVE",
"205 19 OFFCURVE",
"151 19 CURVE SMOOTH",
"83 19 OFFCURVE",
"61 77 OFFCURVE",
"61 160 CURVE",
"33 160 LINE",
"33 38 OFFCURVE",
"82 -10 OFFCURVE",
"151 -10 CURVE SMOOTH"
);
},
{
closed = 1;
nodes = (
"183 264 OFFCURVE",
"173 271 OFFCURVE",
"162 279 CURVE SMOOTH",
"120 308 OFFCURVE",
"86 340 OFFCURVE",
"86 409 CURVE SMOOTH",
"86 436 OFFCURVE",
"98 464 OFFCURVE",
"118 486 CURVE",
"125 481 OFFCURVE",
"131 476 OFFCURVE",
"138 471 CURVE SMOOTH",
"183 439 OFFCURVE",
"220 406 OFFCURVE",
"220 332 CURVE SMOOTH",
"220 303 OFFCURVE",
"210 276 OFFCURVE",
"194 255 CURVE"
);
}
);
width = 287;
},
{
layerId = "C27438A8-196C-4C9A-B899-94A1193B83E6";
paths = (
{
closed = 1;
nodes = (
"329 -10 OFFCURVE",
"407 56 OFFCURVE",
"407 150 CURVE SMOOTH",
"407 197 OFFCURVE",
"389 233 OFFCURVE",
"356 263 CURVE",
"394 286 OFFCURVE",
"419 333 OFFCURVE",
"419 379 CURVE SMOOTH",
"419 460 OFFCURVE",
"364 502 OFFCURVE",
"276 541 CURVE SMOOTH",
"242 556 OFFCURVE",
"206 569 OFFCURVE",
"206 602 CURVE SMOOTH",
"206 614 OFFCURVE",
"212 631 OFFCURVE",
"233 631 CURVE SMOOTH",
"256 631 OFFCURVE",
"265 618 OFFCURVE",
"268 567 CURVE",
"423 567 LINE",
"423 677 OFFCURVE",
"347 739 OFFCURVE",
"234 739 CURVE SMOOTH",
"116 739 OFFCURVE",
"38 675 OFFCURVE",
"38 578 CURVE SMOOTH",
"38 537 OFFCURVE",
"56 496 OFFCURVE",
"96 468 CURVE",
"54 442 OFFCURVE",
"31 400 OFFCURVE",
"30 358 CURVE SMOOTH",
"28 280 OFFCURVE",
"79 244 OFFCURVE",
"142 215 CURVE SMOOTH",
"199 189 OFFCURVE",
"237 179 OFFCURVE",
"237 135 CURVE SMOOTH",
"237 115 OFFCURVE",
"230 101 OFFCURVE",
"209 101 CURVE SMOOTH",
"187 101 OFFCURVE",
"173 120 OFFCURVE",
"173 168 CURVE",
"13 168 LINE",
"15 61 OFFCURVE",
"78 -10 OFFCURVE",
"203 -10 CURVE SMOOTH"
);
},
{
closed = 1;
nodes = (
"250 326 OFFCURVE",
"241 330 OFFCURVE",
"233 334 CURVE SMOOTH",
"191 354 OFFCURVE",
"178 367 OFFCURVE",
"178 389 CURVE SMOOTH",
"178 399 OFFCURVE",
"182 408 OFFCURVE",
"189 417 CURVE",
"197 412 OFFCURVE",
"204 409 OFFCURVE",
"212 405 CURVE SMOOTH",
"243 389 OFFCURVE",
"266 375 OFFCURVE",
"266 349 CURVE SMOOTH",
"266 338 OFFCURVE",
"265 330 OFFCURVE",
"258 321 CURVE"
);
}
);
width = 436;
},
{
layerId = "5908592F-1119-4296-AF9E-8219C1C10A44";
paths = (
{
closed = 1;
nodes = (
"353 -10 OFFCURVE",
"430 42 OFFCURVE",
"430 135 CURVE SMOOTH",
"430 184 OFFCURVE",
"413 216 OFFCURVE",
"384 237 CURVE",
"419 262 OFFCURVE",
"440 299 OFFCURVE",
"440 347 CURVE SMOOTH",
"440 451 OFFCURVE",
"367 478 OFFCURVE",
"265 493 CURVE SMOOTH",
"158 508 OFFCURVE",
"108 532 OFFCURVE",
"108 601 CURVE SMOOTH",
"108 664 OFFCURVE",
"161 706 OFFCURVE",
"255 706 CURVE SMOOTH",
"341 706 OFFCURVE",
"399 672 OFFCURVE",
"404 585 CURVE",
"440 585 LINE",
"437 681 OFFCURVE",
"370 739 OFFCURVE",
"254 739 CURVE SMOOTH",
"144 739 OFFCURVE",
"71 682 OFFCURVE",
"71 597 CURVE SMOOTH",
"71 549 OFFCURVE",
"89 518 OFFCURVE",
"124 496 CURVE",
"86 471 OFFCURVE",
"61 429 OFFCURVE",
"61 385 CURVE SMOOTH",
"61 293 OFFCURVE",
"122 263 OFFCURVE",
"239 246 CURVE SMOOTH",
"347 230 OFFCURVE",
"392 207 OFFCURVE",
"392 132 CURVE SMOOTH",
"392 62 OFFCURVE",
"337 23 OFFCURVE",
"238 23 CURVE SMOOTH",
"143 23 OFFCURVE",
"79 63 OFFCURVE",
"73 149 CURVE",
"36 149 LINE",
"41 53 OFFCURVE",
"113 -10 OFFCURVE",
"237 -10 CURVE SMOOTH"
);
},
{
closed = 1;
nodes = (
"326 267 OFFCURVE",
"288 275 OFFCURVE",
"245 281 CURVE SMOOTH",
"145 295 OFFCURVE",
"98 320 OFFCURVE",
"98 389 CURVE SMOOTH",
"98 426 OFFCURVE",
"120 458 OFFCURVE",
"156 482 CURVE",
"183 471 OFFCURVE",
"218 464 OFFCURVE",
"259 458 CURVE SMOOTH",
"360 443 OFFCURVE",
"402 419 OFFCURVE",
"402 344 CURVE SMOOTH",
"402 306 OFFCURVE",
"386 278 OFFCURVE",
"356 253 CURVE"
);
}
);
width = 476;
},
{
layerId = "B2A2C094-0A8E-4CD4-B0FB-CC77B76A82B9";
paths = (
{
closed = 1;
nodes = (
"420 -10 OFFCURVE",
"521 56 OFFCURVE",
"521 165 CURVE SMOOTH",
"521 207 OFFCURVE",
"505 244 OFFCURVE",
"473 276 CURVE",
"507 297 OFFCURVE",
"530 333 OFFCURVE",
"530 373 CURVE SMOOTH",
"530 465 OFFCURVE",
"474 503 OFFCURVE",
"343 529 CURVE SMOOTH",
"276 542 OFFCURVE",
"242 550 OFFCURVE",
"242 576 CURVE SMOOTH",
"242 599 OFFCURVE",
"261 607 OFFCURVE",
"289 607 CURVE SMOOTH",
"321 607 OFFCURVE",
"340 594 OFFCURVE",
"341 568 CURVE",
"529 568 LINE",
"519 670 OFFCURVE",
"430 739 OFFCURVE",
"295 739 CURVE SMOOTH",
"149 739 OFFCURVE",
"51 670 OFFCURVE",
"51 565 CURVE SMOOTH",
"51 521 OFFCURVE",
"65 485 OFFCURVE",
"103 457 CURVE",
"63 429 OFFCURVE",
"42 392 OFFCURVE",
"42 348 CURVE SMOOTH",
"42 254 OFFCURVE",
"118 225 OFFCURVE",
"223 202 CURVE SMOOTH",
"308 184 OFFCURVE",
"327 177 OFFCURVE",
"327 152 CURVE SMOOTH",
"327 131 OFFCURVE",
"310 122 OFFCURVE",
"273 122 CURVE SMOOTH",
"236 122 OFFCURVE",
"210 136 OFFCURVE",
"207 171 CURVE",
"19 171 LINE",
"21 63 OFFCURVE",
"117 -10 OFFCURVE",
"268 -10 CURVE SMOOTH"
);
},
{
closed = 1;
nodes = (
"311 338 OFFCURVE",
"289 343 OFFCURVE",
"267 348 CURVE SMOOTH",
"232 357 OFFCURVE",
"220 367 OFFCURVE",
"220 385 CURVE SMOOTH",
"220 391 OFFCURVE",
"222 399 OFFCURVE",
"226 407 CURVE",
"245 401 OFFCURVE",
"264 396 OFFCURVE",
"282 391 CURVE SMOOTH",
"319 382 OFFCURVE",
"338 373 OFFCURVE",
"338 350 CURVE SMOOTH",
"338 342 OFFCURVE",
"337 336 OFFCURVE",
"333 330 CURVE"
);
}
);
width = 549;
},
{
layerId = "5CD2F84A-2568-4CD8-B351-D9C938FC152A";
paths = (
{
closed = 1;
nodes = (
"248 -10 OFFCURVE",
"301 41 OFFCURVE",
"301 126 CURVE SMOOTH",
"301 181 OFFCURVE",
"284 216 OFFCURVE",
"255 244 CURVE",
"282 270 OFFCURVE",
"298 308 OFFCURVE",
"298 345 CURVE SMOOTH",
"298 432 OFFCURVE",
"255 471 OFFCURVE",
"195 507 CURVE SMOOTH",
"152 533 OFFCURVE",
"113 558 OFFCURVE",
"113 617 CURVE SMOOTH",
"113 658 OFFCURVE",
"127 687 OFFCURVE",
"170 687 CURVE SMOOTH",
"219 687 OFFCURVE",
"235 650 OFFCURVE",
"237 576 CURVE",
"302 576 LINE",
"302 695 OFFCURVE",
"248 739 OFFCURVE",
"171 739 CURVE SMOOTH",
"97 739 OFFCURVE",
"44 698 OFFCURVE",
"44 611 CURVE SMOOTH",
"44 558 OFFCURVE",
"64 522 OFFCURVE",
"97 493 CURVE",
"67 468 OFFCURVE",
"50 431 OFFCURVE",
"49 395 CURVE SMOOTH",
"49 315 OFFCURVE",
"87 277 OFFCURVE",
"139 245 CURVE SMOOTH",
"190 213 OFFCURVE",
"232 188 OFFCURVE",
"232 123 CURVE SMOOTH",
"232 75 OFFCURVE",
"212 42 OFFCURVE",
"168 42 CURVE SMOOTH",
"113 42 OFFCURVE",
"93 89 OFFCURVE",
"93 162 CURVE",
"27 162 LINE",
"28 45 OFFCURVE",
"81 -10 OFFCURVE",
"166 -10 CURVE SMOOTH"
);
},
{
closed = 1;
nodes = (
"202 282 OFFCURVE",
"192 288 OFFCURVE",
"182 295 CURVE SMOOTH",
"140 321 OFFCURVE",
"112 348 OFFCURVE",
"112 403 CURVE SMOOTH",
"112 425 OFFCURVE",
"122 448 OFFCURVE",
"138 466 CURVE",
"146 461 OFFCURVE",
"152 457 OFFCURVE",
"159 452 CURVE SMOOTH",
"200 425 OFFCURVE",
"233 397 OFFCURVE",
"233 337 CURVE SMOOTH",
"233 313 OFFCURVE",
"226 291 OFFCURVE",
"212 274 CURVE"
);
}
);
width = 326;
},
{
layerId = "AE48F426-5A06-4069-851E-B29A4CF5AB7C";
paths = (
{
closed = 1;
nodes = (
"369 -10 OFFCURVE",
"451 45 OFFCURVE",
"451 143 CURVE SMOOTH",
"451 190 OFFCURVE",
"435 223 OFFCURVE",
"405 246 CURVE",
"440 271 OFFCURVE",
"461 308 OFFCURVE",
"461 353 CURVE SMOOTH",
"461 454 OFFCURVE",
"393 484 OFFCURVE",
"284 502 CURVE SMOOTH",
"186 517 OFFCURVE",
"140 536 OFFCURVE",
"140 595 CURVE SMOOTH",
"140 648 OFFCURVE",
"185 682 OFFCURVE",
"263 682 CURVE SMOOTH",
"336 682 OFFCURVE",
"385 653 OFFCURVE",
"388 581 CURVE",
"461 581 LINE",
"457 678 OFFCURVE",
"384 739 OFFCURVE",
"263 739 CURVE SMOOTH",
"145 739 OFFCURVE",
"66 679 OFFCURVE",
"66 589 CURVE SMOOTH",
"66 542 OFFCURVE",
"83 510 OFFCURVE",
"118 487 CURVE",
"80 461 OFFCURVE",
"56 420 OFFCURVE",
"56 376 CURVE SMOOTH",
"56 284 OFFCURVE",
"120 254 OFFCURVE",
"235 235 CURVE SMOOTH",
"337 219 OFFCURVE",
"376 199 OFFCURVE",
"376 137 CURVE SMOOTH",
"376 79 OFFCURVE",
"330 47 OFFCURVE",
"246 47 CURVE SMOOTH",
"165 47 OFFCURVE",
"110 81 OFFCURVE",
"105 154 CURVE",
"32 154 LINE",
"36 56 OFFCURVE",
"114 -10 OFFCURVE",
"244 -10 CURVE SMOOTH"
);
},
{
closed = 1;
nodes = (
"322 284 OFFCURVE",
"288 291 OFFCURVE",
"250 297 CURVE SMOOTH",
"165 310 OFFCURVE",
"127 331 OFFCURVE",
"127 388 CURVE SMOOTH",
"127 418 OFFCURVE",
"145 444 OFFCURVE",
"172 464 CURVE",
"197 454 OFFCURVE",
"229 448 OFFCURVE",
"264 442 CURVE SMOOTH",
"350 429 OFFCURVE",
"386 408 OFFCURVE",
"386 346 CURVE SMOOTH",
"386 315 OFFCURVE",
"373 292 OFFCURVE",
"350 272 CURVE"
);
}
);
width = 493;
},
{
layerId = "3997DD6A-B1DD-4C8E-8076-A32381C7B82F";
paths = (
{
closed = 1;
nodes = (
"291 -10 OFFCURVE",
"381 60 OFFCURVE",
"381 165 CURVE SMOOTH",
"381 208 OFFCURVE",
"374 229 OFFCURVE",
"359 248 CURVE",
"403 274 OFFCURVE",
"428 314 OFFCURVE",
"428 372 CURVE SMOOTH",
"428 457 OFFCURVE",
"375 491 OFFCURVE",
"321 522 CURVE SMOOTH",
"276 548 OFFCURVE",
"258 561 OFFCURVE",
"258 588 CURVE SMOOTH",
"258 611 OFFCURVE",
"268 630 OFFCURVE",
"291 630 CURVE SMOOTH",
"320 630 OFFCURVE",
"323 609 OFFCURVE",
"316 565 CURVE",
"466 565 LINE",
"479 683 OFFCURVE",
"408 739 OFFCURVE",
"285 739 CURVE SMOOTH",
"178 739 OFFCURVE",
"100 672 OFFCURVE",
"100 585 CURVE SMOOTH",
"100 548 OFFCURVE",
"112 513 OFFCURVE",
"135 493 CURVE",
"78 469 OFFCURVE",
"44 418 OFFCURVE",
"44 367 CURVE SMOOTH",
"44 299 OFFCURVE",
"85 255 OFFCURVE",
"137 222 CURVE SMOOTH",
"177 197 OFFCURVE",
"204 187 OFFCURVE",
"204 150 CURVE SMOOTH",
"204 123 OFFCURVE",
"199 102 OFFCURVE",
"172 102 CURVE SMOOTH",
"141 102 OFFCURVE",
"140 134 OFFCURVE",
"148 169 CURVE",
"-9 169 LINE",
"-21 46 OFFCURVE",
"47 -10 OFFCURVE",
"173 -10 CURVE SMOOTH"
);
},
{
closed = 1;
nodes = (
"252 326 OFFCURVE",
"244 330 OFFCURVE",
"237 334 CURVE SMOOTH",
"204 351 OFFCURVE",
"192 364 OFFCURVE",
"192 383 CURVE SMOOTH",
"192 396 OFFCURVE",
"199 407 OFFCURVE",
"210 417 CURVE",
"217 412 OFFCURVE",
"223 409 OFFCURVE",
"230 405 CURVE SMOOTH",
"258 389 OFFCURVE",
"278 375 OFFCURVE",
"273 349 CURVE SMOOTH",
"271 338 OFFCURVE",
"268 330 OFFCURVE",
"259 321 CURVE"
);
}
);
width = 423.684;
},
{
layerId = "83818878-ED40-419E-99CD-108DAFFBE778";
paths = (
{
closed = 1;
nodes = (
"328 -10 OFFCURVE",
"407 48 OFFCURVE",
"407 152 CURVE SMOOTH",
"407 183 OFFCURVE",
"396 207 OFFCURVE",
"377 225 CURVE",
"429 253 OFFCURVE",
"458 297 OFFCURVE",
"458 353 CURVE SMOOTH",
"458 437 OFFCURVE",
"395 469 OFFCURVE",
"308 490 CURVE SMOOTH",
"220 511 OFFCURVE",
"173 535 OFFCURVE",
"173 589 CURVE SMOOTH",
"173 658 OFFCURVE",
"227 704 OFFCURVE",
"317 704 CURVE SMOOTH",
"411 704 OFFCURVE",
"470 658 OFFCURVE",
"465 583 CURVE",
"502 583 LINE",
"505 675 OFFCURVE",
"433 737 OFFCURVE",
"320 737 CURVE SMOOTH",
"220 737 OFFCURVE",
"135 684 OFFCURVE",
"135 586 CURVE SMOOTH",
"135 551 OFFCURVE",
"146 526 OFFCURVE",
"171 505 CURVE",
"119 479 OFFCURVE",
"84 429 OFFCURVE",
"84 377 CURVE SMOOTH",
"84 303 OFFCURVE",
"137 270 OFFCURVE",
"236 246 CURVE SMOOTH",
"326 224 OFFCURVE",
"368 201 OFFCURVE",
"368 147 CURVE SMOOTH",
"368 67 OFFCURVE",
"312 23 OFFCURVE",
"212 23 CURVE SMOOTH",
"108 23 OFFCURVE",
"44 74 OFFCURVE",
"50 161 CURVE",
"15 161 LINE",
"9 58 OFFCURVE",
"78 -10 OFFCURVE",
"210 -10 CURVE SMOOTH"
);
},
{
closed = 1;
nodes = (
"324 261 OFFCURVE",
"287 272 OFFCURVE",
"248 281 CURVE SMOOTH",
"164 300 OFFCURVE",
"122 325 OFFCURVE",
"122 378 CURVE SMOOTH",
"122 428 OFFCURVE",
"153 464 OFFCURVE",
"200 489 CURVE",
"223 475 OFFCURVE",
"254 466 OFFCURVE",
"296 456 CURVE SMOOTH",
"381 435 OFFCURVE",
"419 408 OFFCURVE",
"419 348 CURVE SMOOTH",
"419 301 OFFCURVE",
"395 268 OFFCURVE",
"353 243 CURVE"
);
}
);
width = 477;
},
{
layerId = "60C8C1A3-75DB-4AA2-AA92-15A0C8BC52E3";
paths = (
{
closed = 1;
nodes = (
"342.54 -10 OFFCURVE",
"428.14 49.8 OFFCURVE",
"428.14 156.2 CURVE SMOOTH",
"428.14 187.6 OFFCURVE",
"418.14 213.4 OFFCURVE",
"398.94 232.8 CURVE",
"450.74 259 OFFCURVE",
"478.94 303.2 OFFCURVE",
"478.94 357.8 CURVE SMOOTH",
"478.94 439.6 OFFCURVE",
"418.14 473.2 OFFCURVE",
"327.14 497.2 CURVE SMOOTH",
"245.94 518.2 OFFCURVE",
"202.34 539.6 OFFCURVE",
"202.34 584.2 CURVE SMOOTH",
"202.34 643.2 OFFCURVE",
"248.54 680.8 OFFCURVE",
"320.54 680.8 CURVE SMOOTH",
"400.74 680.8 OFFCURVE",
"453.34 642.2 OFFCURVE",
"446.74 577.4 CURVE",
"520.94 577.4 LINE",
"522.94 674.4 OFFCURVE",
"442.74 736.6 OFFCURVE",
"324.14 736.6 CURVE SMOOTH",
"216.94 736.6 OFFCURVE",
"127.14 681.4 OFFCURVE",
"127.14 578.2 CURVE SMOOTH",
"127.14 545.6 OFFCURVE",
"138.14 519.6 OFFCURVE",
"162.34 497.8 CURVE",
"109.94 471.8 OFFCURVE",
"76.34 422.4 OFFCURVE",
"76.34 371.2 CURVE SMOOTH",
"76.34 294.8 OFFCURVE",
"133.14 262.4 OFFCURVE",
"227.74 236.2 CURVE SMOOTH",
"315.34 214.2 OFFCURVE",
"351.94 195.4 OFFCURVE",
"351.94 149 CURVE SMOOTH",
"351.94 82.6 OFFCURVE",
"304.74 47 OFFCURVE",
"221.94 47 CURVE SMOOTH",
"133.74 47 OFFCURVE",
"77.54 90.6 OFFCURVE",
"82.14 164.8 CURVE",
"10.34 164.8 LINE",
"4.74 57.2 OFFCURVE",
"87.54 -10 OFFCURVE",
"222.34 -10 CURVE SMOOTH"
);
},
{
closed = 1;
nodes = (
"323.14 279.2 OFFCURVE",
"289.14 289.8 OFFCURVE",
"255.94 297 CURVE SMOOTH",
"184.14 314.8 OFFCURVE",
"148.54 335.8 OFFCURVE",
"149.74 382 CURVE SMOOTH",
"149.74 420.4 OFFCURVE",
"174.94 450 OFFCURVE",
"211.54 470 CURVE",
"232.94 457.6 OFFCURVE",
"261.34 449.2 OFFCURVE",
"296.34 439.6 CURVE SMOOTH",
"370.34 420.6 OFFCURVE",
"402.74 397.2 OFFCURVE",
"401.54 347.2 CURVE SMOOTH",
"401.54 309 OFFCURVE",
"382.54 283.6 OFFCURVE",
"349.94 262.4 CURVE"
);
}
);
width = 494.14;
},
{
layerId = "FFB0BD1F-7FAC-4F91-A9E1-473A5D606C71";
paths = (
{
closed = 1;
nodes = (
"390 -10 OFFCURVE",
"498 54 OFFCURVE",
"498 168 CURVE SMOOTH",
"498 199 OFFCURVE",
"488 231 OFFCURVE",
"469 256 CURVE",
"519 278 OFFCURVE",
"547 322 OFFCURVE",
"547 372 CURVE SMOOTH",
"547 446 OFFCURVE",
"496 486 OFFCURVE",
"389 521 CURVE SMOOTH",
"330 540 OFFCURVE",
"298 552 OFFCURVE",
"298 573 CURVE SMOOTH",
"298 596 OFFCURVE",
"315 605 OFFCURVE",
"338 605 CURVE SMOOTH",
"370 605 OFFCURVE",
"401 594 OFFCURVE",
"395 558 CURVE",
"581 558 LINE",
"581 672 OFFCURVE",
"475 737 OFFCURVE",
"338 737 CURVE SMOOTH",
"210 737 OFFCURVE",
"105 672 OFFCURVE",
"105 556 CURVE SMOOTH",
"105 526 OFFCURVE",
"115 498 OFFCURVE",
"139 474 CURVE",
"86 448 OFFCURVE",
"55 401 OFFCURVE",
"55 351 CURVE SMOOTH",
"55 271 OFFCURVE",
"120 237 OFFCURVE",
"208 208 CURVE SMOOTH",
"283 182 OFFCURVE",
"302 175 OFFCURVE",
"302 155 CURVE SMOOTH",
"302 131 OFFCURVE",
"284 122 OFFCURVE",
"257 122 CURVE SMOOTH",
"216 122 OFFCURVE",
"184 139 OFFCURVE",
"186 175 CURVE",
"-2 175 LINE",
"-6 54 OFFCURVE",
"117 -10 OFFCURVE",
"262 -10 CURVE SMOOTH"
);
},
{
closed = 1;
nodes = (
"321 334 OFFCURVE",
"295 344 OFFCURVE",
"280 349 CURVE SMOOTH",
"246 361 OFFCURVE",
"237 372 OFFCURVE",
"240 391 CURVE SMOOTH",
"241 397 OFFCURVE",
"245 404 OFFCURVE",
"251 412 CURVE",
"268 404 OFFCURVE",
"288 396 OFFCURVE",
"303 390 CURVE SMOOTH",
"340 376 OFFCURVE",
"354 364 OFFCURVE",
"350 345 CURVE SMOOTH",
"348 337 OFFCURVE",
"348 332 OFFCURVE",
"341 324 CURVE"
);
}
);
width = 548;
},
{
layerId = "DE16639F-02D9-40F6-995B-45753FE85645";
paths = (
{
closed = 1;
nodes = (
"207 -10 OFFCURVE",
"270 45 OFFCURVE",
"273 149 CURVE SMOOTH",
"274 185 OFFCURVE",
"268 208 OFFCURVE",
"253 230 CURVE",
"294 260 OFFCURVE",
"320 300 OFFCURVE",
"322 362 CURVE SMOOTH",
"324 430 OFFCURVE",
"293 460 OFFCURVE",
"244 503 CURVE SMOOTH",
"211 530 OFFCURVE",
"182 558 OFFCURVE",
"184 602 CURVE SMOOTH",
"185 656 OFFCURVE",
"211 689 OFFCURVE",
"252 689 CURVE SMOOTH",
"294 689 OFFCURVE",
"315 665 OFFCURVE",
"301 577 CURVE",
"363 577 LINE",
"381 683 OFFCURVE",
"338 740 OFFCURVE",
"254 741 CURVE SMOOTH",
"175 743 OFFCURVE",
"120 684 OFFCURVE",
"118 600 CURVE SMOOTH",
"117 566 OFFCURVE",
"126 535 OFFCURVE",
"148 509 CURVE",
"99 483 OFFCURVE",
"68 439 OFFCURVE",
"66 383 CURVE SMOOTH",
"65 330 OFFCURVE",
"91 288 OFFCURVE",
"139 248 CURVE SMOOTH",
"184 210 OFFCURVE",
"203 186 OFFCURVE",
"202 142 CURVE SMOOTH",
"200 79 OFFCURVE",
"174 42 OFFCURVE",
"127 42 CURVE SMOOTH",
"74 42 OFFCURVE",
"56 84 OFFCURVE",
"70 163 CURVE",
"6 163 LINE",
"-12 55 OFFCURVE",
"31 -10 OFFCURVE",
"125 -10 CURVE SMOOTH"
);
},
{
closed = 1;
nodes = (
"206 275 OFFCURVE",
"195 284 OFFCURVE",
"184 295 CURVE SMOOTH",
"155 320 OFFCURVE",
"128 348 OFFCURVE",
"129 389 CURVE SMOOTH",
"131 427 OFFCURVE",
"150 453 OFFCURVE",
"181 473 CURVE",
"187 466 OFFCURVE",
"194 460 OFFCURVE",
"201 454 CURVE SMOOTH",
"243 419 OFFCURVE",
"260 394 OFFCURVE",
"257 353 CURVE SMOOTH",
"255 315 OFFCURVE",
"240 289 OFFCURVE",
"214 266 CURVE"
);
}
);
width = 328;
},
{
layerId = "CF2D9F7C-A313-4B1D-9A0D-3EFAA90186C4";
paths = (
{
closed = 1;
nodes = (
"173 -10 OFFCURVE",
"226 39 OFFCURVE",
"230 142 CURVE SMOOTH",
"231 176 OFFCURVE",
"225 200 OFFCURVE",
"211 223 CURVE",
"251 254 OFFCURVE",
"277 294 OFFCURVE",
"280 358 CURVE SMOOTH",
"282 419 OFFCURVE",
"260 448 OFFCURVE",
"213 495 CURVE SMOOTH",
"185 523 OFFCURVE",
"152 557 OFFCURVE",
"154 608 CURVE SMOOTH",
"156 674 OFFCURVE",
"188 713 OFFCURVE",
"236 713 CURVE SMOOTH",
"283 713 OFFCURVE",
"312 688 OFFCURVE",
"295 582 CURVE",
"322 582 LINE",
"342 683 OFFCURVE",
"310 740 OFFCURVE",
"241 742 CURVE SMOOTH",
"174 744 OFFCURVE",
"128 689 OFFCURVE",
"125 606 CURVE SMOOTH",
"124 573 OFFCURVE",
"132 544 OFFCURVE",
"153 515 CURVE",
"107 488 OFFCURVE",
"78 447 OFFCURVE",
"75 390 CURVE SMOOTH",
"73 342 OFFCURVE",
"93 301 OFFCURVE",
"140 258 CURVE SMOOTH",
"187 215 OFFCURVE",
"203 185 OFFCURVE",
"201 139 CURVE SMOOTH",
"198 62 OFFCURVE",
"164 18 OFFCURVE",
"109 18 CURVE SMOOTH",
"47 18 OFFCURVE",
"22 64 OFFCURVE",
"39 161 CURVE",
"12 161 LINE",
"-8 58 OFFCURVE",
"25 -10 OFFCURVE",
"106 -10 CURVE SMOOTH"
);
},
{
closed = 1;
nodes = (
"187 255 OFFCURVE",
"176 266 OFFCURVE",
"163 279 CURVE SMOOTH",
"135 307 OFFCURVE",
"102 341 OFFCURVE",
"104 392 CURVE SMOOTH",
"106 440 OFFCURVE",
"130 472 OFFCURVE",
"169 496 CURVE",
"175 488 OFFCURVE",
"182 481 OFFCURVE",
"190 474 CURVE SMOOTH",
"237 431 OFFCURVE",
"253 401 OFFCURVE",
"251 355 CURVE SMOOTH",
"248 306 OFFCURVE",
"229 272 OFFCURVE",
"196 244 CURVE"
);
}
);
width = 289.872;
}
);
leftMetricsKey = S;
rightMetricsKey = S;
unicode = 00A7;
userData = {
KernOnSpecialSpacing = {
R = symbols;
};
};
}
{
glyphname = sterling;
layers = (
{
layerId = "6932EABA-00D8-4526-96D6-87ADD7AC589E";
paths = (
{
closed = 1;
nodes = (
"390 0 LINE",
"390 177 LINE",
"359 177 LINE",
"359 29 LINE",
"111 29 LINE",
"111 350 LINE",
"288 350 LINE",
"288 379 LINE",
"111 379 LINE",
"111 539 LINE SMOOTH",
"111 639 OFFCURVE",
"146 706 OFFCURVE",
"233 706 CURVE SMOOTH",
"310 706 OFFCURVE",
"361 658 OFFCURVE",
"361 539 CURVE SMOOTH",
"361 509 LINE",
"393 509 LINE",
"393 539 LINE SMOOTH",
"393 657 OFFCURVE",
"342 736 OFFCURVE",
"233 736 CURVE SMOOTH",
"141 736 OFFCURVE",
"79 674 OFFCURVE",
"79 539 CURVE SMOOTH",
"79 379 LINE",
"12 372 LINE",
"12 350 LINE",
"79 350 LINE",
"79 29 LINE",
"12 29 LINE",
"12 0 LINE"
);
}
);
width = 421;
},
{
layerId = "5CD2F84A-2568-4CD8-B351-D9C938FC152A";
paths = (
{
closed = 1;
nodes = (
"428 0 LINE",
"428 188 LINE",
"361 188 LINE",
"361 64 LINE",
"149 64 LINE",
"149 333 LINE",
"313 333 LINE",
"313 391 LINE",
"149 391 LINE",
"149 529 LINE SMOOTH",
"149 614 OFFCURVE",
"179 670 OFFCURVE",
"252 670 CURVE SMOOTH",
"318 670 OFFCURVE",
"360 628 OFFCURVE",
"360 529 CURVE SMOOTH",
"360 504 LINE",
"433 504 LINE",
"433 532 LINE SMOOTH",
"433 660 OFFCURVE",
"368 737 OFFCURVE",
"251 737 CURVE SMOOTH",
"145 737 OFFCURVE",
"74 672 OFFCURVE",
"74 532 CURVE SMOOTH",
"74 391 LINE",
"11 381 LINE",
"11 333 LINE",
"74 333 LINE",
"74 64 LINE",
"11 64 LINE",
"11 0 LINE"
);
}
);
width = 457;
},
{
layerId = "C27438A8-196C-4C9A-B899-94A1193B83E6";
paths = (
{
closed = 1;
nodes = (
"522 0 LINE",
"522 216 LINE",
"369 216 LINE",
"369 152 LINE",
"245 152 LINE",
"245 290 LINE",
"376 290 LINE",
"376 422 LINE",
"245 422 LINE",
"245 505 LINE SMOOTH",
"245 553 OFFCURVE",
"263 580 OFFCURVE",
"300 580 CURVE SMOOTH",
"341 580 OFFCURVE",
"360 555 OFFCURVE",
"360 504 CURVE SMOOTH",
"360 489 LINE",
"531 489 LINE",
"531 514 LINE SMOOTH",
"531 670 OFFCURVE",
"434 738 OFFCURVE",
"296 738 CURVE SMOOTH",
"155 738 OFFCURVE",
"63 668 OFFCURVE",
"63 516 CURVE SMOOTH",
"63 422 LINE",
"9 392 LINE",
"9 290 LINE",
"63 290 LINE",
"63 152 LINE",
"9 152 LINE",
"9 0 LINE"
);
}
);
width = 544;
},
{
layerId = "5908592F-1119-4296-AF9E-8219C1C10A44";
paths = (
{
closed = 1;
nodes = (
"619 0 LINE",
"619 180 LINE",
"582 180 LINE",
"582 40 LINE",
"154 40 LINE",
"154 341 LINE",
"439 341 LINE",
"439 378 LINE",
"154 378 LINE",
"154 504 LINE SMOOTH",
"154 622 OFFCURVE",
"215 698 OFFCURVE",
"361 698 CURVE SMOOTH",
"485 698 OFFCURVE",
"567 637 OFFCURVE",
"567 516 CURVE SMOOTH",
"567 500 LINE",
"604 500 LINE",
"604 518 LINE SMOOTH",
"604 652 OFFCURVE",
"514 736 OFFCURVE",
"362 736 CURVE SMOOTH",
"214 736 OFFCURVE",
"116 660 OFFCURVE",
"116 505 CURVE SMOOTH",
"116 378 LINE",
"13 368 LINE",
"13 341 LINE",
"116 341 LINE",
"116 40 LINE",
"13 40 LINE",
"13 0 LINE"
);
}
);
width = 655;
},
{
layerId = "B2A2C094-0A8E-4CD4-B0FB-CC77B76A82B9";
paths = (
{
closed = 1;
nodes = (
"734 0 LINE",
"734 226 LINE",
"557 226 LINE",
"557 180 LINE",
"343 180 LINE",
"343 276 LINE",
"515 276 LINE",
"515 432 LINE",
"343 432 LINE",
"343 481 LINE SMOOTH",
"343 526 OFFCURVE",
"373 551 OFFCURVE",
"421 551 CURVE SMOOTH",
"466 551 OFFCURVE",
"500 530 OFFCURVE",
"500 486 CURVE SMOOTH",
"500 477 LINE",
"716 477 LINE",
"716 497 LINE SMOOTH",
"716 640 OFFCURVE",
"607 738 OFFCURVE",
"411 738 CURVE SMOOTH",
"235 738 OFFCURVE",
"109 652 OFFCURVE",
"109 481 CURVE SMOOTH",
"109 432 LINE",
"19 393 LINE",
"19 276 LINE",
"109 276 LINE",
"109 180 LINE",
"19 180 LINE",
"19 0 LINE"
);
}
);
width = 753;
},
{
layerId = "AE48F426-5A06-4069-851E-B29A4CF5AB7C";
paths = (
{
closed = 1;
nodes = (
"644 0 LINE",
"644 194 LINE",
"568 194 LINE",
"568 85 LINE",
"205 85 LINE",
"205 321 LINE",
"455 321 LINE",
"455 396 LINE",
"205 396 LINE",
"205 496 LINE SMOOTH",
"205 591 OFFCURVE",
"258 651 OFFCURVE",
"373 651 CURVE SMOOTH",
"474 651 OFFCURVE",
"542 603 OFFCURVE",
"542 508 CURVE SMOOTH",
"542 492 LINE",
"629 492 LINE",
"629 511 LINE SMOOTH",
"629 648 OFFCURVE",
"534 737 OFFCURVE",
"372 737 CURVE SMOOTH",
"217 737 OFFCURVE",
"113 657 OFFCURVE",
"113 497 CURVE SMOOTH",
"113 396 LINE",
"15 377 LINE",
"15 321 LINE",
"113 321 LINE",
"113 85 LINE",
"15 85 LINE",
"15 0 LINE"
);
}
);
width = 676;
},
{
layerId = "3997DD6A-B1DD-4C8E-8076-A32381C7B82F";
paths = (
{
closed = 1;
nodes = (
"465 0 LINE",
"510 216 LINE",
"357 216 LINE",
"344 152 LINE",
"223 152 LINE",
"252 290 LINE",
"380 290 LINE",
"408 422 LINE",
"279 422 LINE",
"300 521 LINE SMOOTH",
"311 572 OFFCURVE",
"332 588 OFFCURVE",
"359 588 CURVE SMOOTH",
"413 588 OFFCURVE",
"407 531 OFFCURVE",
"394 483 CURVE SMOOTH",
"389 464 LINE",
"563 464 LINE",
"567 483 LINE SMOOTH",
"599 636 OFFCURVE",
"531 738 OFFCURVE",
"372 738 CURVE SMOOTH",
"249 738 OFFCURVE",
"155 677 OFFCURVE",
"120 518 CURVE SMOOTH",
"99 422 LINE",
"37 405 LINE",
"13 290 LINE",
"71 290 LINE",
"41 152 LINE",
"-16 152 LINE",
"-48 0 LINE"
);
}
);
width = 535.734;
},
{
layerId = "83818878-ED40-419E-99CD-108DAFFBE778";
paths = (
{
closed = 1;
nodes = (
"535 0 LINE",
"573 180 LINE",
"534 180 LINE",
"504 36 LINE",
"87 36 LINE",
"151 341 LINE",
"457 341 LINE",
"465 378 LINE",
"159 378 LINE",
"187 511 LINE SMOOTH",
"212 632 OFFCURVE",
"270 701 OFFCURVE",
"416 700 CURVE SMOOTH",
"536 699 OFFCURVE",
"609 634 OFFCURVE",
"598 520 CURVE SMOOTH",
"596 500 LINE",
"635 500 LINE",
"637 521 LINE SMOOTH",
"649 650 OFFCURVE",
"559 736 OFFCURVE",
"411 736 CURVE SMOOTH",
"277 736 OFFCURVE",
"183 673 OFFCURVE",
"152 528 CURVE SMOOTH",
"120 378 LINE",
"37 370 LINE",
"31 341 LINE",
"113 341 LINE",
"48 36 LINE",
"-33 36 LINE",
"-41 0 LINE"
);
}
);
width = 626;
},
{
layerId = "60C8C1A3-75DB-4AA2-AA92-15A0C8BC52E3";
paths = (
{
closed = 1;
nodes = (
"574.4 0 LINE",
"615.2 192.8 LINE",
"534.4 192.8 LINE",
"510.4 82.6 LINE",
"154.6 82.6 LINE",
"203.8 321 LINE",
"475.4 321 LINE",
"489.8 396 LINE",
"219.4 396 LINE",
"242.2 505.6 LINE SMOOTH",
"262.6 603 OFFCURVE",
"312 660.6 OFFCURVE",
"430.6 659.4 CURVE SMOOTH",
"532.8 658.2 OFFCURVE",
"594.8 604.2 OFFCURVE",
"584 508 CURVE SMOOTH",
"581.6 490.8 LINE",
"669.8 490.8 LINE",
"672.2 511 LINE SMOOTH",
"685.4 649.2 OFFCURVE",
"580.8 737 OFFCURVE",
"426 737 CURVE SMOOTH",
"286.6 737 OFFCURVE",
"185 671.4 OFFCURVE",
"153.8 524.6 CURVE SMOOTH",
"126.2 396 LINE",
"40.2 378.2 LINE",
"30.6 321 LINE",
"110.6 321 LINE",
"60.2 82.6 LINE",
"-21 82.6 LINE",
"-39 0 LINE"
);
}
);
width = 662;
},
{
layerId = "FFB0BD1F-7FAC-4F91-A9E1-473A5D606C71";
paths = (
{
closed = 1;
nodes = (
"675 0 LINE",
"722 225 LINE",
"544 225 LINE",
"535 180 LINE",
"318 180 LINE",
"338 276 LINE",
"517 276 LINE",
"550 432 LINE",
"371 432 LINE",
"383 489 LINE SMOOTH",
"390 527 OFFCURVE",
"418 552 OFFCURVE",
"466 552 CURVE SMOOTH",
"516 552 OFFCURVE",
"545 525 OFFCURVE",
"539 476 CURVE SMOOTH",
"538 467 LINE",
"755 467 LINE",
"756 486 LINE SMOOTH",
"765 639 OFFCURVE",
"649 740 OFFCURVE",
"469 740 CURVE SMOOTH",
"314 740 OFFCURVE",
"187 674 OFFCURVE",
"152 514 CURVE SMOOTH",
"135 432 LINE",
"48 408 LINE",
"20 276 LINE",
"102 276 LINE",
"82 180 LINE",
"0 180 LINE",
"-38 0 LINE"
);
}
);
width = 752;
},
{
layerId = "DE16639F-02D9-40F6-995B-45753FE85645";
paths = (
{
closed = 1;
nodes = (
"369 0 LINE",
"409 187 LINE",
"347 187 LINE",
"320 61 LINE",
"106 61 LINE",
"164 335 LINE",
"328 335 LINE",
"340 390 LINE",
"175 390 LINE",
"206 536 LINE SMOOTH",
"226 630 OFFCURVE",
"262 676 OFFCURVE",
"328 676 CURVE SMOOTH",
"425 676 OFFCURVE",
"420 595 OFFCURVE",
"405 513 CURVE SMOOTH",
"401 491 LINE",
"470 491 LINE",
"474 513 LINE SMOOTH",
"498 646 OFFCURVE",
"468 736 OFFCURVE",
"333 736 CURVE SMOOTH",
"236 736 OFFCURVE",
"166 679 OFFCURVE",
"136 537 CURVE SMOOTH",
"105 390 LINE",
"37 378 LINE",
"27 335 LINE",
"93 335 LINE",
"35 61 LINE",
"-30 61 LINE",
"-43 0 LINE"
);
}
);
width = 448.886;
},
{
layerId = "CF2D9F7C-A313-4B1D-9A0D-3EFAA90186C4";
paths = (
{
closed = 1;
nodes = (
"334 0 LINE",
"371 177 LINE",
"342 177 LINE",
"311 29 LINE",
"62 29 LINE",
"131 351 LINE",
"308 351 LINE",
"314 379 LINE",
"137 379 LINE",
"171 542 LINE SMOOTH",
"192 642 OFFCURVE",
"230 707 OFFCURVE",
"317 707 CURVE SMOOTH",
"388 707 OFFCURVE",
"432 673 OFFCURVE",
"411 539 CURVE SMOOTH",
"405 500 LINE",
"435 500 LINE",
"442 539 LINE SMOOTH",
"463 657 OFFCURVE",
"423 735 OFFCURVE",
"318 735 CURVE SMOOTH",
"226 735 OFFCURVE",
"169 674 OFFCURVE",
"141 544 CURVE SMOOTH",
"106 379 LINE",
"37 372 LINE",
"32 351 LINE",
"100 351 LINE",
"32 29 LINE",
"-36 29 LINE",
"-42 0 LINE"
);
}
);
width = 416.888;
}
);
leftMetricsKey = t;
rightMetricsKey = S;
unicode = 00A3;
userData = {
KernOnSpecialSpacing = {
L = symbols;
R = symbols;
};
};
}
{
color = 5;
glyphname = threesuperior;
layers = (
{
layerId = "6932EABA-00D8-4526-96D6-87ADD7AC589E";
paths = (
{
closed = 1;
nodes = (
"196 -5 OFFCURVE",
"240 28 OFFCURVE",
"240 118 CURVE SMOOTH",
"240 182 OFFCURVE",
"214 213 OFFCURVE",
"179 222 CURVE",
"179 226 LINE",
"213 236 OFFCURVE",
"237 268 OFFCURVE",
"237 331 CURVE SMOOTH",
"237 413 OFFCURVE",
"196 443 OFFCURVE",
"145 443 CURVE SMOOTH",
"75 443 OFFCURVE",
"46 402 OFFCURVE",
"45 305 CURVE",
"75 305 LINE",
"75 384 OFFCURVE",
"92 416 OFFCURVE",
"144 416 CURVE SMOOTH",
"181 416 OFFCURVE",
"205 392 OFFCURVE",
"205 343 CURVE SMOOTH",
"205 309 LINE SMOOTH",
"205 265 OFFCURVE",
"180 239 OFFCURVE",
"143 239 CURVE SMOOTH",
"111 239 LINE",
"111 212 LINE",
"143 212 LINE SMOOTH",
"180 212 OFFCURVE",
"207 185 OFFCURVE",
"207 135 CURVE SMOOTH",
"207 95 LINE SMOOTH",
"207 49 OFFCURVE",
"181 22 OFFCURVE",
"139 22 CURVE SMOOTH",
"87 22 OFFCURVE",
"70 56 OFFCURVE",
"70 123 CURVE",
"40 123 LINE",
"40 40 OFFCURVE",
"68 -5 OFFCURVE",
"139 -5 CURVE SMOOTH"
);
}
);
width = 280;
},
{
layerId = "5CD2F84A-2568-4CD8-B351-D9C938FC152A";
paths = (
{
closed = 1;
nodes = (
"226.12 -5 OFFCURVE",
"278.12 38 OFFCURVE",
"278.12 119 CURVE SMOOTH",
"278.12 177 OFFCURVE",
"253.12 212 OFFCURVE",
"214.12 220 CURVE",
"214.12 226 LINE",
"253.12 237 OFFCURVE",
"275.12 275 OFFCURVE",
"275.12 327 CURVE SMOOTH",
"275.12 403 OFFCURVE",
"229.12 443 OFFCURVE",
"161.12 443 CURVE SMOOTH",
"78.12 443 OFFCURVE",
"38.12 390 OFFCURVE",
"40.12 300 CURVE",
"107.12 300 LINE",
"107.12 352 OFFCURVE",
"117.12 382 OFFCURVE",
"158.12 382 CURVE SMOOTH",
"186.12 382 OFFCURVE",
"205.12 364 OFFCURVE",
"205.12 327 CURVE SMOOTH",
"205.12 305 LINE SMOOTH",
"205.12 273 OFFCURVE",
"185.12 250 OFFCURVE",
"152.12 250 CURVE SMOOTH",
"117.12 250 LINE",
"118.12 200 LINE",
"153.12 200 LINE SMOOTH",
"181.12 200 OFFCURVE",
"207.12 182 OFFCURVE",
"207.12 139 CURVE SMOOTH",
"207.12 113 LINE SMOOTH",
"207.12 78 OFFCURVE",
"186.12 56 OFFCURVE",
"154.12 56 CURVE SMOOTH",
"113.12 56 OFFCURVE",
"100.12 83 OFFCURVE",
"101.12 134 CURVE",
"35.12 134 LINE",
"32.12 48 OFFCURVE",
"68.12 -5 OFFCURVE",
"156.12 -5 CURVE SMOOTH"
);
}
);
width = 314.12;
},
{
layerId = "C27438A8-196C-4C9A-B899-94A1193B83E6";
paths = (
{
closed = 1;
nodes = (
"258.78 -5 OFFCURVE",
"322.78 49 OFFCURVE",
"322.78 122 CURVE SMOOTH",
"322.78 173 OFFCURVE",
"296.78 210 OFFCURVE",
"254.78 217 CURVE",
"254.78 226 LINE",
"297.78 238 OFFCURVE",
"319.78 280 OFFCURVE",
"319.78 321 CURVE SMOOTH",
"319.78 390 OFFCURVE",
"266.78 443 OFFCURVE",
"178.78 443 CURVE SMOOTH",
"84.78 443 OFFCURVE",
"23.78 382 OFFCURVE",
"29.78 293 CURVE",
"144.78 293 LINE",
"143.78 308 OFFCURVE",
"145.78 337 OFFCURVE",
"170.78 337 CURVE SMOOTH",
"188.78 337 OFFCURVE",
"199.78 326 OFFCURVE",
"199.78 307 CURVE SMOOTH",
"199.78 301 LINE SMOOTH",
"199.78 285 OFFCURVE",
"185.78 265 OFFCURVE",
"158.78 265 CURVE SMOOTH",
"121.78 265 LINE",
"122.78 184 LINE",
"160.78 184 LINE SMOOTH",
"177.78 184 OFFCURVE",
"202.78 179 OFFCURVE",
"202.78 146 CURVE SMOOTH",
"202.78 137 LINE SMOOTH",
"202.78 117 OFFCURVE",
"189.78 101 OFFCURVE",
"169.78 101 CURVE SMOOTH",
"143.78 101 OFFCURVE",
"134.78 118 OFFCURVE",
"137.78 149 CURVE",
"23.78 149 LINE",
"15.78 47 OFFCURVE",
"74.78 -5 OFFCURVE",
"172.78 -5 CURVE SMOOTH"
);
}
);
width = 346.78;
},
{
layerId = "5908592F-1119-4296-AF9E-8219C1C10A44";
paths = (
{
closed = 1;
nodes = (
"338 -6 OFFCURVE",
"411 43 OFFCURVE",
"411 120 CURVE SMOOTH",
"411 184 OFFCURVE",
"363 222 OFFCURVE",
"298 229 CURVE",
"298 233 LINE",
"361 246 OFFCURVE",
"397 284 OFFCURVE",
"397 332 CURVE SMOOTH",
"397 409 OFFCURVE",
"322 444 OFFCURVE",
"231 444 CURVE SMOOTH",
"128 444 OFFCURVE",
"57 393 OFFCURVE",
"51 317 CURVE",
"88 317 LINE",
"92 374 OFFCURVE",
"150 409 OFFCURVE",
"230 409 CURVE SMOOTH",
"305 409 OFFCURVE",
"357 384 OFFCURVE",
"357 332 CURVE SMOOTH",
"357 320 LINE SMOOTH",
"357 276 OFFCURVE",
"313 246 OFFCURVE",
"245 246 CURVE SMOOTH",
"208 246 LINE",
"208 211 LINE",
"248 211 LINE SMOOTH",
"315 211 OFFCURVE",
"370 188 OFFCURVE",
"370 135 CURVE SMOOTH",
"370 114 LINE SMOOTH",
"370 61 OFFCURVE",
"313 28 OFFCURVE",
"224 28 CURVE SMOOTH",
"137 28 OFFCURVE",
"91 64 OFFCURVE",
"85 125 CURVE",
"47 125 LINE",
"54 46 OFFCURVE",
"114 -6 OFFCURVE",
"223 -6 CURVE SMOOTH"
);
}
);
width = 450;
},
{
layerId = "B2A2C094-0A8E-4CD4-B0FB-CC77B76A82B9";
paths = (
{
closed = 1;
nodes = (
"354 -10 OFFCURVE",
"445 37 OFFCURVE",
"445 124 CURVE SMOOTH",
"445 187 OFFCURVE",
"402 218 OFFCURVE",
"353 230 CURVE",
"353 233 LINE",
"395 246 OFFCURVE",
"429 278 OFFCURVE",
"429 326 CURVE SMOOTH",
"429 397 OFFCURVE",
"364 447 OFFCURVE",
"243 447 CURVE SMOOTH",
"120 447 OFFCURVE",
"42 392 OFFCURVE",
"39 308 CURVE",
"188 308 LINE",
"192 326 OFFCURVE",
"205 334 OFFCURVE",
"229 334 CURVE SMOOTH",
"247 334 OFFCURVE",
"264 325 OFFCURVE",
"264 306 CURVE SMOOTH",
"264 299 LINE SMOOTH",
"264 281 OFFCURVE",
"246 269 OFFCURVE",
"220 269 CURVE SMOOTH",
"184 269 LINE",
"184 169 LINE",
"229 169 LINE SMOOTH",
"251 169 OFFCURVE",
"274 164 OFFCURVE",
"274 141 CURVE SMOOTH",
"274 134 LINE SMOOTH",
"274 116 OFFCURVE",
"258 105 OFFCURVE",
"233 105 CURVE SMOOTH",
"206 105 OFFCURVE",
"190 115 OFFCURVE",
"190 132 CURVE",
"33 132 LINE",
"37 46 OFFCURVE",
"105 -10 OFFCURVE",
"229 -10 CURVE SMOOTH"
);
}
);
width = 473;
},
{
layerId = "AE48F426-5A06-4069-851E-B29A4CF5AB7C";
paths = (
{
closed = 1;
nodes = (
"343 -8 OFFCURVE",
"423 40 OFFCURVE",
"423 122 CURVE SMOOTH",
"423 184 OFFCURVE",
"378 220 OFFCURVE",
"319 229 CURVE",
"319 232 LINE",
"374 245 OFFCURVE",
"409 281 OFFCURVE",
"409 329 CURVE SMOOTH",
"409 403 OFFCURVE",
"339 445 OFFCURVE",
"236 445 CURVE SMOOTH",
"128 445 OFFCURVE",
"53 394 OFFCURVE",
"48 313 CURVE",
"129 313 LINE",
"133 354 OFFCURVE",
"171 378 OFFCURVE",
"230 378 CURVE SMOOTH",
"282 378 OFFCURVE",
"320 359 OFFCURVE",
"320 322 CURVE SMOOTH",
"320 312 LINE SMOOTH",
"320 278 OFFCURVE",
"286 255 OFFCURVE",
"236 255 CURVE SMOOTH",
"199 255 LINE",
"199 194 LINE",
"240 194 LINE SMOOTH",
"290 194 OFFCURVE",
"331 179 OFFCURVE",
"331 138 CURVE SMOOTH",
"331 122 LINE SMOOTH",
"331 84 OFFCURVE",
"291 59 OFFCURVE",
"228 59 CURVE SMOOTH",
"161 59 OFFCURVE",
"132 88 OFFCURVE",
"128 128 CURVE",
"44 128 LINE",
"49 46 OFFCURVE",
"111 -8 OFFCURVE",
"226 -8 CURVE SMOOTH"
);
}
);
width = 460;
},
{
layerId = "3997DD6A-B1DD-4C8E-8076-A32381C7B82F";
paths = (
{
closed = 1;
nodes = (
"220 -6 OFFCURVE",
"286 45 OFFCURVE",
"293 120 CURVE SMOOTH",
"297 163 OFFCURVE",
"273 200 OFFCURVE",
"243 213 CURVE",
"245 220 LINE",
"299 240 OFFCURVE",
"328 284 OFFCURVE",
"328 331 CURVE SMOOTH",
"328 397 OFFCURVE",
"278 442 OFFCURVE",
"200 442 CURVE SMOOTH",
"109 442 OFFCURVE",
"40 386 OFFCURVE",
"35 295 CURVE",
"149 295 LINE",
"149 317 OFFCURVE",
"157 338 OFFCURVE",
"185 338 CURVE SMOOTH",
"202 338 OFFCURVE",
"209 326 OFFCURVE",
"207 312 CURVE SMOOTH",
"205 298 LINE SMOOTH",
"203 284 OFFCURVE",
"186 265 OFFCURVE",
"156 265 CURVE SMOOTH",
"121 265 LINE",
"105 184 LINE",
"144 184 LINE SMOOTH",
"167 184 OFFCURVE",
"183 170 OFFCURVE",
"176 144 CURVE SMOOTH",
"172 129 LINE SMOOTH",
"168 114 OFFCURVE",
"156 102 OFFCURVE",
"138 102 CURVE SMOOTH",
"108 103 OFFCURVE",
"106 126 OFFCURVE",
"112 149 CURVE",
"-3 149 LINE",
"-19 55 OFFCURVE",
"29 -6 OFFCURVE",
"130 -6 CURVE SMOOTH"
);
}
);
width = 350;
},
{
layerId = "83818878-ED40-419E-99CD-108DAFFBE778";
paths = (
{
closed = 1;
nodes = (
"296 -6 OFFCURVE",
"381 37 OFFCURVE",
"387 121 CURVE SMOOTH",
"391 177 OFFCURVE",
"357 215 OFFCURVE",
"302 226 CURVE",
"302 230 LINE",
"360 239 OFFCURVE",
"407 265 OFFCURVE",
"417 316 CURVE SMOOTH",
"433 397 OFFCURVE",
"367 443 OFFCURVE",
"267 443 CURVE SMOOTH",
"165 443 OFFCURVE",
"84 396 OFFCURVE",
"66 323 CURVE",
"104 322 LINE",
"120 376 OFFCURVE",
"184 409 OFFCURVE",
"264 409 CURVE SMOOTH",
"340 409 OFFCURVE",
"394 379 OFFCURVE",
"380 323 CURVE SMOOTH",
"378 316 LINE SMOOTH",
"368 276 OFFCURVE",
"321 246 OFFCURVE",
"248 246 CURVE SMOOTH",
"204 246 LINE",
"197 213 LINE",
"243 213 LINE SMOOTH",
"310 213 OFFCURVE",
"358 182 OFFCURVE",
"347 122 CURVE SMOOTH",
"345 112 LINE SMOOTH",
"335 57 OFFCURVE",
"272 28 OFFCURVE",
"186 28 CURVE SMOOTH",
"109 28 OFFCURVE",
"57 62 OFFCURVE",
"57 123 CURVE",
"18 123 LINE",
"17 45 OFFCURVE",
"87 -6 OFFCURVE",
"186 -6 CURVE SMOOTH"
);
}
);
width = 456;
},
{
layerId = "60C8C1A3-75DB-4AA2-AA92-15A0C8BC52E3";
paths = (
{
closed = 1;
nodes = (
"326.068 -5.6 OFFCURVE",
"402.468 43.6 OFFCURVE",
"408.468 118.4 CURVE SMOOTH",
"412.068 168.4 OFFCURVE",
"383.868 209.2 OFFCURVE",
"329.668 221.8 CURVE",
"329.668 226 LINE",
"384.668 237.8 OFFCURVE",
"428.068 265.4 OFFCURVE",
"435.268 317 CURVE SMOOTH",
"446.068 392.2 OFFCURVE",
"386.868 443.8 OFFCURVE",
"270.668 443.8 CURVE SMOOTH",
"160.268 443.8 OFFCURVE",
"79.268 394 OFFCURVE",
"64.668 316.6 CURVE",
"148.068 316.6 LINE",
"159.268 355.2 OFFCURVE",
"203.268 378 OFFCURVE",
"263.468 378 CURVE SMOOTH",
"316.668 378 OFFCURVE",
"355.868 359 OFFCURVE",
"348.668 314.8 CURVE SMOOTH",
"347.468 308.4 LINE SMOOTH",
"341.468 276.8 OFFCURVE",
"303.868 255 OFFCURVE",
"250.268 255 CURVE SMOOTH",
"204.868 255 LINE",
"190.468 197.6 LINE",
"237.468 197.6 LINE SMOOTH",
"292.268 197.6 OFFCURVE",
"327.268 171.8 OFFCURVE",
"317.668 128.4 CURVE SMOOTH",
"315.268 120.8 LINE SMOOTH",
"305.668 81.6 OFFCURVE",
"262.068 60.2 OFFCURVE",
"202.668 60.2 CURVE SMOOTH",
"144.068 60.2 OFFCURVE",
"104.268 84.4 OFFCURVE",
"103.868 129.2 CURVE",
"18.668 129.2 LINE",
"18.868 49.6 OFFCURVE",
"86.868 -5.6 OFFCURVE",
"201.868 -5.6 CURVE SMOOTH"
);
}
);
width = 476.668;
},
{
layerId = "FFB0BD1F-7FAC-4F91-A9E1-473A5D606C71";
paths = (
{
closed = 1;
nodes = (
"341 -7 OFFCURVE",
"424 38 OFFCURVE",
"431 115 CURVE SMOOTH",
"435 159 OFFCURVE",
"412 199 OFFCURVE",
"363 214 CURVE",
"364 219 LINE",
"420 236 OFFCURVE",
"454 271 OFFCURVE",
"455 322 CURVE SMOOTH",
"456 394 OFFCURVE",
"396 445 OFFCURVE",
"262 445 CURVE SMOOTH",
"141 445 OFFCURVE",
"60 393 OFFCURVE",
"47 307 CURVE",
"203 307 LINE",
"207 324 OFFCURVE",
"223 333 OFFCURVE",
"249 333 CURVE SMOOTH",
"281 333 OFFCURVE",
"293 319 OFFCURVE",
"289 300 CURVE SMOOTH",
"288 297 LINE SMOOTH",
"283 279 OFFCURVE",
"265 271 OFFCURVE",
"242 271 CURVE SMOOTH",
"193 271 LINE",
"168 172 LINE",
"216 172 LINE SMOOTH",
"247 172 OFFCURVE",
"264 160 OFFCURVE",
"260 139 CURVE SMOOTH",
"259 133 LINE SMOOTH",
"256 121 OFFCURVE",
"241 108 OFFCURVE",
"216 108 CURVE SMOOTH",
"190 108 OFFCURVE",
"166 115 OFFCURVE",
"162 136 CURVE",
"5 136 LINE",
"8 51 OFFCURVE",
"82 -7 OFFCURVE",
"215 -7 CURVE SMOOTH"
);
}
);
width = 493.756;
},
{
layerId = "DE16639F-02D9-40F6-995B-45753FE85645";
paths = (
{
closed = 1;
nodes = (
"182 -4 OFFCURVE",
"235 37 OFFCURVE",
"246 111 CURVE SMOOTH",
"253 158 OFFCURVE",
"242 201 OFFCURVE",
"206 216 CURVE",
"207 221 LINE",
"253 235 OFFCURVE",
"283 272 OFFCURVE",
"290 326 CURVE SMOOTH",
"299 395 OFFCURVE",
"259 441 OFFCURVE",
"188 441 CURVE SMOOTH",
"110 441 OFFCURVE",
"64 385 OFFCURVE",
"53 305 CURVE",
"118 304 LINE",
"128 356 OFFCURVE",
"145 382 OFFCURVE",
"181 382 CURVE SMOOTH",
"216 382 OFFCURVE",
"227 354 OFFCURVE",
"220 319 CURVE SMOOTH",
"216 299 LINE SMOOTH",
"210 269 OFFCURVE",
"186 249 OFFCURVE",
"147 249 CURVE SMOOTH",
"116 249 LINE",
"105 199 LINE",
"135 199 LINE SMOOTH",
"172 199 OFFCURVE",
"189 175 OFFCURVE",
"180 132 CURVE SMOOTH",
"175 108 LINE SMOOTH",
"168 74 OFFCURVE",
"146 58 OFFCURVE",
"116 58 CURVE SMOOTH",
"91 58 OFFCURVE",
"60 69 OFFCURVE",
"74 136 CURVE",
"8 136 LINE",
"-8 51 OFFCURVE",
"29 -4 OFFCURVE",
"112 -4 CURVE SMOOTH"
);
}
);
width = 313;
},
{
layerId = "CF2D9F7C-A313-4B1D-9A0D-3EFAA90186C4";
paths = (
{
closed = 1;
nodes = (
"155 -4 OFFCURVE",
"195 34 OFFCURVE",
"208 106 CURVE SMOOTH",
"217 156 OFFCURVE",
"214 202 OFFCURVE",
"173 219 CURVE",
"173 222 LINE",
"212 231 OFFCURVE",
"242 261 OFFCURVE",
"254 323 CURVE SMOOTH",
"268 395 OFFCURVE",
"237 441 OFFCURVE",
"173 441 CURVE SMOOTH",
"106 441 OFFCURVE",
"73 389 OFFCURVE",
"58 310 CURVE",
"88 310 LINE",
"105 386 OFFCURVE",
"129 414 OFFCURVE",
"171 414 CURVE SMOOTH",
"222 414 OFFCURVE",
"235 375 OFFCURVE",
"223 325 CURVE SMOOTH",
"217 300 LINE SMOOTH",
"208 262 OFFCURVE",
"182 238 OFFCURVE",
"135 238 CURVE SMOOTH",
"106 238 LINE",
"100 211 LINE",
"124 211 LINE SMOOTH",
"174 211 OFFCURVE",
"190 176 OFFCURVE",
"179 123 CURVE SMOOTH",
"173 94 LINE SMOOTH",
"163 46 OFFCURVE",
"136 24 OFFCURVE",
"97 24 CURVE SMOOTH",
"43 24 OFFCURVE",
"32 64 OFFCURVE",
"42 124 CURVE",
"12 124 LINE",
"-1 52 OFFCURVE",
"22 -4 OFFCURVE",
"94 -4 CURVE SMOOTH"
);
}
);
width = 280;
}
);
leftKerningGroup = threesuperior;
leftMetricsKey = three;
rightKerningGroup = threesuperior;
rightMetricsKey = three;
unicode = 00B3;
userData = {
KernOnSpecialSpacing = {
L = superiors;
R = superiors;
};
};
}
{
glyphname = Germandbls;
layers = (
{
layerId = "6932EABA-00D8-4526-96D6-87ADD7AC589E";
paths = (
{
closed = 1;
nodes = (
"96 0 LINE",
"96 701 LINE",
"326 701 LINE",
"190 426 LINE",
"190 400 LINE",
"208 400 LINE SMOOTH",
"296 400 OFFCURVE",
"355 351 OFFCURVE",
"355 246 CURVE SMOOTH",
"355 180 LINE SMOOTH",
"355 101 OFFCURVE",
"309 26 OFFCURVE",
"198 26 CURVE SMOOTH",
"164 26 LINE",
"164 0 LINE",
"200 0 LINE SMOOTH",
"312 0 OFFCURVE",
"387 60 OFFCURVE",
"387 213 CURVE SMOOTH",
"387 357 OFFCURVE",
"323 425 OFFCURVE",
"210 425 CURVE SMOOTH",
"202 425 LINE",
"224 411 LINE",
"224 429 LINE",
"357 697 LINE",
"357 729 LINE",
"65 729 LINE",
"65 0 LINE"
);
}
);
width = 409;
},
{
layerId = "5CD2F84A-2568-4CD8-B351-D9C938FC152A";
paths = (
{
closed = 1;
nodes = (
"127 0 LINE",
"127 666 LINE",
"326 666 LINE",
"208 430 LINE",
"208 380 LINE",
"225 380 LINE SMOOTH",
"301 380 OFFCURVE",
"354 340 OFFCURVE",
"354 251 CURVE SMOOTH",
"354 191 LINE SMOOTH",
"354 122 OFFCURVE",
"314 61 OFFCURVE",
"218 61 CURVE SMOOTH",
"189 61 LINE",
"189 0 LINE",
"229 0 LINE SMOOTH",
"347 0 OFFCURVE",
"426 60 OFFCURVE",
"426 214 CURVE SMOOTH",
"426 350 OFFCURVE",
"364 421 OFFCURVE",
"255 421 CURVE SMOOTH",
"243 421 LINE",
"276 401 LINE",
"276 426 LINE",
"396 664 LINE",
"396 729 LINE",
"54 729 LINE",
"54 0 LINE"
);
}
);
width = 445;
},
{
layerId = "C27438A8-196C-4C9A-B899-94A1193B83E6";
paths = (
{
closed = 1;
nodes = (
"207 0 LINE",
"207 577 LINE",
"327 577 LINE",
"255 441 LINE",
"255 331 LINE",
"269 331 LINE SMOOTH",
"316 331 OFFCURVE",
"350 315 OFFCURVE",
"350 266 CURVE SMOOTH",
"350 220 LINE SMOOTH",
"350 176 OFFCURVE",
"329 147 OFFCURVE",
"270 147 CURVE SMOOTH",
"254 147 LINE",
"254 0 LINE",
"304 0 LINE SMOOTH",
"436 0 OFFCURVE",
"525 60 OFFCURVE",
"525 215 CURVE SMOOTH",
"525 332 OFFCURVE",
"468 411 OFFCURVE",
"366 411 CURVE SMOOTH",
"348 411 LINE",
"405 376 LINE",
"405 417 LINE",
"493 580 LINE",
"493 729 LINE",
"28 729 LINE",
"28 0 LINE"
);
}
);
width = 535;
},
{
layerId = "5908592F-1119-4296-AF9E-8219C1C10A44";
paths = (
{
closed = 1;
nodes = (
"111 0 LINE",
"111 689 LINE",
"586 689 LINE",
"340 414 LINE",
"340 379 LINE",
"447 379 LINE SMOOTH",
"566 379 OFFCURVE",
"645 336 OFFCURVE",
"645 230 CURVE SMOOTH",
"645 192 LINE SMOOTH",
"645 101 OFFCURVE",
"583 40 OFFCURVE",
"441 40 CURVE SMOOTH",
"197 40 LINE",
"197 0 LINE",
"456 0 LINE SMOOTH",
"599 0 OFFCURVE",
"690 77 OFFCURVE",
"690 210 CURVE SMOOTH",
"690 333 OFFCURVE",
"617 416 OFFCURVE",
"459 416 CURVE SMOOTH",
"379 416 LINE",
"400 388 LINE",
"400 424 LINE",
"625 675 LINE",
"625 729 LINE",
"71 729 LINE",
"71 0 LINE"
);
}
);
width = 715;
},
{
layerId = "B2A2C094-0A8E-4CD4-B0FB-CC77B76A82B9";
paths = (
{
closed = 1;
nodes = (
"317 0 LINE",
"317 541 LINE",
"578 541 LINE",
"450 400 LINE",
"450 287 LINE",
"543 287 LINE SMOOTH",
"582 287 OFFCURVE",
"603 270 OFFCURVE",
"603 240 CURVE SMOOTH",
"603 228 LINE SMOOTH",
"603 200 OFFCURVE",
"581 181 OFFCURVE",
"541 181 CURVE SMOOTH",
"391 181 LINE",
"391 0 LINE",
"589 0 LINE SMOOTH",
"770 0 OFFCURVE",
"892 65 OFFCURVE",
"892 209 CURVE SMOOTH",
"892 321 OFFCURVE",
"811 397 OFFCURVE",
"678 397 CURVE SMOOTH",
"652 397 LINE",
"710 358 LINE",
"710 404 LINE",
"828 527 LINE",
"828 729 LINE",
"56 729 LINE",
"56 0 LINE"
);
}
);
width = 909;
},
{
layerId = "AE48F426-5A06-4069-851E-B29A4CF5AB7C";
paths = (
{
closed = 1;
nodes = (
"167 0 LINE",
"167 642 LINE",
"581 642 LINE",
"385 411 LINE",
"385 345 LINE",
"493 345 LINE SMOOTH",
"581 345 OFFCURVE",
"639 311 OFFCURVE",
"639 230 CURVE SMOOTH",
"639 197 LINE SMOOTH",
"639 126 OFFCURVE",
"584 82 OFFCURVE",
"480 82 CURVE SMOOTH",
"250 82 LINE",
"250 0 LINE",
"493 0 LINE SMOOTH",
"647 0 OFFCURVE",
"744 78 OFFCURVE",
"744 210 CURVE SMOOTH",
"744 331 OFFCURVE",
"665 413 OFFCURVE",
"519 413 CURVE SMOOTH",
"464 413 LINE",
"499 380 LINE",
"499 418 LINE",
"683 633 LINE",
"683 729 LINE",
"67 729 LINE",
"67 0 LINE"
);
}
);
width = 768;
},
{
layerId = "3997DD6A-B1DD-4C8E-8076-A32381C7B82F";
paths = (
{
closed = 1;
nodes = (
"152 0 LINE",
"272 577 LINE",
"383 577 LINE",
"291 441 LINE",
"268 331 LINE",
"282 331 LINE SMOOTH",
"329 331 OFFCURVE",
"361 315 OFFCURVE",
"352 266 CURVE SMOOTH",
"344 220 LINE SMOOTH",
"336 176 OFFCURVE",
"310 147 OFFCURVE",
"251 147 CURVE SMOOTH",
"235 147 LINE",
"205 0 LINE",
"259 0 LINE SMOOTH",
"391 0 OFFCURVE",
"490 60 OFFCURVE",
"518 215 CURVE SMOOTH",
"538 332 OFFCURVE",
"495 411 OFFCURVE",
"393 411 CURVE SMOOTH",
"375 411 LINE",
"426 376 LINE",
"433 417 LINE",
"550 580 LINE",
"581 729 LINE",
"125 729 LINE",
"-27 0 LINE"
);
}
);
width = 540;
},
{
layerId = "83818878-ED40-419E-99CD-108DAFFBE778";
paths = (
{
closed = 1;
nodes = (
"57 0 LINE",
"203 689 LINE",
"674 689 LINE",
"374 414 LINE",
"366 378 LINE",
"487 378 LINE SMOOTH",
"604 378 OFFCURVE",
"660 306 OFFCURVE",
"638 198 CURVE SMOOTH",
"632 168 LINE SMOOTH",
"617 91 OFFCURVE",
"542 39 OFFCURVE",
"421 39 CURVE SMOOTH",
"151 39 LINE",
"143 0 LINE",
"418 0 LINE SMOOTH",
"562 0 OFFCURVE",
"663 69 OFFCURVE",
"683 193 CURVE SMOOTH",
"704 330 OFFCURVE",
"622 416 OFFCURVE",
"486 416 CURVE SMOOTH",
"419 416 LINE",
"433 398 LINE",
"440 424 LINE",
"714 675 LINE",
"725 729 LINE",
"171 729 LINE",
"17 0 LINE"
);
}
);
width = 722.62;
},
{
layerId = "60C8C1A3-75DB-4AA2-AA92-15A0C8BC52E3";
paths = (
{
closed = 1;
nodes = (
"113 0 LINE",
"248.6 643.2 LINE",
"650.6 643.2 LINE",
"403 411 LINE",
"388.6 345 LINE",
"506.2 345 LINE SMOOTH",
"600.2 345 OFFCURVE",
"645 297.8 OFFCURVE",
"629.4 209.6 CURVE SMOOTH",
"625.8 185 LINE SMOOTH",
"613.8 117.6 OFFCURVE",
"546.8 82 OFFCURVE",
"451.2 82 CURVE SMOOTH",
"210.4 82 LINE",
"196 0 LINE",
"455.8 0 LINE SMOOTH",
"614.6 0 OFFCURVE",
"721.2 69.6 OFFCURVE",
"736.8 200.4 CURVE SMOOTH",
"751.2 326.2 OFFCURVE",
"675.8 413 OFFCURVE",
"535.8 413 CURVE SMOOTH",
"489.2 413 LINE",
"519.4 387.2 LINE",
"526.6 419.2 LINE",
"759.8 635.4 LINE",
"779 729 LINE",
"165.4 729 LINE",
"13 0 LINE"
);
}
);
width = 774;
},
{
layerId = "FFB0BD1F-7FAC-4F91-A9E1-473A5D606C71";
paths = (
{
closed = 1;
nodes = (
"266 0 LINE",
"376 541 LINE",
"637 541 LINE",
"480 400 LINE",
"457 287 LINE",
"550 287 LINE SMOOTH",
"588 287 OFFCURVE",
"606 270 OFFCURVE",
"601 240 CURVE SMOOTH",
"599 228 LINE SMOOTH",
"594 198 OFFCURVE",
"564 181 OFFCURVE",
"527 181 CURVE SMOOTH",
"376 181 LINE",
"340 0 LINE",
"558 0 LINE SMOOTH",
"757 0 OFFCURVE",
"879 70 OFFCURVE",
"883 219 CURVE SMOOTH",
"886 326 OFFCURVE",
"813 397 OFFCURVE",
"700 397 CURVE SMOOTH",
"681 397 LINE",
"731 358 LINE",
"741 404 LINE",
"883 527 LINE",
"925 729 LINE",
"153 729 LINE",
"4 0 LINE"
);
}
);
width = 916.3;
},
{
layerId = "DE16639F-02D9-40F6-995B-45753FE85645";
paths = (
{
closed = 1;
nodes = (
"69 0 LINE",
"210 666 LINE",
"400 666 LINE",
"241 430 LINE",
"232 380 LINE",
"249 380 LINE SMOOTH",
"325 380 OFFCURVE",
"371 340 OFFCURVE",
"355 251 CURVE SMOOTH",
"344 191 LINE SMOOTH",
"331 122 OFFCURVE",
"281 61 OFFCURVE",
"185 61 CURVE SMOOTH",
"156 61 LINE",
"143 0 LINE",
"186 0 LINE SMOOTH",
"304 0 OFFCURVE",
"393 60 OFFCURVE",
"420 214 CURVE SMOOTH",
"444 350 OFFCURVE",
"395 421 OFFCURVE",
"286 421 CURVE SMOOTH",
"274 421 LINE",
"303 401 LINE",
"308 426 LINE",
"470 664 LINE",
"484 729 LINE",
"154 729 LINE",
"0 0 LINE"
);
}
);
width = 449;
},
{
layerId = "CF2D9F7C-A313-4B1D-9A0D-3EFAA90186C4";
paths = (
{
closed = 1;
nodes = (
"41 0 LINE",
"190 701 LINE",
"409 701 LINE",
"212 427 LINE",
"207 400 LINE",
"243 400 LINE SMOOTH",
"324 400 OFFCURVE",
"358 341 OFFCURVE",
"336 227 CURVE SMOOTH",
"327 181 LINE SMOOTH",
"308 82 OFFCURVE",
"247 26 OFFCURVE",
"159 26 CURVE SMOOTH",
"110 26 LINE",
"104 0 LINE",
"152 0 LINE SMOOTH",
"257 0 OFFCURVE",
"336 50 OFFCURVE",
"365 210 CURVE SMOOTH",
"391 352 OFFCURVE",
"341 427 OFFCURVE",
"245 427 CURVE SMOOTH",
"238 427 LINE",
"245 413 LINE",
"249 431 LINE",
"440 697 LINE",
"446 729 LINE",
"165 729 LINE",
"11 0 LINE"
);
}
);
width = 397.66;
}
);
leftKerningGroup = H;
leftMetricsKey = H;
rightMetricsKey = B;
unicode = 1E9E;
}
{
glyphname = caron;
layers = (
{
anchors = (
{
name = _top;
position = "{119, 672}";
}
);
layerId = "6932EABA-00D8-4526-96D6-87ADD7AC589E";
paths = (
{
closed = 1;
nodes = (
"133 750 LINE",
"204 886 LINE",
"174 886 LINE",
"119 779 LINE",
"64 886 LINE",
"35 886 LINE",
"105 750 LINE"
);
}
);
width = 239;
},
{
anchors = (
{
name = _top;
position = "{130, 674}";
}
);
layerId = "5CD2F84A-2568-4CD8-B351-D9C938FC152A";
paths = (
{
closed = 1;
nodes = (
"168 745 LINE",
"241 879 LINE",
"176 879 LINE",
"130 790 LINE",
"85 879 LINE",
"20 879 LINE",
"93 745 LINE"
);
}
);
width = 261;
},
{
anchors = (
{
name = _top;
position = "{209, 679}";
}
);
layerId = "C27438A8-196C-4C9A-B899-94A1193B83E6";
paths = (
{
closed = 1;
nodes = (
"315 719 LINE",
"398 862 LINE",
"240 862 LINE",
"209 798 LINE",
"178 862 LINE",
"20 862 LINE",
"103 719 LINE"
);
}
);
width = 418;
},
{
anchors = (
{
name = _top;
position = "{181, 672}";
}
);
layerId = "5908592F-1119-4296-AF9E-8219C1C10A44";
paths = (
{
closed = 1;
nodes = (
"199 750 LINE",
"327 886 LINE",
"277 886 LINE",
"181 785 LINE",
"85 886 LINE",
"35 886 LINE",
"163 750 LINE"
);
}
);
width = 362;
},
{
anchors = (
{
name = _top;
position = "{309, 680}";
}
);
layerId = "B2A2C094-0A8E-4CD4-B0FB-CC77B76A82B9";
paths = (
{
closed = 1;
nodes = (
"426 731 LINE",
"590 860 LINE",
"388 860 LINE",
"309 816 LINE",
"230 860 LINE",
"25 860 LINE",
"193 731 LINE"
);
}
);
width = 551;
},
{
anchors = (
{
name = _top;
position = "{218, 675}";
}
);
layerId = "AE48F426-5A06-4069-851E-B29A4CF5AB7C";
paths = (
{
closed = 1;
nodes = (
"268 752 LINE",
"411 878 LINE",
"304 878 LINE",
"218 804 LINE",
"132 878 LINE",
"25 878 LINE",
"167 752 LINE"
);
}
);
width = 436;
},
{
anchors = (
{
name = _top;
position = "{287, 679}";
}
);
background = {
paths = (
{
closed = 1;
nodes = (
"413 719 LINE",
"527 862 LINE",
"360 862 LINE",
"316 798 LINE",
"298 862 LINE",
"149 862 LINE",
"201 719 LINE"
);
}
);
};
layerId = "3997DD6A-B1DD-4C8E-8076-A32381C7B82F";
paths = (
{
closed = 1;
nodes = (
"401 719 LINE",
"523 862 LINE",
"352 862 LINE",
"307 801 LINE",
"293 862 LINE",
"145 862 LINE",
"190 719 LINE"
);
}
);
width = 418;
},
{
anchors = (
{
name = _top;
position = "{269, 672}";
}
);
layerId = "83818878-ED40-419E-99CD-108DAFFBE778";
paths = (
{
closed = 1;
nodes = (
"305 750 LINE",
"460 885 LINE",
"408 885 LINE",
"292 782 LINE",
"213 885 LINE",
"168 885 LINE",
"273 750 LINE"
);
}
);
width = 362;
},
{
anchors = (
{
name = _top;
position = "{309, 672}";
}
);
layerId = "60C8C1A3-75DB-4AA2-AA92-15A0C8BC52E3";
paths = (
{
closed = 1;
nodes = (
"377 750 LINE",
"538 876 LINE",
"431 876 LINE",
"331 803 LINE",
"257 876 LINE",
"160 876 LINE",
"274 750 LINE"
);
}
);
width = 438;
},
{
anchors = (
{
name = _top;
position = "{421, 680}";
}
);
layerId = "FFB0BD1F-7FAC-4F91-A9E1-473A5D606C71";
paths = (
{
closed = 1;
nodes = (
"522 731 LINE",
"712 860 LINE",
"507 860 LINE",
"420 816 LINE",
"347 860 LINE",
"145 860 LINE",
"289 731 LINE"
);
}
);
width = 607;
},
{
anchors = (
{
name = _top;
position = "{214, 674}";
}
);
layerId = "DE16639F-02D9-40F6-995B-45753FE85645";
paths = (
{
closed = 1;
nodes = (
"269 745 LINE",
"375 879 LINE",
"308 879 LINE",
"235 781 LINE",
"212 879 LINE",
"156 879 LINE",
"189 745 LINE"
);
}
);
width = 269;
},
{
anchors = (
{
name = _top;
position = "{206, 672}";
}
);
layerId = "CF2D9F7C-A313-4B1D-9A0D-3EFAA90186C4";
paths = (
{
closed = 1;
nodes = (
"240 750 LINE",
"346 886 LINE",
"314 886 LINE",
"225 769 LINE",
"196 886 LINE",
"169 886 LINE",
"204 750 LINE"
);
}
);
width = 247;
}
);
unicode = 02C7;
}
{
glyphname = comma;
layers = (
{
anchors = (
{
name = _topright;
position = "{34, 64}";
}
);
background = {
paths = (
{
closed = 1;
nodes = (
"60 -144 LINE",
"96 0 LINE",
"96 54 LINE",
"58 54 LINE",
"58 0 LINE",
"76 0 LINE",
"38 -144 LINE"
);
}
);
};
layerId = "6932EABA-00D8-4526-96D6-87ADD7AC589E";
paths = (
{
closed = 1;
nodes = (
"58 -145 LINE",
"99 0 LINE",
"99 61 LINE",
"53 61 LINE",
"53 0 LINE",
"78 0 LINE",
"34 -145 LINE"
);
}
);
width = 149;
},
{
anchors = (
{
name = _topright;
position = "{9, 118}";
}
);
background = {
paths = (
{
closed = 1;
nodes = (
"58 -154 LINE SMOOTH",
"104 -154 OFFCURVE",
"134 -130 OFFCURVE",
"134 -59 CURVE SMOOTH",
"134 91 LINE",
"59 91 LINE",
"59 0 LINE",
"94 0 LINE",
"94 -53 LINE SMOOTH",
"94 -86 OFFCURVE",
"85 -106 OFFCURVE",
"54 -109 CURVE SMOOTH",
"43 -110 LINE",
"43 -154 LINE"
);
}
);
};
layerId = "5CD2F84A-2568-4CD8-B351-D9C938FC152A";
paths = (
{
closed = 1;
nodes = (
"86 -153 LINE",
"136 3 LINE",
"136 105 LINE",
"44 105 LINE",
"44 0 LINE",
"94 0 LINE",
"28 -153 LINE"
);
}
);
width = 179;
},
{
anchors = (
{
name = _topright;
position = "{-16, 181}";
}
);
background = {
paths = (
{
closed = 1;
nodes = (
"46 -179 LINE SMOOTH",
"136 -179 OFFCURVE",
"195 -145 OFFCURVE",
"195 -30 CURVE SMOOTH",
"195 181 LINE",
"24 181 LINE",
"24 0 LINE",
"107 0 LINE",
"107 -22 LINE SMOOTH",
"107 -62 OFFCURVE",
"86 -84 OFFCURVE",
"34 -84 CURVE SMOOTH",
"9 -84 LINE",
"9 -179 LINE"
);
}
);
};
layerId = "C27438A8-196C-4C9A-B899-94A1193B83E6";
paths = (
{
closed = 1;
nodes = (
"125 -167 LINE",
"195 7 LINE",
"195 181 LINE",
"24 181 LINE",
"24 0 LINE",
"117 0 LINE",
"13 -167 LINE"
);
}
);
width = 219;
},
{
anchors = (
{
name = _topright;
position = "{36, 68}";
}
);
layerId = "5908592F-1119-4296-AF9E-8219C1C10A44";
paths = (
{
closed = 1;
nodes = (
"65 -146 LINE",
"107 0 LINE",
"107 64 LINE",
"57 64 LINE",
"57 0 LINE",
"84 0 LINE",
"38 -146 LINE"
);
}
);
width = 156;
},
{
anchors = (
{
name = _topright;
position = "{-7, 175}";
}
);
layerId = "B2A2C094-0A8E-4CD4-B0FB-CC77B76A82B9";
paths = (
{
closed = 1;
nodes = (
"174 -165 LINE",
"269 6 LINE",
"269 183 LINE",
"39 183 LINE",
"39 0 LINE",
"151 0 LINE",
"23 -165 LINE"
);
}
);
width = 303;
},
{
anchors = (
{
name = _topright;
position = "{1, 128}";
}
);
layerId = "AE48F426-5A06-4069-851E-B29A4CF5AB7C";
paths = (
{
closed = 1;
nodes = (
"108 -154 LINE",
"171 3 LINE",
"171 107 LINE",
"51 107 LINE",
"51 0 LINE",
"111 0 LINE",
"34 -154 LINE"
);
}
);
width = 216;
},
{
anchors = (
{
name = _topright;
position = "{-35, 181}";
}
);
layerId = "3997DD6A-B1DD-4C8E-8076-A32381C7B82F";
paths = (
{
closed = 1;
nodes = (
"32 -167 LINE",
"139 7 LINE",
"176 181 LINE",
"5 181 LINE",
"-33 0 LINE",
"60 0 LINE",
"-80 -167 LINE"
);
}
);
width = 219.708;
},
{
anchors = (
{
name = _topright;
position = "{-5, 68}";
}
);
layerId = "83818878-ED40-419E-99CD-108DAFFBE778";
paths = (
{
closed = 1;
nodes = (
"-21 -146 LINE",
"52 0 LINE",
"65 64 LINE",
"15 64 LINE",
"2 0 LINE",
"29 0 LINE",
"-48 -146 LINE"
);
}
);
width = 156;
},
{
anchors = (
{
name = _topright;
position = "{-26.6, 128}";
}
);
layerId = "60C8C1A3-75DB-4AA2-AA92-15A0C8BC52E3";
paths = (
{
closed = 1;
nodes = (
"20.4 -154 LINE",
"117 3 LINE",
"138.6 105.8 LINE",
"19.8 105.8 LINE",
"-4.2 0 LINE",
"55.8 0 LINE",
"-53.6 -154 LINE"
);
}
);
width = 216.564;
},
{
anchors = (
{
name = _topright;
position = "{-27, 175}";
}
);
layerId = "FFB0BD1F-7FAC-4F91-A9E1-473A5D606C71";
paths = (
{
closed = 1;
nodes = (
"81 -165 LINE",
"212 6 LINE",
"249 178 LINE",
"18 178 LINE",
"-19 0 LINE",
"93 0 LINE",
"-70 -165 LINE"
);
}
);
width = 303;
},
{
anchors = (
{
name = _topright;
position = "{-22, 118}";
}
);
layerId = "DE16639F-02D9-40F6-995B-45753FE85645";
paths = (
{
closed = 1;
nodes = (
"-2 -153 LINE",
"81 3 LINE",
"102 105 LINE",
"10 105 LINE",
"-12 0 LINE",
"38 0 LINE",
"-60 -153 LINE"
);
}
);
width = 178;
},
{
anchors = (
{
name = _topright;
position = "{-7, 64}";
}
);
layerId = "CF2D9F7C-A313-4B1D-9A0D-3EFAA90186C4";
paths = (
{
closed = 1;
nodes = (
"-28 -145 LINE",
"44 0 LINE",
"57 61 LINE",
"11 61 LINE",
"-2 0 LINE",
"23 0 LINE",
"-52 -145 LINE"
);
}
);
width = 149;
}
);
leftKerningGroup = comma;
rightKerningGroup = comma;
rightMetricsKey = period;
unicode = 002C;
userData = {
KernOnSpecialSpacing = {
L = period;
R = period;
};
};
}
{
glyphname = ogonek;
layers = (
{
anchors = (
{
name = _ogonek;
position = "{82, 0}";
}
);
layerId = "6932EABA-00D8-4526-96D6-87ADD7AC589E";
paths = (
{
closed = 1;
nodes = (
"175 -172 LINE",
"182 -142 LINE",
"127 -142 LINE SMOOTH",
"72 -142 OFFCURVE",
"56 -117 OFFCURVE",
"70 -65 CURVE SMOOTH",
"86 0 LINE",
"67 0 LINE",
"53 -37 OFFCURVE",
"35 -79 OFFCURVE",
"35 -107 CURVE SMOOTH",
"35 -148 OFFCURVE",
"62 -172 OFFCURVE",
"116 -172 CURVE SMOOTH"
);
}
);
width = 217;
},
{
anchors = (
{
name = _ogonek;
position = "{85, 0}";
}
);
layerId = "5CD2F84A-2568-4CD8-B351-D9C938FC152A";
paths = (
{
closed = 1;
nodes = (
"185 -183 LINE",
"197 -126 LINE",
"139 -126 LINE SMOOTH",
"85 -126 OFFCURVE",
"71 -104 OFFCURVE",
"85 -56 CURVE SMOOTH",
"99 5 LINE",
"62 3 LINE",
"42 -34 OFFCURVE",
"20 -75 OFFCURVE",
"20 -109 CURVE SMOOTH",
"20 -156 OFFCURVE",
"53 -183 OFFCURVE",
"115 -183 CURVE SMOOTH"
);
}
);
width = 217;
},
{
anchors = (
{
name = _ogonek;
position = "{127, 0}";
}
);
layerId = "C27438A8-196C-4C9A-B899-94A1193B83E6";
paths = (
{
closed = 1;
nodes = (
"245 -210 LINE",
"270 -87 LINE",
"204 -87 LINE SMOOTH",
"155 -87 OFFCURVE",
"146 -71 OFFCURVE",
"155 -33 CURVE SMOOTH",
"168 17 LINE",
"86 13 LINE",
"52 -27 OFFCURVE",
"20 -64 OFFCURVE",
"20 -114 CURVE SMOOTH",
"20 -176 OFFCURVE",
"68 -210 OFFCURVE",
"149 -210 CURVE SMOOTH"
);
}
);
width = 290;
},
{
anchors = (
{
name = _ogonek;
position = "{82, 0}";
}
);
layerId = "5908592F-1119-4296-AF9E-8219C1C10A44";
paths = (
{
closed = 1;
nodes = (
"175 -173 LINE",
"182 -141 LINE",
"127 -141 LINE SMOOTH",
"72 -141 OFFCURVE",
"56 -116 OFFCURVE",
"70 -64 CURVE SMOOTH",
"86 0 LINE",
"67 0 LINE",
"53 -37 OFFCURVE",
"35 -79 OFFCURVE",
"35 -107 CURVE SMOOTH",
"35 -149 OFFCURVE",
"62 -173 OFFCURVE",
"116 -173 CURVE SMOOTH"
);
}
);
width = 217;
},
{
anchors = (
{
name = _ogonek;
position = "{131, 0}";
}
);
layerId = "B2A2C094-0A8E-4CD4-B0FB-CC77B76A82B9";
paths = (
{
closed = 1;
nodes = (
"248 -210 LINE",
"273 -86 LINE",
"207 -86 LINE SMOOTH",
"158 -86 OFFCURVE",
"148 -70 OFFCURVE",
"157 -32 CURVE SMOOTH",
"171 17 LINE",
"90 14 LINE",
"55 -25 OFFCURVE",
"25 -63 OFFCURVE",
"25 -114 CURVE SMOOTH",
"25 -175 OFFCURVE",
"68 -210 OFFCURVE",
"154 -210 CURVE SMOOTH"
);
}
);
width = 298;
},
{
anchors = (
{
name = _ogonek;
position = "{88, 0}";
}
);
layerId = "AE48F426-5A06-4069-851E-B29A4CF5AB7C";
paths = (
{
closed = 1;
nodes = (
"189 -185 LINE",
"201 -123 LINE",
"143 -123 LINE SMOOTH",
"90 -123 OFFCURVE",
"76 -102 OFFCURVE",
"88 -54 CURVE SMOOTH",
"103 6 LINE",
"67 4 LINE",
"48 -33 OFFCURVE",
"25 -74 OFFCURVE",
"25 -110 CURVE SMOOTH",
"25 -158 OFFCURVE",
"57 -185 OFFCURVE",
"120 -185 CURVE SMOOTH"
);
}
);
width = 226;
},
{
anchors = (
{
name = _ogonek;
position = "{65, 0}";
}
);
layerId = "3997DD6A-B1DD-4C8E-8076-A32381C7B82F";
paths = (
{
closed = 1;
nodes = (
"146 -210 LINE",
"193 -87 LINE",
"127 -87 LINE SMOOTH",
"78 -87 OFFCURVE",
"71 -71 OFFCURVE",
"87 -33 CURVE SMOOTH",
"109 17 LINE",
"26 13 LINE",
"-15 -27 OFFCURVE",
"-53 -64 OFFCURVE",
"-62 -114 CURVE SMOOTH",
"-73 -176 OFFCURVE",
"-31 -210 OFFCURVE",
"50 -210 CURVE SMOOTH"
);
}
);
width = 289;
},
{
anchors = (
{
name = _ogonek;
position = "{6, 0}";
}
);
layerId = "83818878-ED40-419E-99CD-108DAFFBE778";
paths = (
{
closed = 1;
nodes = (
"99 -173 LINE",
"106 -141 LINE",
"51 -141 LINE SMOOTH",
"-4 -141 OFFCURVE",
"-20 -116 OFFCURVE",
"-6 -64 CURVE SMOOTH",
"10 0 LINE",
"-9 0 LINE",
"-23 -37 OFFCURVE",
"-41 -79 OFFCURVE",
"-41 -107 CURVE SMOOTH",
"-41 -149 OFFCURVE",
"-14 -173 OFFCURVE",
"40 -173 CURVE SMOOTH"
);
}
);
width = 226;
},
{
anchors = (
{
name = _ogonek;
position = "{16, 0}";
}
);
layerId = "60C8C1A3-75DB-4AA2-AA92-15A0C8BC52E3";
paths = (
{
closed = 1;
nodes = (
"117 -185 LINE",
"129 -123 LINE",
"70 -123 LINE SMOOTH",
"18 -123 OFFCURVE",
"4 -102 OFFCURVE",
"16 -54 CURVE SMOOTH",
"31 6 LINE",
"-6 4 LINE",
"-25 -33 OFFCURVE",
"-47 -74 OFFCURVE",
"-47 -110 CURVE SMOOTH",
"-47 -158 OFFCURVE",
"-15 -185 OFFCURVE",
"48 -185 CURVE SMOOTH"
);
}
);
width = 242;
},
{
anchors = (
{
name = _ogonek;
position = "{46, 0}";
}
);
layerId = "FFB0BD1F-7FAC-4F91-A9E1-473A5D606C71";
paths = (
{
closed = 1;
nodes = (
"166 -210 LINE",
"190 -86 LINE",
"123 -86 LINE SMOOTH",
"75 -86 OFFCURVE",
"65 -70 OFFCURVE",
"73 -32 CURVE SMOOTH",
"87 17 LINE",
"6 14 LINE",
"-29 -25 OFFCURVE",
"-60 -63 OFFCURVE",
"-59 -114 CURVE SMOOTH",
"-59 -175 OFFCURVE",
"-15 -210 OFFCURVE",
"71 -210 CURVE SMOOTH"
);
}
);
width = 289;
},
{
anchors = (
{
name = _ogonek;
position = "{31, 0}";
}
);
layerId = "DE16639F-02D9-40F6-995B-45753FE85645";
paths = (
{
closed = 1;
nodes = (
"98 -183 LINE",
"120 -126 LINE",
"62 -126 LINE SMOOTH",
"8 -126 OFFCURVE",
"-2 -104 OFFCURVE",
"21 -56 CURVE SMOOTH",
"46 5 LINE",
"8 3 LINE",
"-18 -34 OFFCURVE",
"-48 -75 OFFCURVE",
"-54 -109 CURVE SMOOTH",
"-62 -156 OFFCURVE",
"-34 -183 OFFCURVE",
"28 -183 CURVE SMOOTH"
);
}
);
width = 227;
},
{
anchors = (
{
name = _ogonek;
position = "{6, 0}";
}
);
layerId = "CF2D9F7C-A313-4B1D-9A0D-3EFAA90186C4";
paths = (
{
closed = 1;
nodes = (
"99 -172 LINE",
"106 -142 LINE",
"51 -142 LINE SMOOTH",
"-4 -142 OFFCURVE",
"-20 -117 OFFCURVE",
"-6 -65 CURVE SMOOTH",
"10 0 LINE",
"-9 0 LINE",
"-23 -37 OFFCURVE",
"-41 -79 OFFCURVE",
"-41 -107 CURVE SMOOTH",
"-41 -148 OFFCURVE",
"-14 -172 OFFCURVE",
"40 -172 CURVE SMOOTH"
);
}
);
width = 226;
}
);
unicode = 02DB;
}
{
glyphname = plus;
layers = (
{
layerId = "6932EABA-00D8-4526-96D6-87ADD7AC589E";
paths = (
{
closed = 1;
nodes = (
"265 168 LINE",
"265 554 LINE",
"235 554 LINE",
"235 168 LINE"
);
},
{
closed = 1;
nodes = (
"443 347 LINE",
"443 375 LINE",
"57 375 LINE",
"57 347 LINE"
);
}
);
width = 500;
},
{
layerId = "5CD2F84A-2568-4CD8-B351-D9C938FC152A";
paths = (
{
closed = 1;
nodes = (
"287 165 LINE",
"287 565 LINE",
"222 565 LINE",
"222 165 LINE"
);
},
{
closed = 1;
nodes = (
"456 335 LINE",
"456 395 LINE",
"54 395 LINE",
"54 335 LINE"
);
}
);
width = 510;
},
{
layerId = "C27438A8-196C-4C9A-B899-94A1193B83E6";
paths = (
{
closed = 1;
nodes = (
"329 145 LINE",
"329 585 LINE",
"179 585 LINE",
"179 145 LINE"
);
},
{
closed = 1;
nodes = (
"475 294 LINE",
"475 436 LINE",
"35 436 LINE",
"35 294 LINE"
);
}
);
width = 510;
},
{
layerId = "5908592F-1119-4296-AF9E-8219C1C10A44";
paths = (
{
closed = 1;
nodes = (
"317 118 LINE",
"318 611 LINE",
"283 611 LINE",
"283 118 LINE"
);
},
{
closed = 1;
nodes = (
"547 348 LINE",
"547 382 LINE",
"53 382 LINE",
"53 348 LINE"
);
}
);
width = 600;
},
{
layerId = "B2A2C094-0A8E-4CD4-B0FB-CC77B76A82B9";
paths = (
{
closed = 1;
nodes = (
"395 108 LINE",
"396 621 LINE",
"211 621 LINE",
"211 108 LINE"
);
},
{
closed = 1;
nodes = (
"559 277 LINE",
"559 454 LINE",
"48 454 LINE",
"48 277 LINE"
);
}
);
width = 607;
},
{
layerId = "AE48F426-5A06-4069-851E-B29A4CF5AB7C";
paths = (
{
closed = 1;
nodes = (
"352 116 LINE",
"352 614 LINE",
"270 614 LINE",
"270 116 LINE"
);
},
{
closed = 1;
nodes = (
"559 324 LINE",
"559 406 LINE",
"63 406 LINE",
"63 324 LINE"
);
}
);
width = 622;
},
{
layerId = "3997DD6A-B1DD-4C8E-8076-A32381C7B82F";
paths = (
{
closed = 1;
nodes = (
"301 141 LINE",
"395 581 LINE",
"245 581 LINE",
"151 141 LINE"
);
},
{
closed = 1;
nodes = (
"479 290 LINE",
"509 432 LINE",
"69 432 LINE",
"39 290 LINE"
);
}
);
width = 510;
},
{
layerId = "83818878-ED40-419E-99CD-108DAFFBE778";
paths = (
{
closed = 1;
nodes = (
"286 115 LINE",
"391 608 LINE",
"356 608 LINE",
"252 115 LINE"
);
},
{
closed = 1;
nodes = (
"565 344 LINE",
"573 378 LINE",
"79 378 LINE",
"71 344 LINE"
);
}
);
width = 600;
},
{
layerId = "60C8C1A3-75DB-4AA2-AA92-15A0C8BC52E3";
paths = (
{
closed = 1;
nodes = (
"319.6 112.4 LINE",
"426.4 609.2 LINE",
"344.4 609.2 LINE",
"238.8 112.4 LINE"
);
},
{
closed = 1;
nodes = (
"571 320.4 LINE",
"589 401.2 LINE",
"93 401.2 LINE",
"75 320.4 LINE"
);
}
);
width = 623.2;
},
{
layerId = "FFB0BD1F-7FAC-4F91-A9E1-473A5D606C71";
paths = (
{
closed = 1;
nodes = (
"360 104 LINE",
"470 617 LINE",
"285 617 LINE",
"175 104 LINE"
);
},
{
closed = 1;
nodes = (
"560 273 LINE",
"597 450 LINE",
"86 450 LINE",
"48 273 LINE"
);
}
);
width = 608;
},
{
layerId = "DE16639F-02D9-40F6-995B-45753FE85645";
paths = (
{
closed = 1;
nodes = (
"266 161 LINE",
"352 561 LINE",
"287 561 LINE",
"201 161 LINE"
);
},
{
closed = 1;
nodes = (
"472 331 LINE",
"484 391 LINE",
"82 391 LINE",
"70 331 LINE"
);
}
);
width = 511;
},
{
layerId = "CF2D9F7C-A313-4B1D-9A0D-3EFAA90186C4";
paths = (
{
closed = 1;
nodes = (
"246 168 LINE",
"328 554 LINE",
"298 554 LINE",
"216 168 LINE"
);
},
{
closed = 1;
nodes = (
"462 347 LINE",
"468 375 LINE",
"82 375 LINE",
"76 347 LINE"
);
}
);
width = 500;
}
);
leftKerningGroup = plus;
rightKerningGroup = plus;
unicode = 002B;
userData = {
KernOnSpecialSpacing = {
L = math;
R = math;
};
};
}
{
glyphname = ring;
layers = (
{
anchors = (
{
name = _top;
position = "{98, 672}";
}
);
layerId = "6932EABA-00D8-4526-96D6-87ADD7AC589E";
paths = (
{
closed = 1;
nodes = (
"136 745 OFFCURVE",
"161 777 OFFCURVE",
"161 834 CURVE SMOOTH",
"161 887 OFFCURVE",
"138 923 OFFCURVE",
"98 923 CURVE SMOOTH",
"60 923 OFFCURVE",
"35 891 OFFCURVE",
"35 834 CURVE SMOOTH",
"35 781 OFFCURVE",
"58 745 OFFCURVE",
"98 745 CURVE SMOOTH"
);
},
{
closed = 1;
nodes = (
"76 770 OFFCURVE",
"62 790 OFFCURVE",
"62 834 CURVE SMOOTH",
"62 872 OFFCURVE",
"74 898 OFFCURVE",
"98 898 CURVE SMOOTH",
"120 898 OFFCURVE",
"134 878 OFFCURVE",
"134 834 CURVE SMOOTH",
"134 796 OFFCURVE",
"122 770 OFFCURVE",
"98 770 CURVE SMOOTH"
);
}
);
width = 196;
},
{
anchors = (
{
name = _top;
position = "{97, 674}";
}
);
layerId = "5CD2F84A-2568-4CD8-B351-D9C938FC152A";
paths = (
{
closed = 1;
nodes = (
"144 738 OFFCURVE",
"174 776 OFFCURVE",
"174 837 CURVE SMOOTH",
"174 895 OFFCURVE",
"145 935 OFFCURVE",
"97 935 CURVE SMOOTH",
"51 935 OFFCURVE",
"20 898 OFFCURVE",
"20 837 CURVE SMOOTH",
"20 778 OFFCURVE",
"49 738 OFFCURVE",
"97 738 CURVE SMOOTH"
);
},
{
closed = 1;
nodes = (
"77 779 OFFCURVE",
"65 797 OFFCURVE",
"65 837 CURVE SMOOTH",
"65 872 OFFCURVE",
"75 895 OFFCURVE",
"97 895 CURVE SMOOTH",
"117 895 OFFCURVE",
"129 877 OFFCURVE",
"129 837 CURVE SMOOTH",
"129 801 OFFCURVE",
"119 779 OFFCURVE",
"97 779 CURVE SMOOTH"
);
}
);
width = 194;
},
{
anchors = (
{
name = _top;
position = "{133, 679}";
}
);
layerId = "C27438A8-196C-4C9A-B899-94A1193B83E6";
paths = (
{
closed = 1;
nodes = (
"203 714 OFFCURVE",
"246 765 OFFCURVE",
"246 836 CURVE SMOOTH",
"246 908 OFFCURVE",
"201 958 OFFCURVE",
"133 958 CURVE SMOOTH",
"65 958 OFFCURVE",
"20 907 OFFCURVE",
"20 836 CURVE SMOOTH",
"20 764 OFFCURVE",
"66 714 OFFCURVE",
"133 714 CURVE SMOOTH"
);
},
{
closed = 1;
nodes = (
"120 793 OFFCURVE",
"110 805 OFFCURVE",
"110 836 CURVE SMOOTH",
"110 865 OFFCURVE",
"118 879 OFFCURVE",
"133 879 CURVE SMOOTH",
"147 879 OFFCURVE",
"157 867 OFFCURVE",
"157 836 CURVE SMOOTH",
"157 807 OFFCURVE",
"149 793 OFFCURVE",
"133 793 CURVE SMOOTH"
);
}
);
width = 266;
},
{
anchors = (
{
name = _top;
position = "{146, 672}";
}
);
layerId = "5908592F-1119-4296-AF9E-8219C1C10A44";
paths = (
{
closed = 1;
nodes = (
"210 743 OFFCURVE",
"254 784 OFFCURVE",
"254 842 CURVE SMOOTH",
"254 902 OFFCURVE",
"210 941 OFFCURVE",
"144 941 CURVE SMOOTH",
"81 941 OFFCURVE",
"35 901 OFFCURVE",
"35 842 CURVE SMOOTH",
"35 784 OFFCURVE",
"81 743 OFFCURVE",
"144 743 CURVE SMOOTH"
);
},
{
closed = 1;
nodes = (
"102 773 OFFCURVE",
"70 801 OFFCURVE",
"70 842 CURVE SMOOTH",
"70 883 OFFCURVE",
"102 911 OFFCURVE",
"144 911 CURVE SMOOTH",
"190 911 OFFCURVE",
"221 883 OFFCURVE",
"221 842 CURVE SMOOTH",
"221 802 OFFCURVE",
"189 773 OFFCURVE",
"144 773 CURVE SMOOTH"
);
}
);
width = 289;
},
{
anchors = (
{
name = _top;
position = "{170, 679}";
}
);
layerId = "B2A2C094-0A8E-4CD4-B0FB-CC77B76A82B9";
paths = (
{
closed = 1;
nodes = (
"256 725 OFFCURVE",
"315 768 OFFCURVE",
"315 846 CURVE SMOOTH",
"315 917 OFFCURVE",
"262 966 OFFCURVE",
"171 966 CURVE SMOOTH",
"82 966 OFFCURVE",
"25 922 OFFCURVE",
"25 846 CURVE SMOOTH",
"25 771 OFFCURVE",
"77 725 OFFCURVE",
"171 725 CURVE SMOOTH"
);
},
{
closed = 1;
nodes = (
"146 808 OFFCURVE",
"133 824 OFFCURVE",
"133 846 CURVE SMOOTH",
"133 867 OFFCURVE",
"146 883 OFFCURVE",
"171 883 CURVE SMOOTH",
"192 883 OFFCURVE",
"207 867 OFFCURVE",
"207 846 CURVE SMOOTH",
"207 822 OFFCURVE",
"195 808 OFFCURVE",
"171 808 CURVE SMOOTH"
);
}
);
width = 340;
},
{
anchors = (
{
name = _top;
position = "{143, 675}";
}
);
layerId = "AE48F426-5A06-4069-851E-B29A4CF5AB7C";
paths = (
{
closed = 1;
nodes = (
"208 737 OFFCURVE",
"261 778 OFFCURVE",
"261 843 CURVE SMOOTH",
"261 908 OFFCURVE",
"208 949 OFFCURVE",
"143 949 CURVE SMOOTH",
"78 949 OFFCURVE",
"25 908 OFFCURVE",
"25 843 CURVE SMOOTH",
"25 778 OFFCURVE",
"78 737 OFFCURVE",
"143 737 CURVE SMOOTH"
);
},
{
closed = 1;
nodes = (
"106 784 OFFCURVE",
"80 808 OFFCURVE",
"80 843 CURVE SMOOTH",
"80 878 OFFCURVE",
"106 902 OFFCURVE",
"143 902 CURVE SMOOTH",
"180 902 OFFCURVE",
"206 878 OFFCURVE",
"206 843 CURVE SMOOTH",
"206 808 OFFCURVE",
"180 784 OFFCURVE",
"143 784 CURVE SMOOTH"
);
}
);
width = 286;
},
{
anchors = (
{
name = _top;
position = "{220, 679}";
}
);
layerId = "3997DD6A-B1DD-4C8E-8076-A32381C7B82F";
paths = (
{
closed = 1;
nodes = (
"303 714 OFFCURVE",
"350 756 OFFCURVE",
"363 816 CURVE SMOOTH",
"381 903 OFFCURVE",
"338 958 OFFCURVE",
"265 958 CURVE SMOOTH",
"203 958 OFFCURVE",
"157 916 OFFCURVE",
"144 856 CURVE SMOOTH",
"126 769 OFFCURVE",
"168 714 OFFCURVE",
"242 714 CURVE SMOOTH"
);
},
{
closed = 1;
nodes = (
"232 793 OFFCURVE",
"224 806 OFFCURVE",
"231 839 CURVE SMOOTH",
"237 865 OFFCURVE",
"246 878 OFFCURVE",
"259 879 CURVE SMOOTH",
"274 879 OFFCURVE",
"282 866 OFFCURVE",
"275 833 CURVE SMOOTH",
"270 807 OFFCURVE",
"261 794 OFFCURVE",
"248 793 CURVE SMOOTH"
);
}
);
width = 267;
},
{
anchors = (
{
name = _top;
position = "{270, 672}";
}
);
layerId = "83818878-ED40-419E-99CD-108DAFFBE778";
paths = (
{
closed = 1;
nodes = (
"317 743 OFFCURVE",
"368 784 OFFCURVE",
"378 843 CURVE SMOOTH",
"389 903 OFFCURVE",
"351 941 OFFCURVE",
"285 941 CURVE SMOOTH",
"222 941 OFFCURVE",
"169 901 OFFCURVE",
"159 841 CURVE SMOOTH",
"149 783 OFFCURVE",
"188 743 OFFCURVE",
"251 743 CURVE SMOOTH"
);
},
{
closed = 1;
nodes = (
"214 773 OFFCURVE",
"187 801 OFFCURVE",
"194 842 CURVE SMOOTH",
"201 882 OFFCURVE",
"238 911 OFFCURVE",
"280 911 CURVE SMOOTH",
"326 911 OFFCURVE",
"352 883 OFFCURVE",
"345 843 CURVE SMOOTH",
"338 803 OFFCURVE",
"301 773 OFFCURVE",
"256 773 CURVE SMOOTH"
);
}
);
width = 289;
},
{
anchors = (
{
name = _top;
position = "{241, 672}";
}
);
layerId = "60C8C1A3-75DB-4AA2-AA92-15A0C8BC52E3";
paths = (
{
closed = 1;
nodes = (
"332 737 OFFCURVE",
"391 789 OFFCURVE",
"392 857 CURVE SMOOTH",
"393 912 OFFCURVE",
"354 949 OFFCURVE",
"292 949 CURVE SMOOTH",
"217 949 OFFCURVE",
"154 897 OFFCURVE",
"153 829 CURVE SMOOTH",
"152 774 OFFCURVE",
"193 737 OFFCURVE",
"254 737 CURVE SMOOTH"
);
},
{
closed = 1;
nodes = (
"228 783 OFFCURVE",
"205 804 OFFCURVE",
"206 835 CURVE SMOOTH",
"207 873 OFFCURVE",
"241 902 OFFCURVE",
"283 902 CURVE SMOOTH",
"319 902 OFFCURVE",
"340 882 OFFCURVE",
"339 850 CURVE SMOOTH",
"339 813 OFFCURVE",
"306 783 OFFCURVE",
"262 783 CURVE SMOOTH"
);
}
);
width = 298;
},
{
anchors = (
{
name = _top;
position = "{270, 679}";
}
);
layerId = "FFB0BD1F-7FAC-4F91-A9E1-473A5D606C71";
paths = (
{
closed = 1;
nodes = (
"374 725 OFFCURVE",
"437 780 OFFCURVE",
"437 854 CURVE SMOOTH",
"437 921 OFFCURVE",
"383 966 OFFCURVE",
"301 966 CURVE SMOOTH",
"207 966 OFFCURVE",
"143 911 OFFCURVE",
"143 836 CURVE SMOOTH",
"143 769 OFFCURVE",
"198 725 OFFCURVE",
"281 725 CURVE SMOOTH"
);
},
{
closed = 1;
nodes = (
"266 808 OFFCURVE",
"253 821 OFFCURVE",
"253 839 CURVE SMOOTH",
"253 865 OFFCURVE",
"269 883 OFFCURVE",
"294 883 CURVE SMOOTH",
"315 883 OFFCURVE",
"328 870 OFFCURVE",
"328 851 CURVE SMOOTH",
"328 825 OFFCURVE",
"313 808 OFFCURVE",
"287 808 CURVE SMOOTH"
);
}
);
width = 336;
},
{
anchors = (
{
name = _top;
position = "{212, 674}";
}
);
layerId = "DE16639F-02D9-40F6-995B-45753FE85645";
paths = (
{
closed = 1;
nodes = (
"255 738 OFFCURVE",
"288 770 OFFCURVE",
"300 825 CURVE SMOOTH",
"312 890 OFFCURVE",
"289 934 OFFCURVE",
"234 934 CURVE SMOOTH",
"193 934 OFFCURVE",
"160 902 OFFCURVE",
"149 847 CURVE SMOOTH",
"136 782 OFFCURVE",
"159 738 OFFCURVE",
"215 738 CURVE SMOOTH"
);
},
{
closed = 1;
nodes = (
"190 778 OFFCURVE",
"185 804 OFFCURVE",
"193 840 CURVE SMOOTH",
"200 873 OFFCURVE",
"213 894 OFFCURVE",
"234 894 CURVE SMOOTH",
"258 894 OFFCURVE",
"263 868 OFFCURVE",
"256 832 CURVE SMOOTH",
"249 799 OFFCURVE",
"236 778 OFFCURVE",
"214 778 CURVE SMOOTH"
);
}
);
width = 205;
},
{
anchors = (
{
name = _top;
position = "{186, 672}";
}
);
layerId = "CF2D9F7C-A313-4B1D-9A0D-3EFAA90186C4";
paths = (
{
closed = 1;
nodes = (
"244 745 OFFCURVE",
"271 773 OFFCURVE",
"282 825 CURVE SMOOTH",
"293 877 OFFCURVE",
"278 923 OFFCURVE",
"230 923 CURVE SMOOTH",
"197 923 OFFCURVE",
"170 895 OFFCURVE",
"159 843 CURVE SMOOTH",
"148 791 OFFCURVE",
"162 745 OFFCURVE",
"211 745 CURVE SMOOTH"
);
},
{
closed = 1;
nodes = (
"181 770 OFFCURVE",
"178 804 OFFCURVE",
"185 839 CURVE SMOOTH",
"193 874 OFFCURVE",
"208 898 OFFCURVE",
"229 898 CURVE SMOOTH",
"258 898 OFFCURVE",
"264 868 OFFCURVE",
"256 829 CURVE SMOOTH",
"248 794 OFFCURVE",
"233 770 OFFCURVE",
"211 770 CURVE SMOOTH"
);
}
);
width = 196;
}
);
unicode = 02DA;
}
{
glyphname = greater;
layers = (
{
layerId = "6932EABA-00D8-4526-96D6-87ADD7AC589E";
paths = (
{
closed = 1;
nodes = (
"488 343 LINE",
"488 387 LINE",
"57 581 LINE",
"57 549 LINE",
"457 367 LINE",
"457 363 LINE",
"57 181 LINE",
"57 149 LINE"
);
}
);
width = 545;
},
{
layerId = "5CD2F84A-2568-4CD8-B351-D9C938FC152A";
paths = (
{
closed = 1;
nodes = (
"483 317 LINE",
"483 412 LINE",
"54 601 LINE",
"54 521 LINE",
"403 368 LINE",
"403 361 LINE",
"54 208 LINE",
"54 129 LINE"
);
}
);
width = 537;
},
{
layerId = "C27438A8-196C-4C9A-B899-94A1193B83E6";
paths = (
{
closed = 1;
nodes = (
"458 253 LINE",
"458 473 LINE",
"35 650 LINE",
"35 453 LINE",
"257 370 LINE",
"257 356 LINE",
"35 276 LINE",
"35 80 LINE"
);
}
);
width = 493;
},
{
layerId = "5908592F-1119-4296-AF9E-8219C1C10A44";
paths = (
{
closed = 1;
nodes = (
"586 340 LINE",
"586 390 LINE",
"53 611 LINE",
"53 568 LINE",
"545 367 LINE",
"545 363 LINE",
"53 162 LINE",
"53 119 LINE"
);
}
);
width = 639;
},
{
layerId = "B2A2C094-0A8E-4CD4-B0FB-CC77B76A82B9";
paths = (
{
closed = 1;
nodes = (
"610 244 LINE",
"610 484 LINE",
"48 669 LINE",
"48 456 LINE",
"396 372 LINE",
"396 356 LINE",
"48 276 LINE",
"48 61 LINE"
);
}
);
width = 658;
},
{
layerId = "AE48F426-5A06-4069-851E-B29A4CF5AB7C";
paths = (
{
closed = 1;
nodes = (
"600 309 LINE",
"600 420 LINE",
"63 629 LINE",
"63 531 LINE",
"511 369 LINE",
"511 360 LINE",
"63 199 LINE",
"63 101 LINE"
);
}
);
width = 663;
},
{
layerId = "3997DD6A-B1DD-4C8E-8076-A32381C7B82F";
paths = (
{
closed = 1;
nodes = (
"454 253 LINE",
"500 467 LINE",
"115 644 LINE",
"76 458 LINE",
"279 376 LINE",
"276 362 LINE",
"38 285 LINE",
"-5 85 LINE"
);
}
);
width = 493.38;
},
{
layerId = "83818878-ED40-419E-99CD-108DAFFBE778";
paths = (
{
closed = 1;
nodes = (
"605 342 LINE",
"614 387 LINE",
"128 609 LINE",
"120 570 LINE",
"569 369 LINE",
"569 365 LINE",
"34 165 LINE",
"25 121 LINE"
);
}
);
width = 640;
},
{
layerId = "60C8C1A3-75DB-4AA2-AA92-15A0C8BC52E3";
paths = (
{
closed = 1;
nodes = (
"615.6 315 LINE",
"634.8 410.4 LINE",
"139.8 624.2 LINE",
"123 543 LINE",
"541 370.2 LINE",
"539.8 362.4 LINE",
"49.8 196.6 LINE",
"30.6 104.6 LINE"
);
}
);
width = 669;
},
{
layerId = "FFB0BD1F-7FAC-4F91-A9E1-473A5D606C71";
paths = (
{
closed = 1;
nodes = (
"604 238 LINE",
"655 477 LINE",
"133 669 LINE",
"89 465 LINE",
"420 373 LINE",
"417 357 LINE",
"51 284 LINE",
"3 60 LINE"
);
}
);
width = 660;
},
{
layerId = "DE16639F-02D9-40F6-995B-45753FE85645";
paths = (
{
closed = 1;
nodes = (
"494 317 LINE",
"514 406 LINE",
"126 599 LINE",
"111 525 LINE",
"427 369 LINE",
"426 362 LINE",
"44 213 LINE",
"26 130 LINE"
);
}
);
width = 537;
},
{
layerId = "CF2D9F7C-A313-4B1D-9A0D-3EFAA90186C4";
paths = (
{
closed = 1;
nodes = (
"506 342 LINE",
"515 382 LINE",
"126 581 LINE",
"120 551 LINE",
"480 366 LINE",
"480 362 LINE",
"42 185 LINE",
"34 148 LINE"
);
}
);
width = 545.352;
}
);
leftMetricsKey = plus;
rightMetricsKey = plus;
unicode = 003E;
userData = {
KernOnSpecialSpacing = {
L = math;
R = math;
};
};
}
{
glyphname = mu;
layers = (
{
layerId = "6932EABA-00D8-4526-96D6-87ADD7AC589E";
paths = (
{
closed = 1;
nodes = (
"97 -132 LINE",
"97 39 LINE",
"94 38 LINE",
"109 6 OFFCURVE",
"133 -10 OFFCURVE",
"167 -10 CURVE SMOOTH",
"220 -10 OFFCURVE",
"258 21 OFFCURVE",
"274 77 CURVE",
"276 77 LINE",
"277 0 LINE",
"305 0 LINE",
"305 516 LINE",
"276 516 LINE",
"276 209 LINE SMOOTH",
"276 95 OFFCURVE",
"249 16 OFFCURVE",
"175 16 CURVE SMOOTH",
"125 16 OFFCURVE",
"97 41 OFFCURVE",
"97 145 CURVE SMOOTH",
"97 516 LINE",
"68 516 LINE",
"68 -132 LINE"
);
}
);
width = 379;
},
{
layerId = "5CD2F84A-2568-4CD8-B351-D9C938FC152A";
paths = (
{
closed = 1;
nodes = (
"131 -132 LINE",
"131 41 LINE",
"98 34 LINE",
"111 5 OFFCURVE",
"133 -10 OFFCURVE",
"167 -10 CURVE SMOOTH",
"215 -10 OFFCURVE",
"253 20 OFFCURVE",
"270 73 CURVE",
"273 73 LINE",
"275 0 LINE",
"345 0 LINE",
"345 523 LINE",
"273 523 LINE",
"273 208 LINE SMOOTH",
"273 113 OFFCURVE",
"253 50 OFFCURVE",
"194 50 CURVE SMOOTH",
"153 50 OFFCURVE",
"131 72 OFFCURVE",
"131 161 CURVE SMOOTH",
"131 523 LINE",
"58 523 LINE",
"58 -132 LINE"
);
}
);
width = 404;
},
{
layerId = "C27438A8-196C-4C9A-B899-94A1193B83E6";
paths = (
{
closed = 1;
nodes = (
"208 -132 LINE",
"208 46 LINE",
"101 24 LINE",
"109 3 OFFCURVE",
"129 -9 OFFCURVE",
"161 -9 CURVE SMOOTH",
"197 -9 OFFCURVE",
"233 16 OFFCURVE",
"252 62 CURVE",
"260 62 LINE",
"265 0 LINE",
"437 0 LINE",
"437 543 LINE",
"260 543 LINE",
"260 207 LINE SMOOTH",
"260 159 OFFCURVE",
"255 134 OFFCURVE",
"234 134 CURVE SMOOTH",
"217 134 OFFCURVE",
"208 147 OFFCURVE",
"208 202 CURVE SMOOTH",
"208 543 LINE",
"28 543 LINE",
"28 -132 LINE"
);
}
);
width = 465;
},
{
layerId = "5908592F-1119-4296-AF9E-8219C1C10A44";
paths = (
{
closed = 1;
nodes = (
"92 -132 LINE",
"92 145 LINE",
"77 130 LINE",
"94 45 OFFCURVE",
"177 -8 OFFCURVE",
"294 -8 CURVE SMOOTH",
"396 -8 OFFCURVE",
"488 41 OFFCURVE",
"526 132 CURVE",
"532 132 LINE",
"533 0 LINE",
"569 0 LINE",
"569 518 LINE",
"532 518 LINE",
"532 264 LINE SMOOTH",
"532 123 OFFCURVE",
"451 30 OFFCURVE",
"301 30 CURVE SMOOTH",
"168 30 OFFCURVE",
"92 91 OFFCURVE",
"92 234 CURVE SMOOTH",
"92 518 LINE",
"54 518 LINE",
"54 -132 LINE"
);
}
);
width = 626;
},
{
layerId = "B2A2C094-0A8E-4CD4-B0FB-CC77B76A82B9";
paths = (
{
closed = 1;
nodes = (
"273 -132 LINE",
"273 32 LINE",
"218 -2 LINE",
"234 -8 OFFCURVE",
"260 -10 OFFCURVE",
"282 -10 CURVE SMOOTH",
"363 -10 OFFCURVE",
"435 24 OFFCURVE",
"465 78 CURVE",
"476 78 LINE",
"483 0 LINE",
"701 0 LINE",
"701 545 LINE",
"476 545 LINE",
"476 273 LINE SMOOTH",
"476 207 OFFCURVE",
"448 162 OFFCURVE",
"363 162 CURVE SMOOTH",
"292 162 OFFCURVE",
"273 213 OFFCURVE",
"273 279 CURVE SMOOTH",
"273 545 LINE",
"49 545 LINE",
"49 -132 LINE"
);
}
);
width = 755;
},
{
layerId = "AE48F426-5A06-4069-851E-B29A4CF5AB7C";
paths = (
{
closed = 1;
nodes = (
"152 -132 LINE",
"152 106 LINE",
"125 85 LINE",
"142 27 OFFCURVE",
"208 -9 OFFCURVE",
"296 -9 CURVE SMOOTH",
"389 -9 OFFCURVE",
"474 35 OFFCURVE",
"510 112 CURVE",
"516 112 LINE",
"519 0 LINE",
"606 0 LINE",
"606 527 LINE",
"516 527 LINE",
"516 265 LINE SMOOTH",
"516 149 OFFCURVE",
"452 72 OFFCURVE",
"323 72 CURVE SMOOTH",
"211 72 OFFCURVE",
"152 128 OFFCURVE",
"152 245 CURVE SMOOTH",
"152 527 LINE",
"63 527 LINE",
"63 -132 LINE"
);
}
);
width = 669;
},
{
layerId = "3997DD6A-B1DD-4C8E-8076-A32381C7B82F";
paths = (
{
closed = 1;
nodes = (
"145 -132 LINE",
"177 46 LINE",
"66 24 LINE",
"70 3 OFFCURVE",
"88 -9 OFFCURVE",
"120 -9 CURVE SMOOTH",
"156 -9 OFFCURVE",
"197 16 OFFCURVE",
"224 62 CURVE",
"232 62 LINE",
"226 0 LINE",
"398 0 LINE",
"494 543 LINE",
"317 543 LINE",
"257 207 LINE SMOOTH",
"249 159 OFFCURVE",
"239 134 OFFCURVE",
"218 134 CURVE SMOOTH",
"201 134 OFFCURVE",
"195 147 OFFCURVE",
"204 202 CURVE SMOOTH",
"265 543 LINE",
"85 543 LINE",
"-35 -132 LINE"
);
}
);
width = 484;
},
{
layerId = "83818878-ED40-419E-99CD-108DAFFBE778";
paths = (
{
closed = 1;
nodes = (
"147 -132 LINE",
"147 145 LINE",
"132 130 LINE",
"149 45 OFFCURVE",
"232 -8 OFFCURVE",
"349 -8 CURVE SMOOTH",
"451 -8 OFFCURVE",
"543 41 OFFCURVE",
"581 132 CURVE",
"587 132 LINE",
"588 0 LINE",
"624 0 LINE",
"624 518 LINE",
"587 518 LINE",
"587 264 LINE SMOOTH",
"587 123 OFFCURVE",
"506 30 OFFCURVE",
"356 30 CURVE SMOOTH",
"223 30 OFFCURVE",
"147 91 OFFCURVE",
"147 234 CURVE SMOOTH",
"147 518 LINE",
"109 518 LINE",
"109 -132 LINE"
);
}
);
width = 736;
},
{
layerId = "60C8C1A3-75DB-4AA2-AA92-15A0C8BC52E3";
paths = (
{
closed = 1;
nodes = (
"207.2 -132 LINE",
"207.2 106 LINE",
"181.4 85 LINE",
"198.4 27 OFFCURVE",
"263.2 -9 OFFCURVE",
"351.2 -9 CURVE SMOOTH",
"445.4 -9 OFFCURVE",
"530.4 35 OFFCURVE",
"565.2 112 CURVE",
"571.2 112 LINE",
"575.4 0 LINE",
"661.2 0 LINE",
"661.2 527 LINE",
"571.2 527 LINE",
"571.2 265 LINE SMOOTH",
"571.2 147.8 OFFCURVE",
"507.2 72 OFFCURVE",
"379.4 72 CURVE SMOOTH",
"267.4 72 OFFCURVE",
"207.2 128 OFFCURVE",
"207.2 245 CURVE SMOOTH",
"207.2 527 LINE",
"118.2 527 LINE",
"118.2 -132 LINE"
);
}
);
width = 780.6;
},
{
layerId = "FFB0BD1F-7FAC-4F91-A9E1-473A5D606C71";
paths = (
{
closed = 1;
nodes = (
"337 -132 LINE",
"335 32 LINE",
"280 -2 LINE",
"297 -8 OFFCURVE",
"323 -10 OFFCURVE",
"345 -10 CURVE SMOOTH",
"425 -10 OFFCURVE",
"498 24 OFFCURVE",
"527 78 CURVE",
"538 78 LINE",
"546 0 LINE",
"763 0 LINE",
"758 545 LINE",
"533 545 LINE",
"536 273 LINE SMOOTH",
"537 207 OFFCURVE",
"509 162 OFFCURVE",
"424 162 CURVE SMOOTH",
"353 162 OFFCURVE",
"335 213 OFFCURVE",
"335 279 CURVE SMOOTH",
"331 545 LINE",
"107 545 LINE",
"113 -132 LINE"
);
}
);
width = 875;
},
{
layerId = "DE16639F-02D9-40F6-995B-45753FE85645";
paths = (
{
closed = 1;
nodes = (
"71 -132 LINE",
"102 41 LINE",
"68 34 LINE",
"75 5 OFFCURVE",
"95 -10 OFFCURVE",
"129 -10 CURVE SMOOTH",
"177 -10 OFFCURVE",
"220 20 OFFCURVE",
"246 73 CURVE",
"249 73 LINE",
"239 0 LINE",
"309 0 LINE",
"401 523 LINE",
"329 523 LINE",
"273 208 LINE SMOOTH",
"256 113 OFFCURVE",
"225 50 OFFCURVE",
"166 50 CURVE SMOOTH",
"125 50 OFFCURVE",
"107 72 OFFCURVE",
"123 161 CURVE SMOOTH",
"187 523 LINE",
"114 523 LINE",
"-2 -132 LINE"
);
}
);
width = 424;
},
{
layerId = "CF2D9F7C-A313-4B1D-9A0D-3EFAA90186C4";
paths = (
{
closed = 1;
nodes = (
"152 -132 LINE",
"152 39 LINE",
"149 38 LINE",
"164 6 OFFCURVE",
"188 -10 OFFCURVE",
"222 -10 CURVE SMOOTH",
"275 -10 OFFCURVE",
"313 21 OFFCURVE",
"329 77 CURVE",
"331 77 LINE",
"332 0 LINE",
"360 0 LINE",
"360 516 LINE",
"331 516 LINE",
"331 209 LINE SMOOTH",
"331 95 OFFCURVE",
"304 16 OFFCURVE",
"230 16 CURVE SMOOTH",
"180 16 OFFCURVE",
"152 41 OFFCURVE",
"152 145 CURVE SMOOTH",
"152 516 LINE",
"123 516 LINE",
"123 -132 LINE"
);
}
);
width = 489;
}
);
leftKerningGroup = mu;
rightKerningGroup = mu;
unicode = 03BC;
}
{
glyphname = question;
layers = (
{
layerId = "6932EABA-00D8-4526-96D6-87ADD7AC589E";
paths = (
{
closed = 1;
nodes = (
"181.2 160 LINE",
"181.2 189 LINE SMOOTH",
"181.2 342 OFFCURVE",
"286.2 424 OFFCURVE",
"286.2 576 CURVE SMOOTH",
"286.2 673 OFFCURVE",
"247.2 739 OFFCURVE",
"159.2 739 CURVE SMOOTH",
"79.2 739 OFFCURVE",
"24.2 680 OFFCURVE",
"28.2 535 CURVE",
"58.2 535 LINE",
"56.2 642 OFFCURVE",
"82.2 711 OFFCURVE",
"159.2 711 CURVE SMOOTH",
"216.2 711 OFFCURVE",
"254.2 673 OFFCURVE",
"254.2 574 CURVE SMOOTH",
"254.2 426 OFFCURVE",
"150.2 349 OFFCURVE",
"150.2 188 CURVE SMOOTH",
"150.2 160 LINE"
);
},
{
closed = 1;
nodes = (
"189.2 0 LINE",
"189.2 55 LINE",
"142.2 55 LINE",
"142.2 0 LINE"
);
}
);
width = 319.2;
},
{
layerId = "5CD2F84A-2568-4CD8-B351-D9C938FC152A";
paths = (
{
closed = 1;
nodes = (
"214.28 179 LINE",
"214.28 202 LINE SMOOTH",
"214.28 340 OFFCURVE",
"324.28 423 OFFCURVE",
"324.28 570 CURVE SMOOTH",
"324.28 671 OFFCURVE",
"279.28 739 OFFCURVE",
"177.28 739 CURVE SMOOTH",
"82.28 739 OFFCURVE",
"19.28 677 OFFCURVE",
"24.28 526 CURVE",
"91.28 526 LINE",
"89.28 617 OFFCURVE",
"112.28 673 OFFCURVE",
"174.28 673 CURVE SMOOTH",
"220.28 673 OFFCURVE",
"251.28 642 OFFCURVE",
"251.28 560 CURVE SMOOTH",
"251.28 431 OFFCURVE",
"146.28 354 OFFCURVE",
"146.28 205 CURVE SMOOTH",
"146.28 179 LINE"
);
},
{
closed = 1;
nodes = (
"221.28 0 LINE",
"221.28 88 LINE",
"139.28 88 LINE",
"139.28 0 LINE"
);
}
);
width = 351.28;
},
{
layerId = "C27438A8-196C-4C9A-B899-94A1193B83E6";
paths = (
{
closed = 1;
nodes = (
"296.4 225 LINE",
"296.4 234 LINE SMOOTH",
"296.4 336 OFFCURVE",
"419.4 422 OFFCURVE",
"419.4 555 CURVE SMOOTH",
"419.4 666 OFFCURVE",
"357.4 739 OFFCURVE",
"223.4 739 CURVE SMOOTH",
"91.4 739 OFFCURVE",
"6.4 667 OFFCURVE",
"13.4 503 CURVE",
"173.4 503 LINE",
"171.4 558 OFFCURVE",
"185.4 579 OFFCURVE",
"213.4 579 CURVE SMOOTH",
"233.4 579 OFFCURVE",
"244.4 564 OFFCURVE",
"244.4 525 CURVE SMOOTH",
"244.4 443 OFFCURVE",
"138.4 369 OFFCURVE",
"138.4 246 CURVE SMOOTH",
"138.4 225 LINE"
);
},
{
closed = 1;
nodes = (
"301.4 0 LINE",
"301.4 168 LINE",
"131.4 168 LINE",
"131.4 0 LINE"
);
}
);
width = 432.4;
},
{
layerId = "5908592F-1119-4296-AF9E-8219C1C10A44";
paths = (
{
closed = 1;
nodes = (
"288 168 LINE",
"288 179 LINE SMOOTH",
"288 307 OFFCURVE",
"511 353 OFFCURVE",
"511 544 CURVE SMOOTH",
"511 663 OFFCURVE",
"418 739 OFFCURVE",
"279 739 CURVE SMOOTH",
"138 739 OFFCURVE",
"43 664 OFFCURVE",
"36 540 CURVE",
"72 540 LINE",
"77 638 OFFCURVE",
"153 703 OFFCURVE",
"277 703 CURVE SMOOTH",
"395 703 OFFCURVE",
"472 646 OFFCURVE",
"472 543 CURVE SMOOTH",
"472 362 OFFCURVE",
"254 328 OFFCURVE",
"254 179 CURVE SMOOTH",
"254 168 LINE"
);
},
{
closed = 1;
nodes = (
"295 0 LINE",
"295 62 LINE",
"250 62 LINE",
"250 0 LINE"
);
}
);
width = 547;
},
{
layerId = "B2A2C094-0A8E-4CD4-B0FB-CC77B76A82B9";
paths = (
{
closed = 1;
nodes = (
"425 240 LINE",
"425 245 LINE SMOOTH",
"425 305 OFFCURVE",
"617 359 OFFCURVE",
"617 523 CURVE SMOOTH",
"617 653 OFFCURVE",
"521 738 OFFCURVE",
"320 738 CURVE SMOOTH",
"144 738 OFFCURVE",
"25 659 OFFCURVE",
"19 503 CURVE",
"236 503 LINE",
"235 537 OFFCURVE",
"260 564 OFFCURVE",
"307 564 CURVE SMOOTH",
"355 564 OFFCURVE",
"382 547 OFFCURVE",
"382 502 CURVE SMOOTH",
"382 426 OFFCURVE",
"219 386 OFFCURVE",
"219 258 CURVE SMOOTH",
"219 240 LINE"
);
},
{
closed = 1;
nodes = (
"427 0 LINE",
"427 179 LINE",
"219 179 LINE",
"219 0 LINE"
);
}
);
width = 636;
},
{
layerId = "AE48F426-5A06-4069-851E-B29A4CF5AB7C";
paths = (
{
closed = 1;
nodes = (
"323 192 LINE",
"323 200 LINE SMOOTH",
"323 308 OFFCURVE",
"534 356 OFFCURVE",
"534 538 CURVE SMOOTH",
"534 660 OFFCURVE",
"442 739 OFFCURVE",
"288 739 CURVE SMOOTH",
"139 739 OFFCURVE",
"39 662 OFFCURVE",
"32 528 CURVE",
"118 528 LINE",
"121 606 OFFCURVE",
"182 658 OFFCURVE",
"283 658 CURVE SMOOTH",
"378 658 OFFCURVE",
"441 615 OFFCURVE",
"441 530 CURVE SMOOTH",
"441 385 OFFCURVE",
"241 348 OFFCURVE",
"241 204 CURVE SMOOTH",
"241 192 LINE"
);
},
{
closed = 1;
nodes = (
"330 0 LINE",
"330 100 LINE",
"239 100 LINE",
"239 0 LINE"
);
}
);
width = 566;
},
{
layerId = "3997DD6A-B1DD-4C8E-8076-A32381C7B82F";
paths = (
{
closed = 1;
nodes = (
"289.674 226 LINE",
"293.674 243 LINE SMOOTH",
"312.674 324 OFFCURVE",
"449.674 398 OFFCURVE",
"476.674 523 CURVE SMOOTH",
"504.674 651 OFFCURVE",
"429.674 737 OFFCURVE",
"288.674 737 CURVE SMOOTH",
"172.674 737 OFFCURVE",
"85.674 662 OFFCURVE",
"68.674 530 CURVE",
"224.674 508 LINE",
"233.674 558 OFFCURVE",
"249.674 578 OFFCURVE",
"273.674 578 CURVE SMOOTH",
"304.674 578 OFFCURVE",
"306.674 552 OFFCURVE",
"298.674 518 CURVE SMOOTH",
"279.674 437 OFFCURVE",
"160.674 379 OFFCURVE",
"137.674 258 CURVE SMOOTH",
"131.674 226 LINE"
);
},
{
closed = 1;
nodes = (
"246.674 0 LINE",
"282.674 168 LINE",
"112.674 168 LINE",
"76.674 0 LINE"
);
}
);
width = 437;
},
{
layerId = "83818878-ED40-419E-99CD-108DAFFBE778";
paths = (
{
closed = 1;
nodes = (
"273 168 LINE",
"276 180 LINE SMOOTH",
"309 311 OFFCURVE",
"541 322 OFFCURVE",
"570 511 CURVE SMOOTH",
"591 648 OFFCURVE",
"486 738 OFFCURVE",
"343 738 CURVE SMOOTH",
"216 738 OFFCURVE",
"127 675 OFFCURVE",
"101 563 CURVE",
"138 563 LINE",
"159 651 OFFCURVE",
"231 703 OFFCURVE",
"340 703 CURVE SMOOTH",
"476 703 OFFCURVE",
"552 624 OFFCURVE",
"530 506 CURVE SMOOTH",
"499 339 OFFCURVE",
"281 339 OFFCURVE",
"242 184 CURVE SMOOTH",
"238 168 LINE"
);
},
{
closed = 1;
nodes = (
"246 0 LINE",
"259 62 LINE",
"214 62 LINE",
"201 0 LINE"
);
}
);
width = 552.97;
},
{
layerId = "60C8C1A3-75DB-4AA2-AA92-15A0C8BC52E3";
paths = (
{
closed = 1;
nodes = (
"318.2 192 LINE",
"319.4 198.8 LINE SMOOTH",
"338.6 303.2 OFFCURVE",
"567.6 332 OFFCURVE",
"597.6 503.2 CURVE SMOOTH",
"621.6 648 OFFCURVE",
"506.8 740.2 OFFCURVE",
"355.2 740.2 CURVE SMOOTH",
"218.2 740.2 OFFCURVE",
"118.2 670.4 OFFCURVE",
"92 547.2 CURVE",
"181.6 547.2 LINE",
"199 621.6 OFFCURVE",
"262.4 661.6 OFFCURVE",
"347.8 661.6 CURVE SMOOTH",
"457.2 661.6 OFFCURVE",
"520.2 603 OFFCURVE",
"502.2 503.6 CURVE SMOOTH",
"480.6 370.6 OFFCURVE",
"269.8 356.4 OFFCURVE",
"237.4 206.4 CURVE SMOOTH",
"233.8 192 LINE"
);
},
{
closed = 1;
nodes = (
"285.6 0 LINE",
"306 100 LINE",
"215 100 LINE",
"194.6 0 LINE"
);
}
);
width = 577.75;
},
{
layerId = "FFB0BD1F-7FAC-4F91-A9E1-473A5D606C71";
paths = (
{
closed = 1;
nodes = (
"429 240 LINE",
"430 246 LINE SMOOTH",
"442 310 OFFCURVE",
"645 342 OFFCURVE",
"668 495 CURVE SMOOTH",
"690 640 OFFCURVE",
"575 739 OFFCURVE",
"389 739 CURVE SMOOTH",
"218 739 OFFCURVE",
"95 657 OFFCURVE",
"69 509 CURVE",
"291 509 LINE",
"296 545 OFFCURVE",
"325 568 OFFCURVE",
"366 568 CURVE SMOOTH",
"416 568 OFFCURVE",
"444 543 OFFCURVE",
"436 499 CURVE SMOOTH",
"423 421 OFFCURVE",
"250 404 OFFCURVE",
"225 262 CURVE SMOOTH",
"221 240 LINE"
);
},
{
closed = 1;
nodes = (
"382 0 LINE",
"419 179 LINE",
"211 179 LINE",
"173 0 LINE"
);
}
);
width = 640;
},
{
layerId = "DE16639F-02D9-40F6-995B-45753FE85645";
paths = (
{
closed = 1;
nodes = (
"188 177 LINE",
"193 201 LINE SMOOTH",
"222 339 OFFCURVE",
"345 416 OFFCURVE",
"378 567 CURVE SMOOTH",
"400 668 OFFCURVE",
"373 739 OFFCURVE",
"273 739 CURVE SMOOTH",
"180 739 OFFCURVE",
"107 675 OFFCURVE",
"80 526 CURVE",
"142 526 LINE",
"161 622 OFFCURVE",
"196 675 OFFCURVE",
"257 675 CURVE SMOOTH",
"303 675 OFFCURVE",
"325 644 OFFCURVE",
"308 562 CURVE SMOOTH",
"280 428 OFFCURVE",
"164 354 OFFCURVE",
"131 204 CURVE SMOOTH",
"125 177 LINE"
);
},
{
closed = 1;
nodes = (
"158 0 LINE",
"177 86 LINE",
"98 86 LINE",
"80 0 LINE"
);
}
);
width = 340;
},
{
layerId = "CF2D9F7C-A313-4B1D-9A0D-3EFAA90186C4";
paths = (
{
closed = 1;
nodes = (
"163 160 LINE",
"168 187 LINE SMOOTH",
"196 337 OFFCURVE",
"317 403 OFFCURVE",
"351 554 CURVE SMOOTH",
"375 662 OFFCURVE",
"337 735 OFFCURVE",
"241 735 CURVE SMOOTH",
"171 735 OFFCURVE",
"115 681 OFFCURVE",
"90 550 CURVE",
"120 546 LINE",
"139 644 OFFCURVE",
"174 707 OFFCURVE",
"240 707 CURVE SMOOTH",
"318 707 OFFCURVE",
"339 647 OFFCURVE",
"320 556 CURVE SMOOTH",
"290 411 OFFCURVE",
"172 352 OFFCURVE",
"138 193 CURVE SMOOTH",
"131 160 LINE"
);
},
{
closed = 1;
nodes = (
"136 0 LINE",
"148 55 LINE",
"101 55 LINE",
"89 0 LINE"
);
}
);
width = 321;
}
);
leftKerningGroup = question;
leftMetricsKey = "=|S";
rightKerningGroup = question;
rightMetricsKey = "=|S";
unicode = 003F;
userData = {
KernOnSpecialSpacing = {
L = "spaced-off";
};
};
}
